<svg xmlns="http://www.w3.org/2000/svg" xmlns:xlink="http://www.w3.org/1999/xlink" width="595" height="842" fill="none" viewBox="0 0 595 842"><defs><path id="reuse-0" fill="#fff" d="M0 0H595V842H0z"/></defs><g clip-path="url(#a)"><use xlink:href="#reuse-0"/><use xlink:href="#reuse-0"/><path fill="#E13C2E" d="M525 796.5H534V797.5H525z" transform="rotate(180 525 796.5)"/><path fill="#1E3446" d="M516 796.5H568V797.5H516z" transform="rotate(180 516 796.5)"/><path fill="#1E3446" d="M528.3 800c-.1 0-.2 0-.1-.1l2.1-5.6h-1.9v.5h-1.1V793h4.5v1.3l-2.1 5.6-.2.1h-1.2Z"/><path fill="#D6C9C0" d="M453 66.3c0-.3 0-.6.3-.8.2-.2.4-.3.7-.3h58.2c.3 0 .5.1.7.3.2.2.3.5.3.8v10c0 .3-.1.6-.3.7-.2.3-.4.4-.7.4H454a1 1 0 0 1-.7-.4 1 1 0 0 1-.3-.7v-10Zm44.9 39.5a15 15 0 0 1-4.2 11.1 15.5 15.5 0 0 1-11.5 4.2H454a1 1 0 0 1-.7-.3 1 1 0 0 1-.3-.7v-10c0-.4 0-.6.3-.8.2-.2.4-.3.7-.3h25.7a8 8 0 0 0 5.6-2c1.5-1.2 2.2-3 2.2-5 0-2.2-.7-3.9-2.2-5.2a8.2 8.2 0 0 0-5.6-2H454a1 1 0 0 1-.7-.3 1 1 0 0 1-.3-.6V83.8c0-.3 0-.5.3-.8.2-.2.4-.2.7-.2h42.2c.3 0 .5 0 .7.2.2.3.3.5.3.8v10c0 .3-.1.6-.3.7-.2.3-.4.4-.7.4h-3c-.2 0-.3 0-.4.2l.1.2c3.3 2.4 5 5.9 5 10.5Zm-.6 57.8c0 .3-.1.5-.4.7-.1.2-.4.3-.6.3H488a1 1 0 0 1-.8-.3 1 1 0 0 1-.2-.7v-8.3c0-.3-.2-.5-.5-.5H454a1 1 0 0 1-.7-.3 1 1 0 0 1-.3-.7v-10c0-.3 0-.6.3-.8.2-.2.4-.3.7-.3h32.6c.3 0 .5-.1.5-.4v-5c0-.4 0-.6.2-.9l.8-.2h8.2c.2 0 .5 0 .6.2.3.3.4.5.4.8v5c0 .4.1.5.4.5h2c3.5 0 6.2.6 8.2 1.6 2 1.1 3.4 2.9 4.2 5.3.8 2.5 1.2 5.8 1.1 10.1v3.3c0 .3-.1.5-.3.7-.2.2-.4.3-.7.3h-7a1 1 0 0 1-.8-.3 1 1 0 0 1-.2-.7v-2.8c0-2-.5-3.4-1.3-4.2-.8-.8-2.2-1.2-4.2-1.2h-1c-.3 0-.4.2-.4.5v8.3Zm-45 20.6c0-4.8 1.3-9 3.8-12.4 2.5-3.4 6-5.8 10.3-7a31.9 31.9 0 0 1 17.9 0c4.2 1.3 7.6 3.7 10 7.1a21 21 0 0 1 3.6 12.4 20 20 0 0 1-3.6 12 18.8 18.8 0 0 1-10 7 29.5 29.5 0 0 1-17.6.3c-4.5-1.3-8-3.7-10.6-7.1a20 20 0 0 1-3.8-12.3Zm10.4 0a7 7 0 0 0 1.7 4.8 9.6 9.6 0 0 0 4.8 2.9c1.8.4 3.8.6 6 .6 2.4 0 4.4-.2 6-.6 2-.7 3.6-1.6 4.7-3 1-1.3 1.6-2.9 1.6-4.8 0-2-.6-3.6-1.6-4.9a9.3 9.3 0 0 0-4.6-2.7c-1.4-.5-3.4-.7-6.1-.7-2.6 0-4.6.2-6 .6-2 .6-3.6 1.5-4.8 2.8a7.5 7.5 0 0 0-1.7 5Zm-10.4 43.5c0-4.6 1.2-8.6 3.5-12 2.2-3.3 5.4-5.7 9.4-7.1 2.9-1 6.3-1.5 10.2-1.5 3.8 0 7.1.5 10 1.5 3.8 1.4 6.9 3.8 9.1 7.1 2.3 3.4 3.4 7.4 3.4 12s-1.2 8.6-3.4 12a16.4 16.4 0 0 1-11.8 7.7h-.2c-.5 0-.8-.3-1-.9l-1.4-9.9v-.1c0-.6.3-.9.8-1l1.4-.3a6.5 6.5 0 0 0 3.7-2.7c1-1.4 1.5-3 1.5-4.9a7.3 7.3 0 0 0-5.2-7.3c-1.7-.6-4-1-7-1s-5.4.3-7 1c-1.8.4-3.1 1.3-4.1 2.6a7.7 7.7 0 0 0-1.5 4.7 8 8 0 0 0 1.4 4.6c1 1.4 2.3 2.4 4 2.9h.5l.2.2c.7 0 1 .4.9 1.2l-1.6 9.9c0 .5-.4.8-1 .8l-2.5-.5a16 16 0 0 1-9-7 21.9 21.9 0 0 1-3.3-12Zm43.9 48.2c.3 0 .5.1.7.3.2.2.3.5.3.8v10c0 .3-.1.6-.3.7-.2.3-.4.4-.7.4H454a1 1 0 0 1-.7-.4 1 1 0 0 1-.3-.7v-10c0-.3 0-.6.3-.8.2-.2.4-.3.7-.3h3l.2-.1c0-.1 0-.3-.2-.4-3-2.3-4.6-5.8-4.6-10.6 0-4.4 1.3-8 4-10.8 2.6-2.8 6.3-4.2 11-4.2h28.8c.3 0 .5 0 .7.3.2.2.3.4.3.7v10c0 .3-.1.5-.3.7-.2.2-.4.3-.7.3h-25.7c-2.3 0-4.2.6-5.6 1.8a6.5 6.5 0 0 0-2.2 5.2c0 2 .6 3.6 1.7 4.8 1.2 1.3 2.8 2 4.7 2.3h27Zm-43.8 34.4c0-3.8.5-7.2 1.6-10 1.1-2.9 2.6-5.1 4.6-6.7 2-1.6 4.1-2.4 6.6-2.4h.9c.3 0 .5.1.7.3.2.2.3.5.3.8v9.5c0 .3-.1.5-.3.7-.2.2-.4.4-.7.4h-.1c-1.3 0-2.4.6-3.3 2-.8 1.5-1.3 3.2-1.3 5.4 0 1.9.4 3.5 1.1 4.7.8 1.2 1.8 1.8 3 1.8 1 0 1.8-.5 2.3-1.6.5-1 1-2.7 1.6-5A51 51 0 0 1 476 295c1.9-2.1 4.5-3.2 8-3.2a12 12 0 0 1 10 4.9c2.5 3.3 3.8 7.7 3.8 13.1 0 3.7-.6 6.9-1.8 9.7a14.2 14.2 0 0 1-4.9 6.3 12 12 0 0 1-7.2 2.3 1 1 0 0 1-.8-.3 1 1 0 0 1-.3-.7V318c0-.3.1-.5.3-.8l.8-.2c1.2 0 2.3-.7 3.2-2 .8-1.3 1.2-3 1.2-5s-.3-3.5-1-4.7c-.7-1.2-1.6-1.8-2.8-1.8-1.2 0-2 .5-2.6 1.7-.6 1.2-1.2 3.2-1.8 6a194.5 194.5 0 0 1-1.3 4.7 28 28 0 0 1-4.6 9.6c-2 2.3-4.7 3.5-8.3 3.5-4.2 0-7.6-1.7-10-5a23 23 0 0 1-3.5-13.6Z" opacity=".6"/><path fill="#D6C9C0" d="M528 60H531V659H528z" opacity=".8"/><path fill="#1E3446" d="m393.7 717-.4-.1v-27.7l.4-.2h4.7c.1 0 .2 0 .3.2l.1.3v27l-.1.4-.3.1h-4.7Zm20.4-20.9a7 7 0 0 1 5.1 2c1.3 1.3 2 3 2 5.3v13.1c0 .2 0 .3-.2.4l-.3.1H416l-.3-.1-.1-.4v-12c0-1-.4-1.9-1-2.5a3 3 0 0 0-2.3-1c-1 0-1.8.3-2.4 1-.6.6-1 1.5-1 2.6v12.3l-.4.1h-4.7l-.3-.1-.1-.4V696.6l.4-.2h4.7c.1 0 .3 0 .3.2l.2.3V698.5h.2c1-1.6 2.7-2.4 4.9-2.4Zm30.9.3s.2 0 .3.2l.1.3v3.8l-.1.3-.3.2h-4l-.1.2v15.1c0 .2 0 .3-.2.4l-.3.1h-4.7l-.3-.1-.2-.4v-15.1c0-.2 0-.2-.2-.2h-2.3c-.2 0-.3 0-.4-.2l-.1-.3v-3.8l.1-.3.4-.2h2.3c.2 0 .2 0 .2-.2v-.9c0-1.6.3-3 .8-3.8.5-1 1.3-1.6 2.4-2 1.2-.4 2.8-.6 4.8-.5h1.5c.1 0 .2 0 .3.2.1 0 .2.1.2.3v3.2l-.2.4-.3.1h-1.3c-1 0-1.6.2-2 .6-.3.3-.5 1-.5 2v.4c0 .1 0 .2.2.2h3.9Zm11.5 21c-2.2 0-4.1-.7-5.7-1.8a8.8 8.8 0 0 1-3.3-4.8 14.9 14.9 0 0 1 0-8.3c.6-2 1.7-3.6 3.3-4.7a9.8 9.8 0 0 1 5.8-1.7c2.2 0 4 .6 5.6 1.7 1.5 1 2.6 2.6 3.3 4.6a13.7 13.7 0 0 1 0 8.2 9 9 0 0 1-3.2 5 9.3 9.3 0 0 1-5.8 1.7Zm0-5c1 0 1.7-.2 2.3-.7.6-.6 1-1.3 1.3-2.2a11.5 11.5 0 0 0 0-5.7c-.3-.9-.8-1.6-1.4-2-.6-.6-1.3-.8-2.2-.8-1 0-1.7.2-2.3.7-.6.5-1 1.2-1.3 2.1-.2.7-.3 1.6-.3 2.9 0 1.2.1 2.1.3 2.8.3 1 .7 1.6 1.3 2.2.7.5 1.4.8 2.3.8Zm22.3 5c-2.2 0-4-.6-5.6-1.7a8.8 8.8 0 0 1-3.3-4.4c-.5-1.3-.7-2.9-.7-4.7 0-1.8.2-3.3.7-4.6a8.3 8.3 0 0 1 3.3-4.3c1.6-1 3.4-1.6 5.6-1.6 2 0 4 .6 5.6 1.6a7.7 7.7 0 0 1 3.5 5.5c0 .3-.1.5-.4.5l-4.6.7c-.3 0-.5-.1-.5-.4l-.2-.6a3 3 0 0 0-1.2-1.8c-.6-.4-1.4-.6-2.3-.6-.8 0-1.6.2-2.1.6-.6.4-1 1-1.3 1.8-.3.8-.4 1.9-.4 3.2 0 1.4.1 2.5.4 3.3.2.8.6 1.4 1.2 1.9s1.4.7 2.2.7c.8 0 1.6-.2 2.2-.7.6-.4 1-1 1.3-1.8v-.4c.1-.3.3-.4.6-.4l4.6.8c.3 0 .4.2.4.4l-.2 1.2a7.4 7.4 0 0 1-3.3 4.2c-1.6 1-3.4 1.5-5.5 1.5Zm24.4-20.5.1-.3.4-.2h4.7c.1 0 .2 0 .3.2l.1.3v19.6l-.1.4-.3.1h-4.7l-.4-.1-.1-.4V715l-.2.1c-1.1 1.5-2.8 2.2-5 2.2a7 7 0 0 1-5-1.9c-1.3-1.2-2-3-2-5.1v-13.4c0-.1 0-.2.2-.3l.3-.2h4.7c.1 0 .2 0 .3.2l.1.3v12c0 1 .3 2 .9 2.6a3 3 0 0 0 2.4 1c.9 0 1.6-.3 2.2-.8.6-.6 1-1.3 1.1-2.2V697Zm18 20.4c-1.8 0-3.3-.3-4.7-.8a7.3 7.3 0 0 1-3.1-2.1c-.7-1-1-2-1-3v-.8l.4-.2h4.4c.2 0 .3 0 .4.2l.1.3c0 .6.3 1.2 1 1.6.6.4 1.5.6 2.5.6.9 0 1.6-.2 2.2-.5.5-.4.8-.9.8-1.4 0-.5-.2-.8-.7-1-.5-.3-1.3-.6-2.4-.8a23.8 23.8 0 0 1-7-3.1c-1-.9-1.5-2.1-1.5-3.7 0-2 .7-3.5 2.2-4.7a9.9 9.9 0 0 1 6.2-1.7c1.7 0 3.2.2 4.4.8 1.3.5 2.3 1.3 3 2.3.7 1 1 2 1 3.3v.4l-.4.1h-4.3l-.3-.1-.2-.4c0-.5-.3-1-.9-1.4-.6-.4-1.4-.6-2.3-.6-1 0-1.6.1-2.2.4-.6.4-.8.8-.8 1.4 0 .5.2.9.8 1.2l2.7.8a80.9 80.9 0 0 1 2.2.6 13 13 0 0 1 4.5 2.2c1 .8 1.6 2.1 1.6 3.8 0 2-.7 3.5-2.3 4.6-1.6 1.1-3.7 1.7-6.3 1.7Z"/></g><defs><clipPath id="a"><use xlink:href="#reuse-0"/></clipPath></defs></svg>