<svg xmlns="http://www.w3.org/2000/svg" xmlns:xlink="http://www.w3.org/1999/xlink" width="595" height="842" fill="none" viewBox="0 0 595 842"><defs><path id="reuse-0" fill="#fff" d="M0 0H595V842H0z"/></defs><g clip-path="url(#a)"><use xlink:href="#reuse-0"/><use xlink:href="#reuse-0"/><path fill="#E13C2E" d="M519 796.5H528V797.5H519z" transform="rotate(180 519 796.5)"/><path fill="#1E3446" d="M510 796.5H562V797.5H510z" transform="rotate(180 510 796.5)"/><path fill="#1E3446" d="M523.4 798.7h2.8v1.3h-4.6v-1.1a26 26 0 0 0 3.1-4c0-.2 0-.4-.2-.5a1 1 0 0 0-.7-.3 1 1 0 0 0-.6.3c-.2.1-.3.3-.3.6v.2l-.1.1h-1.2l-.1-.1v-.5l.3-1 .9-.6a3 3 0 0 1 1.1-.2c.5 0 1 .1 1.3.3l.8.7c.2.3.3.6.3 1l-.3.9-.6 1-.7.7-1 1-.2.2Zm8-4.4.2 1v3l-.3 1-.8.6a3 3 0 0 1-1.2.2c-.4 0-.8 0-1.1-.2-.4-.2-.6-.4-.8-.7-.2-.2-.3-.6-.3-1v-.2l.1-.1h1.2l.1.1v.1l.2.5.6.3c.3 0 .5-.1.6-.3.2-.1.3-.3.3-.5v-1h-.1c-.3.2-.6.4-1 .4-.5 0-.8-.1-1.2-.3a2 2 0 0 1-.7-.8c-.2-.3-.3-.7-.3-1.2l.2-1 .8-1c.4-.2.9-.3 1.4-.3.5 0 .9.1 1.3.4.4.2.6.6.8 1Zm-2.1 2c.3 0 .6-.2.7-.4l.2-.7c0-.2 0-.4-.2-.6-.1-.3-.4-.5-.7-.5-.4 0-.6.2-.8.5l-.1.6.1.7c.2.2.4.4.8.4Z"/><path fill="#D6C9C0" d="M452.3 85.9c0-4.6.7-8.6 2.2-12 1.5-3.5 3.5-6.2 6.2-8 2.8-1.9 6-2.8 9.6-2.8h1.9c.3 0 .5 0 .7.3.2.2.3.4.3.7V74c0 .3-.1.5-.3.7-.2.2-.4.4-.7.4h-1.3c-2.3 0-4.3 1-5.9 3.1-1.5 2.2-2.3 5-2.3 8.6 0 3 .6 5.3 2 6.8 1.2 1.5 2.8 2.3 4.7 2.3 1.4 0 2.5-.5 3.5-1.4 1-1 1.8-2.2 2.5-3.8l3-7.5c1.3-3.8 2.6-7 4-9.8 1.4-2.6 3.3-4.8 5.6-6.7 2.4-1.8 5.4-2.6 8.9-2.6 3.4 0 6.4.8 9 2.6a17 17 0 0 1 6 7.4 27 27 0 0 1 2 11c0 4.3-.8 8.2-2.3 11.5a18.5 18.5 0 0 1-6.6 8c-2.7 2-6 3-9.6 3h-1.3a1 1 0 0 1-.8-.4 1 1 0 0 1-.2-.7v-9.9c0-.2 0-.5.2-.7.3-.2.5-.3.8-.3h.7c2.4 0 4.4-1 6.1-3 1.7-2 2.6-4.6 2.6-8 0-2.8-.6-4.9-1.7-6.4a5.6 5.6 0 0 0-4.8-2.3c-1.4 0-2.6.5-3.6 1.3-1 1-1.8 2.3-2.6 4-.8 1.7-1.8 4.5-3.1 8.1-1.5 4.1-2.9 7.3-4 9.6a18.4 18.4 0 0 1-5.2 6.3 13.1 13.1 0 0 1-8.7 2.8c-5.4 0-9.7-2-12.8-6-3.1-3.9-4.7-9.2-4.7-16Zm33 64.9a31 31 0 0 1-10.3 1.5c-4 0-7.5-.5-10.7-1.6a18.6 18.6 0 0 1-8.8-6.3 17 17 0 0 1-3.2-10.5c0-4 1.4-7.3 4.3-9.6.2-.1.2-.2.2-.3 0-.2-.2-.2-.4-.2H438a.8.8 0 0 1-.7-.4.8.8 0 0 1-.3-.6v-10.1c0-.3.1-.5.3-.8.2-.2.4-.2.7-.2h58.2c.3 0 .5 0 .7.2.2.3.3.5.3.8v10c0 .3-.1.6-.3.7-.2.3-.4.4-.7.4h-2.9c-.1 0-.3 0-.3.2 0 0 0 .2.2.3 3.1 2.4 4.7 5.7 4.7 10 0 4-1.1 7.3-3.4 10.2-2.1 3-5.2 5-9.2 6.3Zm-19.2-13.2c2.2 1.5 5.2 2.2 9 2.2 3.7 0 6.6-.6 8.7-1.8a6.7 6.7 0 0 0 3.7-6.4c0-2.6-1.2-4.6-3.7-6-2-1.1-5-1.7-8.7-1.7-3.8 0-6.8.6-9 1.9a6.4 6.4 0 0 0-3.4 5.8c0 2.6 1.1 4.6 3.4 6Zm-13.8 37.6c0-4.8 1.3-9 3.8-12.4a19 19 0 0 1 10.3-7 32 32 0 0 1 17.9 0c4.2 1.3 7.6 3.6 10 7a21 21 0 0 1 3.6 12.5 20 20 0 0 1-3.6 12 18.8 18.8 0 0 1-10 7 29.4 29.4 0 0 1-17.6.2c-4.5-1.2-8-3.6-10.6-7a20 20 0 0 1-3.8-12.3Zm10.4 0a7 7 0 0 0 1.7 4.8 9.6 9.6 0 0 0 4.8 2.8c1.8.5 3.8.7 6 .7 2.4 0 4.4-.2 6-.7 2-.6 3.6-1.6 4.7-2.9 1-1.3 1.6-3 1.6-4.8 0-2-.6-3.6-1.6-5a9.3 9.3 0 0 0-4.6-2.7c-1.4-.4-3.4-.7-6.1-.7-2.6 0-4.6.2-6 .6-2 .6-3.6 1.6-4.8 2.9a7.5 7.5 0 0 0-1.7 5Zm25.8 48.2a1 1 0 0 1-.8-.3 1 1 0 0 1-.2-.7V214c0-.3-.2-.4-.4-.4h-18.3c-1.9 0-3.3.4-4.2 1.1-1 .8-1.4 2-1.4 3.8v2.8c0 .3 0 .5-.3.7-.2.3-.4.4-.7.4H454c-.6 0-1-.4-1-1l-.3-5.2c0-4.8.8-8.3 2.4-10.7 1.6-2.3 4.6-3.5 9-3.6h23c.2 0 .4-.1.4-.4v-5c0-.2 0-.5.2-.7.3-.2.5-.3.8-.3h7.7c.3 0 .5.1.7.3.2.2.3.5.3.8v4.9c0 .3.1.4.4.4H508c.3 0 .5 0 .7.3.2.2.3.4.3.7v9.7c0 .2-.1.5-.3.6-.2.3-.4.4-.7.4h-10.3c-.3 0-.4.1-.4.4v8.3c0 .3-.1.5-.3.7-.2.2-.4.3-.7.3h-7.7Zm-35.5 4c0-.2 0-.5.3-.7.2-.2.4-.3.7-.3h58.2c.3 0 .5.1.7.3.2.2.3.5.3.7v10.1c0 .3-.1.5-.3.7-.2.2-.4.3-.7.3H454a1 1 0 0 1-.7-.3 1 1 0 0 1-.3-.7v-10Zm49.2 22.2c0-2 .6-3.5 1.9-4.9 1.3-1.2 3-1.9 4.9-1.9a6.6 6.6 0 0 1 6.8 6.8 6.6 6.6 0 0 1-6.8 6.8 6.7 6.7 0 0 1-6.8-6.8Zm-49.2-5.1c0-.3 0-.6.3-.8.2-.2.4-.2.7-.2h42.3c.2 0 .5 0 .6.2.3.2.4.5.4.8v10c0 .3-.1.6-.4.7-.1.3-.4.4-.6.4H454a1 1 0 0 1-.7-.4 1 1 0 0 1-.3-.7v-10Zm43.2 43.2c.3 0 .5.1.7.3.2.2.3.5.3.8v10c0 .3-.1.5-.3.7-.2.2-.4.4-.7.4H457c-7.6 0-13-2.2-16.1-6.6a27.2 27.2 0 0 1-4.8-16.7c0-2 .1-4.2.4-6.7 0-.5.4-.8 1.1-.8l8.9.3c.7 0 1 .4 1 1.2-.4 2-.6 4-.6 5.7 0 3.7.8 6.5 2.4 8.4 1.6 2 4.2 3 7.7 3l.3-.1v-.4c-2.4-2.2-3.6-5.3-3.6-9.5 0-3.8.9-7.2 2.7-10.4 1.8-3 4.7-5.3 8.7-6.6 2.7-.8 6-1.3 10.3-1.3 4.4 0 8 .6 10.9 1.6a16.3 16.3 0 0 1 11.6 16c0 4.5-1.3 7.9-4 10.2l-.1.4.3.1h2Zm-27.8-.7a37.9 37.9 0 0 0 11.2.5c1 0 1.9-.3 2.7-.5a7.5 7.5 0 0 0 3.7-2.6c1-1.2 1.5-2.7 1.5-4.5 0-1.7-.5-3.2-1.5-4.4a8 8 0 0 0-3.7-2.6c-1.7-.8-4-1.3-7-1.3-3.2 0-5.4.4-6.8 1a7.8 7.8 0 0 0-3.8 2.7 8 8 0 0 0-1.4 4.7c0 1.8.5 3.3 1.4 4.5 1 1.3 2.2 2 3.7 2.5Zm29.5 40.3a15 15 0 0 1-4.2 11 15.5 15.5 0 0 1-11.5 4.3H454a1 1 0 0 1-.7-.4 1 1 0 0 1-.3-.7v-10c0-.3 0-.6.3-.8.2-.2.4-.3.7-.3h25.7a8 8 0 0 0 5.6-2c1.5-1.2 2.2-2.9 2.2-5s-.7-3.8-2.2-5.2a8.1 8.1 0 0 0-5.6-1.9H454a1 1 0 0 1-.7-.3 1 1 0 0 1-.3-.7v-10c0-.3 0-.6.3-.8.2-.2.4-.3.7-.3h58.2c.3 0 .5.1.7.3.2.2.3.5.3.7v10.1c0 .3-.1.5-.3.7-.2.2-.4.3-.7.3h-19l-.4.2.1.3c3.3 2.3 5 5.8 5 10.5Zm-9.4 45a1 1 0 0 1-.8-.3 1 1 0 0 1-.2-.7V363c0-.3-.2-.4-.4-.4h-18.3c-1.9 0-3.3.4-4.2 1.1-1 .8-1.4 2-1.4 3.8v2.8c0 .3 0 .6-.3.7-.2.3-.4.4-.7.4H454c-.6 0-1-.4-1-1l-.3-5.2c0-4.8.8-8.3 2.4-10.7 1.6-2.3 4.6-3.5 9-3.6h23c.2 0 .4-.1.4-.4v-5c0-.2 0-.5.2-.7.3-.2.5-.3.8-.3h7.7c.3 0 .5.1.7.3.2.2.3.5.3.8v4.9c0 .3.1.4.4.4H508c.3 0 .5 0 .7.3.2.2.3.4.3.7v9.7c0 .3-.1.5-.3.7-.2.2-.4.3-.7.3h-10.3c-.3 0-.4.1-.4.4v8.3c0 .3-.1.5-.3.7-.2.2-.4.3-.7.3h-7.7Zm-36.2 35.5c0-4.9 1.3-9 3.8-12.4 2.5-3.5 6-5.8 10.3-7a31.9 31.9 0 0 1 17.9 0c4.2 1.2 7.6 3.6 10 7a21 21 0 0 1 3.6 12.4 20 20 0 0 1-3.6 12 18.8 18.8 0 0 1-10 7.1 29.5 29.5 0 0 1-17.6.2c-4.5-1.3-8-3.6-10.6-7a20 20 0 0 1-3.8-12.3Zm10.4 0a7 7 0 0 0 1.7 4.8 9.6 9.6 0 0 0 4.8 2.8 24.8 24.8 0 0 0 12 0c2-.6 3.6-1.6 4.7-3 1-1.2 1.6-2.8 1.6-4.7 0-2-.6-3.6-1.6-5a9.3 9.3 0 0 0-4.6-2.7c-1.4-.4-3.4-.7-6.1-.7-2.6 0-4.6.2-6 .6-2 .6-3.6 1.5-4.8 2.9a7.5 7.5 0 0 0-1.7 5Zm35.2 47a15 15 0 0 1-4.2 11.1 15.5 15.5 0 0 1-11.5 4.3H454a1 1 0 0 1-.7-.4 1 1 0 0 1-.3-.7v-10c0-.3 0-.6.3-.8.2-.2.4-.3.7-.3h25.7a8 8 0 0 0 5.6-2c1.5-1.2 2.2-2.9 2.2-5s-.7-3.9-2.2-5.2a8.2 8.2 0 0 0-5.6-1.9H454a1 1 0 0 1-.7-.3 1 1 0 0 1-.3-.7v-10c0-.4 0-.6.3-.8.2-.2.4-.3.7-.3h42.2c.3 0 .5 0 .7.3.2.2.3.4.3.7V443c0 .3-.1.5-.3.7-.2.2-.4.3-.7.3h-3c-.2 0-.3 0-.4.2l.1.3c3.3 2.3 5 5.8 5 10.5Z" opacity=".6"/><path fill="#D6C9C0" d="M528 60H531V659H528z" opacity=".8"/><path fill="#1E3446" d="M328.3 717.3c-2.1 0-4-.3-5.6-1a8.6 8.6 0 0 1-3.7-2.9 7.8 7.8 0 0 1-1.3-4.4v-1l.1-.2.4-.2h4.6s.2 0 .3.2l.1.3v.6c0 1 .5 2 1.5 2.7 1 .7 2.3 1 4 1 1.4 0 2.5-.2 3.2-.8.7-.6 1-1.4 1-2.2 0-.7-.2-1.2-.6-1.6-.5-.5-1-.9-1.8-1.2l-3.5-1.4c-1.8-.6-3.3-1.2-4.5-1.9a9.5 9.5 0 0 1-3.1-2.6 6.7 6.7 0 0 1-1.3-4.1c0-1.6.4-3 1.3-4.2.8-1.2 2-2.1 3.4-2.8 1.5-.6 3.2-1 5-1 2.1 0 3.9.4 5.5 1.2 1.6.7 2.8 1.7 3.7 3 .9 1.3 1.4 2.8 1.4 4.5v.6l-.2.3-.3.2h-4.6c-.2 0-.3 0-.4-.2l-.1-.3v-.3c0-1.2-.5-2.1-1.4-2.9-1-.8-2.2-1.2-3.8-1.2-1.2 0-2.2.3-3 .8-.6.6-1 1.3-1 2.2 0 .7.2 1.2.6 1.7.5.5 1 .9 1.9 1.2.8.4 2 .9 3.8 1.5l4.4 1.8c1.1.6 2 1.4 3 2.4.8 1 1.3 2.4 1.3 4.1 0 2.5-1 4.5-2.8 6a11.8 11.8 0 0 1-7.5 2.1Zm32.2-15.3c.5 1.3.7 3 .7 4.8 0 1.8-.2 3.5-.7 5-.7 1.7-1.6 3-3 4-1.3 1-2.9 1.5-4.8 1.5-2 0-3.5-.6-4.5-2h-.2v8.7l-.2.3-.3.1h-4.7l-.4-.1-.1-.3v-27l.1-.4.4-.2h4.7c.1 0 .2 0 .3.2l.1.3v1.3l.1.2h.2a5.5 5.5 0 0 1 4.6-2.3c1.9 0 3.4.5 4.8 1.6 1.3 1 2.3 2.4 2.9 4.3Zm-6.1 9c.6-1.1 1-2.5 1-4.3 0-1.7-.3-3-.9-4a3.1 3.1 0 0 0-3-1.7 3 3 0 0 0-2.7 1.7 8 8 0 0 0-.8 4c0 1.8.3 3.2.9 4.2a3 3 0 0 0 2.7 1.6c1.2 0 2.1-.5 2.8-1.6Zm19.4 6.3c-2.2 0-4.1-.6-5.7-1.7a8.8 8.8 0 0 1-3.3-4.8 14.8 14.8 0 0 1 0-8.3c.6-2 1.7-3.6 3.3-4.7a9.8 9.8 0 0 1 5.8-1.7c2.2 0 4 .6 5.6 1.7 1.5 1 2.6 2.6 3.3 4.6a13.7 13.7 0 0 1 0 8.2 9 9 0 0 1-3.2 5 9.3 9.3 0 0 1-5.8 1.7Zm0-4.8c1 0 1.7-.3 2.3-.8.6-.6 1-1.3 1.3-2.2a11.5 11.5 0 0 0 0-5.7c-.3-.9-.7-1.6-1.4-2-.6-.6-1.3-.8-2.2-.8-1 0-1.7.2-2.3.7-.6.5-1 1.2-1.3 2.1-.2.7-.3 1.6-.3 2.9 0 1.2.1 2.1.3 2.8.3 1 .7 1.6 1.3 2.2.7.5 1.4.8 2.3.8Zm24.5-12c0 .1 0 .2-.2.3l-.3.2H394c-.2 0-.2 0-.2.2v8.4c0 1 .1 1.6.5 2 .4.4 1 .6 1.7.6h1.4s.2 0 .3.2l.1.3v3.8c0 .3-.1.5-.4.5l-2.4.1c-2.3 0-4-.3-5-1-1.1-.8-1.7-2.2-1.7-4.2v-10.7c0-.2 0-.2-.2-.2h-2.3c-.1 0-.2 0-.3-.2l-.1-.3v-3.9l.4-.2h2.3c.2 0 .2 0 .2-.2v-4.7l.1-.3.4-.2h4.5c.1 0 .2 0 .3.2.1 0 .2.1.2.3v4.7c0 .2 0 .2.2.2h3.8c.1 0 .2 0 .3.2l.2.3v3.6Zm3.9 16.5-.4-.1-.1-.4v-27.3l.5-.2h4.6c.2 0 .3 0 .4.2l.1.3v27l-.1.4-.4.1h-4.6Zm12.3-22.9c-1 0-1.7-.3-2.3-.9-.6-.6-.9-1.3-.9-2.2 0-1 .3-1.7.9-2.3a3 3 0 0 1 2.3-.9c1 0 1.7.3 2.3.9.5.6.8 1.3.8 2.3a3 3 0 0 1-3.1 3.1ZM412 717l-.4-.1-.1-.4V697l.1-.3.4-.2h4.7s.2 0 .3.2l.1.3v19.6l-.1.4-.3.1H412Zm22-20 .2-.4.4-.2h4.7s.2 0 .3.2l.1.3v18.3c0 3.5-1 6-3 7.4-2 1.5-4.6 2.3-7.8 2.3-.9 0-2 0-3-.2-.4 0-.5-.2-.5-.5l.2-4.2c0-.3.2-.5.5-.4 1 .2 1.9.2 2.7.2a6 6 0 0 0 3.9-1c1-.8 1.4-2 1.4-3.7v-.1h-.2c-1 1.1-2.5 1.7-4.5 1.7-1.7 0-3.3-.4-4.8-1.3a7 7 0 0 1-3-4c-.5-1.3-.7-2.9-.7-4.8 0-2 .3-3.8.8-5a8 8 0 0 1 2.8-4c1.3-1 2.9-1.5 4.6-1.5 2 0 3.7.6 4.8 1.9h.1V697Zm-.2 12.8a17.6 17.6 0 0 0 .2-5.2l-.3-1.2c-.2-.8-.6-1.3-1.2-1.8-.5-.4-1.2-.6-2-.6s-1.5.2-2 .6c-.6.5-1 1-1.3 1.8-.4.8-.6 1.8-.6 3.2 0 1.5.2 2.6.5 3.2.2.7.6 1.3 1.2 1.8.6.4 1.4.6 2.2.6.8 0 1.6-.2 2.1-.6.6-.5 1-1 1.2-1.8Zm20.7-13.7a7 7 0 0 1 5.1 2c1.3 1.3 2 3 2 5.3v13.1c0 .2 0 .3-.2.4l-.3.1h-4.7l-.3-.1-.1-.4v-12c0-1-.3-1.9-1-2.5a3 3 0 0 0-2.3-1c-1 0-1.8.3-2.4 1-.6.6-.9 1.5-.9 2.6v12s0 .2-.2.3l-.3.1h-4.7l-.3-.1-.1-.4v-27.3l.4-.2h4.7c.2 0 .3 0 .3.2.1 0 .2.1.2.3v9h.2c1.1-1.6 2.7-2.4 4.9-2.4Zm23 4.4-.2.3-.3.2h-3.9c-.1 0-.2 0-.2.2v8.4c0 1 .2 1.6.5 2 .4.4 1 .6 1.8.6h1.3c.1 0 .3 0 .3.2l.2.3v3.8c0 .3-.2.5-.5.5l-2.4.1c-2.2 0-3.8-.3-5-1-1-.8-1.6-2.2-1.6-4.2v-10.7c0-.2 0-.2-.2-.2H465c-.1 0-.3 0-.4-.2v-4.2l.4-.2h2.3c.1 0 .2 0 .2-.2v-4.7l.1-.3.4-.2h4.4c.2 0 .3 0 .4.2l.1.3v4.7c0 .2 0 .2.2.2h3.9s.2 0 .3.2l.1.3v3.6Zm20.4 16.8c-2.2 0-4.1-.6-5.7-1.7a8.8 8.8 0 0 1-3.3-4.8 14.9 14.9 0 0 1 0-8.3c.6-2 1.7-3.6 3.3-4.7a9.8 9.8 0 0 1 5.8-1.7c2.1 0 4 .6 5.6 1.7 1.5 1 2.6 2.6 3.2 4.6a13.7 13.7 0 0 1 .1 8.2 9 9 0 0 1-3.3 5 9.3 9.3 0 0 1-5.7 1.7Zm0-4.8c.9 0 1.6-.3 2.3-.8.6-.6 1-1.3 1.3-2.2.2-.9.3-1.8.3-2.8 0-1.1-.1-2-.3-2.9-.3-.9-.8-1.6-1.4-2-.6-.6-1.3-.8-2.2-.8-1 0-1.7.2-2.3.7-.6.5-1 1.2-1.3 2.1-.2.7-.3 1.6-.3 2.9 0 1.2 0 2.1.3 2.8.2 1 .7 1.6 1.3 2.2.6.5 1.4.8 2.3.8Zm24-16.4a7 7 0 0 1 5 2c1.4 1.3 2 3 2 5.3v13.1l-.1.4-.3.1h-4.7l-.4-.1-.1-.4v-12c0-1-.3-1.9-1-2.5a3 3 0 0 0-2.3-1c-1 0-1.8.3-2.4 1-.6.6-.9 1.5-.9 2.6v12l-.1.3-.3.1h-4.7l-.4-.1-.1-.4V697l.1-.3.4-.2h4.7c.1 0 .2 0 .3.2l.1.3v1.4l.1.2h.1c1.1-1.6 2.8-2.4 5-2.4Z"/></g><defs><clipPath id="a"><use xlink:href="#reuse-0"/></clipPath></defs></svg>