<svg xmlns="http://www.w3.org/2000/svg" xmlns:xlink="http://www.w3.org/1999/xlink" width="595" height="842" fill="none" viewBox="0 0 595 842"><defs><path id="reuse-0" fill="#fff" d="M0 0H595V842H0z"/></defs><g clip-path="url(#a)"><use xlink:href="#reuse-0"/><use xlink:href="#reuse-0"/><g clip-path="url(#b)"><path fill="#1E3446" d="M64 797v1.2h-.5v1.7h-.1v.1H62V798.3l-.1-.1h-3.1l-.1-.1v-1l1.8-4 .1-.1H62c.1 0 .1 0 0 .1l-1.6 3.8H62v-1.3H63.4v1.3h.5Zm6 0v1.2h-.5v1.7l-.1.1H68V798.2h-3.2V797l1.8-4 .1-.1h1.3v.1l-1.6 3.8H68v-1.2l.1-.1h1.3v1.3h.6Z"/></g><path fill="#E13C2E" d="M75 795.5H84V796.5H75z"/><path fill="#1E3446" d="M84 795.5H136V796.5H84z"/><path fill="#D6C9C0" d="M512.5 104c.5.2.7.6.7 1.2v10c0 .3-.1.5-.3.7-.2.2-.4.3-.7.3H454a1 1 0 0 1-.7-.3 1 1 0 0 1-.3-.7v-10c0-.3 0-.6.3-.8.2-.2.4-.3.7-.3h38c.2 0 .3 0 .3-.2 0 0 0-.2-.3-.3l-14.2-9.1c-.5-.3-.7-.7-.7-1.2v-5c0-.6.2-1 .7-1.3l14.2-9.1c.2-.1.3-.2.2-.4l-.3-.1H454a1 1 0 0 1-.7-.4 1 1 0 0 1-.3-.7v-10c0-.3 0-.6.3-.8.2-.2.4-.3.7-.3h58.2c.3 0 .5.1.7.3.2.2.3.5.3.8v10c0 .6-.2 1-.7 1.2l-20 13c-.4.1-.4.3 0 .5l20 13Zm-10.3 24.2c0-2 .6-3.6 1.9-5 1.3-1.2 3-1.8 4.9-1.8 2 0 3.6.6 4.9 1.9a6.6 6.6 0 0 1 1.9 4.9 6.6 6.6 0 0 1-6.8 6.8 6.7 6.7 0 0 1-6.8-6.8ZM453 123c0-.3 0-.5.3-.7.2-.2.4-.3.7-.3h42.3c.2 0 .5 0 .6.3.3.2.4.4.4.7v10c0 .4-.1.6-.4.8-.1.2-.4.3-.6.3H454a1 1 0 0 1-.7-.3 1 1 0 0 1-.3-.7v-10Zm43.2 43.3c.3 0 .5 0 .7.2.2.3.3.5.3.8v10c0 .4-.1.6-.3.8-.2.2-.4.3-.7.3H457c-7.6 0-13-2.2-16.1-6.5a27.2 27.2 0 0 1-4.8-16.7c0-2 .1-4.3.4-6.7 0-.6.4-.9 1.1-.9l8.9.4c.7 0 1 .4 1 1.2-.4 2-.6 4-.6 5.6 0 3.7.8 6.5 2.4 8.5 1.6 2 4.2 3 7.7 3 .2 0 .3 0 .3-.2v-.3c-2.4-2.2-3.6-5.4-3.6-9.6 0-3.7.9-7.2 2.7-10.3 1.8-3.1 4.7-5.3 8.7-6.6 2.7-.9 6-1.3 10.3-1.3 4.4 0 8 .5 10.9 1.5 3.5 1.2 6.3 3.3 8.4 6.1 2.1 2.9 3.2 6.2 3.2 10 0 4.4-1.3 7.8-4 10.2l-.1.3c0 .1.1.2.3.2h2Zm-27.8-.7a37.6 37.6 0 0 0 11.2.5c1-.1 1.9-.3 2.7-.6a7.5 7.5 0 0 0 3.7-2.6c1-1.2 1.5-2.7 1.5-4.5 0-1.7-.5-3.1-1.5-4.3a8 8 0 0 0-3.7-2.7c-1.7-.8-4-1.2-7-1.2-3.2 0-5.4.3-6.8 1a7.8 7.8 0 0 0-3.8 2.7 8 8 0 0 0-1.4 4.6c0 1.9.5 3.4 1.4 4.6 1 1.2 2.2 2 3.7 2.5Zm29.4 39.2c0 2-.4 3.7-1.2 4.9-.2.4-.7.6-1.3.5l-9.8-1.8c-.7 0-.9-.5-.6-1.2.3-.9.4-1.9.4-3l-.1-2c-.2-2-1-3.7-2.4-5.2a6.9 6.9 0 0 0-5.3-2.1H454a1 1 0 0 1-.7-.4 1 1 0 0 1-.3-.7v-10c0-.3 0-.6.3-.8.2-.2.4-.2.7-.2h42.2c.3 0 .5 0 .7.2.2.2.3.5.3.8v10c0 .3-.1.6-.3.7-.2.3-.4.4-.7.4h-3.3c-.2 0-.3 0-.3.2-.1 0 0 .2 0 .2a11 11 0 0 1 5.2 9.5Zm0 23.7c0 3.7-.6 7-1.9 10-1.2 2.9-3 5.2-5.2 6.8a12.2 12.2 0 0 1-7.5 2.5H454a1 1 0 0 1-.7-.4 1 1 0 0 1-.3-.7v-10c0-.3 0-.6.3-.8.2-.2.4-.3.7-.3h2.9l.3-.1c0-.1 0-.3-.2-.4-3.1-2.4-4.7-6.3-4.7-11.6 0-4.5 1.1-8 3.3-10.8 2.2-2.8 5.4-4.1 9.6-4.1 4.4 0 7.8 1.5 10.2 4.6 2.5 3 3.7 7.5 3.7 13.2v8.8c0 .3.2.4.5.4h1.9c1.9 0 3.3-.5 4.4-1.7 1-1.1 1.6-2.8 1.6-5.1 0-1.8-.3-3.3-1-4.5a4.4 4.4 0 0 0-2.6-2.2c-.7-.2-1-.6-.9-1.2l1.4-10.4c.1-.7.4-1 .8-1 2.4.3 4.6 1.3 6.5 3 2 1.6 3.5 3.9 4.6 6.6 1 2.8 1.6 6 1.6 9.4Zm-36.5-1.7c0 2.4.7 4.5 2 6.3 1.3 1.7 3 2.5 5 2.5h3.2c.3 0 .4-.1.4-.4V229a11 11 0 0 0-1.4-6 4.7 4.7 0 0 0-4.2-2.2c-1.5 0-2.8.5-3.7 1.6-.8 1-1.3 2.5-1.3 4.4Zm27.2 49.7a1 1 0 0 1-.8-.4 1 1 0 0 1-.2-.7v-8.2c0-.3-.2-.5-.4-.5h-18.3c-1.9 0-3.3.4-4.2 1.2-1 .8-1.4 2-1.4 3.7v2.9c0 .3 0 .5-.3.7-.2.2-.4.3-.7.3H454c-.6 0-1-.3-1-1l-.3-5.2c0-4.7.8-8.3 2.4-10.6 1.6-2.4 4.6-3.6 9-3.7h23c.2 0 .4-.1.4-.4v-4.9c0-.3 0-.5.2-.8l.8-.2h7.7c.3 0 .5 0 .7.2.2.3.3.5.3.8v5c0 .2.1.3.4.3H508c.3 0 .5.1.7.3.2.2.3.5.3.8v9.6c0 .3-.1.5-.3.7-.2.2-.4.3-.7.3h-10.3c-.3 0-.4.2-.4.5v8.2c0 .3-.1.5-.3.7-.2.2-.4.4-.7.4h-7.7Zm-36.2 21.9c0-4.8 1.3-9 3.8-12.4a19 19 0 0 1 10.3-7 32 32 0 0 1 17.9 0c4.2 1.3 7.6 3.7 10 7a21 21 0 0 1 3.6 12.5 20 20 0 0 1-3.6 12 18.8 18.8 0 0 1-10 7 29.4 29.4 0 0 1-17.6.2c-4.5-1.2-8-3.6-10.6-7a20 20 0 0 1-3.8-12.3Zm10.4 0a7 7 0 0 0 1.7 4.8 9.6 9.6 0 0 0 4.8 2.8c1.8.5 3.8.7 6 .7 2.4 0 4.4-.2 6-.7 2-.6 3.6-1.6 4.7-2.9 1-1.3 1.6-3 1.6-4.8 0-2-.6-3.6-1.6-4.9a9.3 9.3 0 0 0-4.6-2.8c-1.4-.4-3.4-.6-6.1-.6-2.6 0-4.6.2-6 .6-2 .5-3.6 1.5-4.8 2.8a7.5 7.5 0 0 0-1.7 5Zm35.1 46c0 2.1-.4 3.8-1.2 5-.2.4-.7.6-1.3.5l-9.8-1.8c-.7 0-.9-.5-.6-1.2.3-.9.4-1.9.4-3l-.1-2c-.2-2-1-3.8-2.4-5.2a6.9 6.9 0 0 0-5.3-2.1H454a1 1 0 0 1-.7-.4 1 1 0 0 1-.3-.7v-10c0-.3 0-.6.3-.8.2-.2.4-.3.7-.3h42.2c.3 0 .5.1.7.3.2.2.3.5.3.8v10c0 .3-.1.5-.3.7-.2.3-.4.4-.7.4h-3.3l-.3.1v.3a11 11 0 0 1 5.2 9.5Zm-62 7.3.4-.4.7-.2h8c.2 0 .5.1.7.3.2.2.3.5.3.8 0 2.4.2 4.3.6 5.6a6 6 0 0 0 2 3.4 10 10 0 0 0 4.2 2h.6L496 349l.4-.1c.5 0 .8.3.8 1v10.7c0 .6-.3 1-.9 1.2l-27.8 7.2c-.2 0-.3.1-.3.3 0 0 0 .2.3.2l27.8 7.2c.6.2.9.6.9 1.2v10.5c0 .4-.1.6-.4.7-.1.2-.4.2-.8.1l-44.7-14.9a37 37 0 0 1-9.4-4.4 12.7 12.7 0 0 1-4.7-6.2 35 35 0 0 1-1.4-11.5v-.6Zm52.7 77.6a1 1 0 0 1-.8-.3 1 1 0 0 1-.2-.7V420c0-.3-.2-.4-.4-.4h-18.3c-1.9 0-3.3.4-4.2 1.1-1 .8-1.4 2-1.4 3.8v2.8c0 .3 0 .5-.3.7-.2.2-.4.4-.7.4H454c-.6 0-1-.4-1-1l-.3-5.2c0-4.8.8-8.3 2.4-10.7 1.6-2.3 4.6-3.6 9-3.6h23c.2 0 .4-.1.4-.4v-5c0-.2 0-.5.2-.7.3-.2.5-.3.8-.3h7.7c.3 0 .5.1.7.3.2.2.3.5.3.8v4.9c0 .3.1.4.4.4H508c.3 0 .5 0 .7.3.2.2.3.4.3.7v9.7c0 .2-.1.5-.3.6-.2.3-.4.4-.7.4h-10.3c-.3 0-.4.1-.4.4v8.3c0 .3-.1.5-.3.7-.2.2-.4.3-.7.3h-7.7Zm9.3 25c0 2-.4 3.7-1.2 5-.2.4-.7.6-1.3.4l-9.8-1.8c-.7 0-.9-.4-.6-1.2.3-.8.4-1.8.4-3l-.1-1.9c-.2-2-1-3.8-2.4-5.2a6.9 6.9 0 0 0-5.3-2.2H454a1 1 0 0 1-.7-.3 1 1 0 0 1-.3-.7v-10c0-.3 0-.6.3-.8.2-.2.4-.3.7-.3h42.2c.3 0 .5 0 .7.3.2.2.3.5.3.7v10.1c0 .3-.1.5-.3.7-.2.2-.4.3-.7.3h-3.3c-.2 0-.3 0-.3.2v.3a11 11 0 0 1 5.2 9.4Zm0 23.8c0 3.7-.6 7-1.9 10-1.2 2.9-3 5.1-5.2 6.7a12.2 12.2 0 0 1-7.5 2.5H454a1 1 0 0 1-.7-.3 1 1 0 0 1-.3-.7v-10c0-.4 0-.6.3-.8.2-.2.4-.3.7-.3h2.9c.1 0 .3 0 .3-.2 0 0 0-.2-.2-.3-3.1-2.4-4.7-6.3-4.7-11.6 0-4.5 1.1-8.1 3.3-10.9 2.2-2.7 5.4-4.1 9.6-4.1 4.4 0 7.8 1.6 10.2 4.6 2.5 3.1 3.7 7.6 3.7 13.3v8.8c0 .2.2.4.5.4h1.9c1.9 0 3.3-.6 4.4-1.7 1-1.2 1.6-2.9 1.6-5.2 0-1.8-.3-3.3-1-4.5a4.4 4.4 0 0 0-2.6-2.2c-.7-.2-1-.5-.9-1.1l1.4-10.4c.1-.7.4-1 .8-1 2.4.3 4.6 1.2 6.5 2.9 2 1.7 3.5 4 4.6 6.7 1 2.8 1.6 6 1.6 9.4Zm-36.5-1.8c0 2.5.7 4.6 2 6.3 1.3 1.7 3 2.6 5 2.6h3.2c.3 0 .4-.2.4-.4v-6.2a11 11 0 0 0-1.4-6.1 4.7 4.7 0 0 0-4.2-2.2c-1.5 0-2.8.6-3.7 1.6-.8 1.1-1.3 2.6-1.3 4.4Zm-9 44.7c0-4.6 1.2-8.6 3.5-12 2.2-3.3 5.4-5.7 9.4-7.1 2.9-1 6.3-1.5 10.2-1.5 3.8 0 7.1.5 10 1.5 3.8 1.4 6.9 3.8 9.1 7.1 2.3 3.4 3.4 7.4 3.4 12s-1.2 8.6-3.4 12a16.4 16.4 0 0 1-11.8 7.7h-.2c-.5 0-.8-.3-1-.9l-1.4-9.9v-.1c0-.5.3-.9.8-1l1.4-.3a6.5 6.5 0 0 0 3.7-2.7c1-1.4 1.5-3 1.5-4.9a7.3 7.3 0 0 0-5.2-7.3c-1.7-.6-4-1-7-1s-5.4.3-7 1c-1.8.4-3.1 1.3-4.1 2.6a7.7 7.7 0 0 0-1.5 4.7 8 8 0 0 0 1.4 4.7c1 1.3 2.3 2.3 4 2.8h.5l.2.2c.7 0 1 .4.9 1.2l-1.6 9.9c0 .5-.4.8-1 .8l-2.5-.5a16 16 0 0 1-9-7 21.9 21.9 0 0 1-3.3-12Zm27.4 61c-2.2.4-4.7.5-7.3.4-.7 0-1-.4-1-1.1v-26.6c0-.3-.2-.4-.5-.3-1.2.2-2.3.5-3.5 1-3.2 1.4-4.8 4.5-4.8 9 0 3.7 1.6 6.6 4.5 8.7.3.3.5.5.5.8l-.3.6-6.1 6.2c-.3.3-.6.4-.8.4-.1 0-.3 0-.7-.3a19.1 19.1 0 0 1-5.5-7.3 25 25 0 0 1-1.9-9.8c0-5 1.1-9.1 3.4-12.6 2.2-3.4 5.3-5.8 9.3-7.3 3-1.2 6.7-1.8 11.3-1.8 3.2 0 6 .4 8.3 1.3a19 19 0 0 1 9.8 6.9c2.4 3.3 3.6 7.2 3.6 11.8a19 19 0 0 1-5 13.7 21.7 21.7 0 0 1-13.3 6.4Zm7.8-20c0-3.6-1.7-6-5-7.1l-2.8-.6c-.3 0-.5.1-.5.4v15c0 .3.2.4.5.3l2.4-.5c1.7-.5 3-1.4 4-2.7.9-1.3 1.4-2.9 1.4-4.8Zm-35.1 40.6c0-3.8.5-7.2 1.6-10 1.1-2.9 2.6-5.1 4.6-6.7 2-1.6 4.1-2.4 6.6-2.4h.9c.3 0 .5.1.7.3.2.2.3.5.3.8v9.5c0 .3-.1.5-.3.7-.2.2-.4.4-.7.4h-.1c-1.3 0-2.4.6-3.3 2-.8 1.5-1.3 3.2-1.3 5.4 0 1.9.4 3.5 1.1 4.7.8 1.2 1.8 1.8 3 1.8 1 0 1.8-.5 2.3-1.6.5-1 1-2.7 1.6-5a51 51 0 0 1 6.6-15.2c1.9-2.1 4.5-3.2 8-3.2a12 12 0 0 1 10 4.9c2.5 3.3 3.8 7.7 3.8 13.1 0 3.7-.6 6.9-1.8 9.7a14.2 14.2 0 0 1-4.9 6.3 12 12 0 0 1-7.2 2.3 1 1 0 0 1-.8-.3 1 1 0 0 1-.3-.7v-9.2c0-.3.1-.5.3-.8l.8-.2c1.2 0 2.3-.7 3.2-2 .8-1.3 1.2-3 1.2-5s-.3-3.5-1-4.7c-.7-1.2-1.6-1.8-2.8-1.8-1.2 0-2 .5-2.6 1.7-.6 1.2-1.2 3.2-1.8 6a194.5 194.5 0 0 1-1.3 4.7 28 28 0 0 1-4.6 9.6c-2 2.3-4.7 3.5-8.3 3.5-4.2 0-7.6-1.7-10-5a23 23 0 0 1-3.5-13.6ZM387.4 84a19 19 0 0 1 14.1-19.4 32 32 0 0 1 17.9 0c4.1 1.3 7.5 3.7 9.9 7.1a21 21 0 0 1 3.6 12.4 20 20 0 0 1-3.6 12 18.8 18.8 0 0 1-10 7 29.5 29.5 0 0 1-17.6.2c-4.5-1.2-8-3.6-10.6-7a20 20 0 0 1-3.8-12.3Zm10.3 0a7 7 0 0 0 1.7 4.8 9.6 9.6 0 0 0 4.8 2.8c1.8.5 3.8.7 6 .7 2.4 0 4.4-.2 6-.7 2-.6 3.6-1.6 4.7-2.9 1-1.3 1.6-2.9 1.6-4.8 0-2-.6-3.6-1.6-4.9a9.3 9.3 0 0 0-4.6-2.7c-1.4-.5-3.4-.7-6.1-.7-2.6 0-4.6.2-6 .6-2 .5-3.6 1.5-4.8 2.8a7.5 7.5 0 0 0-1.7 5Zm34.6 48c0 .4-.1.6-.4.8-.1.2-.4.3-.6.3H423a1 1 0 0 1-.8-.3 1 1 0 0 1-.2-.7v-8.4c0-.3-.2-.4-.5-.4H389a1 1 0 0 1-.7-.4 1 1 0 0 1-.3-.6v-10.1c0-.3 0-.5.3-.8l.7-.2h32.6c.3 0 .5-.2.5-.5v-5c0-.3 0-.6.2-.8.2-.2.5-.3.8-.3h8.2c.2 0 .5.1.6.3.3.2.4.5.4.8v5c0 .3.1.5.4.5h2c3.5 0 6.2.5 8.2 1.6 2 1 3.4 2.8 4.2 5.2.8 2.5 1.2 5.9 1.1 10.2v3.3c0 .3-.1.5-.3.7-.2.2-.4.3-.7.3h-7a1 1 0 0 1-.8-.3 1 1 0 0 1-.2-.7v-2.9c0-2-.5-3.4-1.3-4.2-.8-.7-2.2-1.1-4.2-1.1h-1c-.3 0-.4.1-.4.4v8.4ZM388 150.6c0-.2 0-.5.3-.7.2-.2.4-.3.7-.3h58.2c.3 0 .5.1.7.3.2.2.3.5.3.7V172c0 4.3-.8 8.1-2.3 11.3a17.3 17.3 0 0 1-6.4 7.6c-2.7 1.8-6 2.6-9.5 2.6h-23.8c-3.6 0-6.8-.8-9.5-2.6a17.8 17.8 0 0 1-6.5-7.6c-1.5-3.2-2.2-7-2.2-11.3v-21.5Zm10.8 11.1c-.3 0-.4.2-.4.5v10.4c0 2.6.9 4.7 2.7 6.3 1.7 1.7 4.1 2.6 7.1 2.6H428c3 0 5.4-.8 7.1-2.5a8.4 8.4 0 0 0 2.7-6.5V162c0-.3-.1-.5-.4-.5h-38.6Zm32.4 61.3c.3 0 .5 0 .7.3.2.2.3.4.3.7v10c0 .4-.1.6-.3.8-.2.2-.4.3-.7.3H389a1 1 0 0 1-.7-.3 1 1 0 0 1-.3-.7v-10c0-.4 0-.6.3-.8.2-.2.4-.3.7-.3h3c.1 0 .2 0 .2-.2 0 0 0-.2-.2-.3-3-2.3-4.6-5.9-4.6-10.7 0-4.3 1.3-8 4-10.7 2.6-2.8 6.3-4.2 11-4.2h28.8c.3 0 .5 0 .7.2.2.2.3.5.3.8v10c0 .3-.1.5-.3.7-.2.2-.4.3-.7.3h-25.7c-2.3 0-4.2.6-5.6 1.8a6.5 6.5 0 0 0-2.2 5.2c0 2 .6 3.5 1.7 4.8 1.2 1.2 2.8 2 4.7 2.3h27Zm16 44.2c.3 0 .5 0 .7.3.2.2.3.4.3.7v10c0 .4-.1.6-.3.8-.2.2-.4.3-.7.3H389a1 1 0 0 1-.7-.3 1 1 0 0 1-.3-.7v-10c0-.4 0-.6.3-.8.2-.2.4-.3.7-.3h2.9c.1 0 .2 0 .2-.2v-.3a11.8 11.8 0 0 1-4.8-10c0-4 1.1-7.4 3.4-10.3 2.2-2.9 5.3-5 9.2-6.2 3-1 6.4-1.5 10.4-1.5s7.6.5 10.6 1.6a17 17 0 0 1 12 16.8c0 4-1.4 7.3-4.3 9.6-.2.1-.2.2-.2.3l.4.2h18.4Zm-45.8-1.8c2.1 1.1 5 1.7 8.7 1.7a18 18 0 0 0 9-1.9 6.3 6.3 0 0 0 3.4-5.7c0-2.7-1.1-4.8-3.4-6.1a16.8 16.8 0 0 0-9-2.2c-3.5 0-6.4.6-8.7 1.8a7 7 0 0 0-3.7 6.4c0 2.6 1.3 4.6 3.7 6Zm13.3 57.9c-2.2.3-4.7.5-7.3.3-.7 0-1-.4-1-1v-26.6c0-.4-.2-.5-.5-.4-1.2.2-2.3.5-3.5 1-3.2 1.4-4.8 4.5-4.8 9 0 3.7 1.6 6.6 4.5 8.8.3.2.5.4.5.7l-.3.6-6.1 6.2c-.3.3-.6.5-.8.5l-.7-.4a19.1 19.1 0 0 1-5.5-7.3 25 25 0 0 1-1.9-9.8c0-5 1.1-9.1 3.4-12.6 2.2-3.3 5.3-5.8 9.3-7.3 3-1.2 6.7-1.8 11.3-1.8 3.2 0 6 .5 8.3 1.3a19 19 0 0 1 9.8 6.9c2.4 3.3 3.6 7.3 3.6 11.8a19 19 0 0 1-5 13.7 21.7 21.7 0 0 1-13.3 6.4Zm7.8-20c0-3.6-1.7-6-5-7.2l-2.8-.6c-.3 0-.5.2-.5.5v14.8c0 .4.2.5.5.4l2.4-.5c1.7-.5 3-1.4 4-2.7.9-1.3 1.4-2.8 1.4-4.7ZM388 327.8c0-.3 0-.6.3-.8.2-.2.4-.3.7-.3h58.2c.3 0 .5.1.7.3.2.2.3.5.3.8v10c0 .3-.1.5-.3.7-.2.2-.4.3-.7.3H389a1 1 0 0 1-.7-.3 1 1 0 0 1-.3-.7v-10Zm44.9 33.2c0 3.8-.7 7.1-2 10-1.2 3-3 5.2-5.2 6.8a12.2 12.2 0 0 1-7.5 2.5H389a1 1 0 0 1-.7-.3 1 1 0 0 1-.3-.7v-10c0-.4 0-.6.3-.9l.7-.2h2.9c.1 0 .3 0 .3-.2 0-.1 0-.2-.2-.3-3.1-2.4-4.7-6.3-4.7-11.6 0-4.5 1.1-8.1 3.3-10.9 2.2-2.7 5.4-4.1 9.6-4.1 4.4 0 7.8 1.5 10.2 4.6 2.5 3.1 3.7 7.6 3.7 13.3v8.8c0 .2.2.4.5.4h1.9c1.9 0 3.3-.6 4.4-1.7 1-1.2 1.6-2.9 1.6-5.2 0-1.8-.3-3.3-1-4.5a4.4 4.4 0 0 0-2.6-2.2c-.7-.2-1-.5-.9-1.1l1.4-10.4c.1-.7.4-1 .8-1 2.4.3 4.6 1.2 6.5 2.9 2 1.7 3.5 4 4.6 6.7 1 2.8 1.6 6 1.6 9.3Zm-36.6-1.7c0 2.5.7 4.6 2 6.3 1.3 1.7 3 2.6 5 2.6h3.2c.3 0 .4-.2.4-.4v-6.2a11 11 0 0 0-1.4-6.1 4.7 4.7 0 0 0-4.2-2.2c-1.5 0-2.8.6-3.7 1.6-.8 1.1-1.3 2.6-1.3 4.4Zm36.6 48.3a15 15 0 0 1-4.2 11 15.5 15.5 0 0 1-11.5 4.3H389a1 1 0 0 1-.7-.3 1 1 0 0 1-.3-.7v-10c0-.4 0-.6.3-.9l.7-.2h25.7a8 8 0 0 0 5.6-2c1.5-1.3 2.2-3 2.2-5 0-2.2-.7-4-2.2-5.2a8.2 8.2 0 0 0-5.6-2H389a1 1 0 0 1-.7-.3 1 1 0 0 1-.3-.7v-10c0-.3 0-.6.3-.8.2-.2.4-.2.7-.2h42.2c.3 0 .5 0 .7.2.2.2.3.5.3.8v10c0 .3-.1.6-.3.7-.2.3-.4.4-.7.4h-3c-.2 0-.3 0-.4.2l.1.2c3.3 2.4 5 5.9 5 10.5Zm-1.7 46.7c.3 0 .5 0 .7.2.2.3.3.5.3.8v10c0 .4-.1.6-.3.8-.2.2-.4.3-.7.3H392c-7.6 0-13-2.2-16.1-6.5a27.2 27.2 0 0 1-4.8-16.7c0-2 .1-4.2.4-6.7 0-.6.4-.9 1.1-.9l8.9.4c.7 0 1 .4 1 1.2-.4 2-.6 4-.6 5.7 0 3.6.8 6.4 2.4 8.4 1.6 2 4.2 3 7.7 3 .2 0 .3 0 .3-.2v-.3c-2.4-2.2-3.6-5.4-3.6-9.6 0-3.7.9-7.1 2.7-10.3 1.8-3 4.7-5.3 8.7-6.6 2.7-.9 6-1.3 10.3-1.3 4.4 0 8 .5 10.9 1.5 3.5 1.2 6.3 3.3 8.4 6.1 2.1 3 3.2 6.2 3.2 10 0 4.4-1.3 7.8-4 10.2l-.1.3c0 .1.1.2.3.2h2Zm-27.8-.7a37.6 37.6 0 0 0 11.2.5c1-.1 1.9-.3 2.7-.6a7.5 7.5 0 0 0 3.7-2.6c1-1.2 1.5-2.7 1.5-4.4 0-1.8-.5-3.2-1.5-4.4a8 8 0 0 0-3.7-2.7c-1.7-.8-4-1.2-7-1.2-3.2 0-5.4.4-6.8 1a7.8 7.8 0 0 0-3.8 2.7 8 8 0 0 0-1.4 4.6c0 1.9.5 3.4 1.4 4.6 1 1.2 2.2 2 3.7 2.5Zm11.3 56.3c-2.2.3-4.7.5-7.3.3-.7 0-1-.4-1-1v-26.6c0-.4-.2-.5-.5-.4-1.2.2-2.3.5-3.5 1-3.2 1.4-4.8 4.5-4.8 9 0 3.7 1.6 6.6 4.5 8.8.3.2.5.4.5.7l-.3.6-6.1 6.2c-.3.3-.6.5-.8.5l-.7-.4a19.1 19.1 0 0 1-5.5-7.3 25 25 0 0 1-1.9-9.8c0-5 1.1-9.1 3.4-12.6 2.2-3.3 5.3-5.8 9.3-7.3 3-1.2 6.7-1.8 11.3-1.8 3.2 0 6 .5 8.3 1.3a19 19 0 0 1 9.8 6.9c2.4 3.3 3.6 7.2 3.6 11.8a19 19 0 0 1-5 13.7 21.7 21.7 0 0 1-13.3 6.4Zm7.8-20c0-3.6-1.7-6-5-7.2l-2.8-.6c-.3 0-.5.2-.5.5v14.8c0 .4.2.5.5.4l2.4-.5c1.7-.5 3-1.4 4-2.7.9-1.3 1.4-2.8 1.4-4.7Z" opacity=".6"/><path fill="#D6C9C0" d="M528 60H531V659H528z" opacity=".8"/><path fill="#1E3446" d="m214 689.3.6-.3h4.7c.1 0 .2 0 .3.2.1 0 .2.1.2.3v27c0 .2 0 .3-.2.4l-.3.1h-4.7l-.3-.1-.2-.4v-17.8l-.2.1-4.2 6.7-.6.3h-2.4a.6.6 0 0 1-.5-.3l-4.3-6.7h-.1l-.1.1v17.6c0 .2 0 .3-.2.4l-.3.1h-4.7l-.3-.1-.1-.4v-27.3l.4-.2h4.7c.3 0 .4.1.6.3l6 9.3c0 .2.1.2.2 0l6-9.3Zm13.3 4.8c-.9 0-1.6-.3-2.2-.9-.6-.6-1-1.3-1-2.2 0-1 .4-1.7 1-2.3a3 3 0 0 1 2.2-.9c1 0 1.7.3 2.3.9.6.6.9 1.3.9 2.3a3.1 3.1 0 0 1-3.2 3.1ZM225 717l-.3-.1-.1-.4V696.6l.4-.2h4.7c.1 0 .3 0 .3.2.1 0 .2.1.2.3v19.6c0 .2 0 .3-.2.4l-.3.1H225Zm22.1-20c0-.2 0-.3.2-.4l.3-.2h4.7c.1 0 .2 0 .3.2l.2.3v18.3c0 3.5-1 6-3 7.4-2 1.5-4.6 2.3-7.8 2.3-1 0-2 0-3.1-.2-.3 0-.4-.2-.4-.5l.1-4.2c0-.3.2-.5.6-.4 1 .2 1.8.2 2.6.2a6 6 0 0 0 4-1c.9-.8 1.3-2 1.3-3.7v-.1h-.2c-1 1.1-2.5 1.7-4.4 1.7-1.8 0-3.4-.4-4.8-1.3a7 7 0 0 1-3.1-4c-.4-1.3-.6-2.9-.6-4.8 0-2 .2-3.8.7-5a8 8 0 0 1 2.8-4c1.4-1 3-1.5 4.7-1.5 2 0 3.6.6 4.7 1.9h.2V697Zm-.3 12.8a17.3 17.3 0 0 0 .2-5.2c0-.4 0-.8-.2-1.2-.3-.8-.7-1.3-1.2-1.8-.6-.4-1.3-.6-2-.6-.9 0-1.6.2-2.1.6-.6.5-1 1-1.3 1.8-.3.8-.5 1.8-.5 3.2 0 1.5.1 2.6.4 3.2.3.7.7 1.3 1.3 1.8.6.4 1.3.6 2.1.6.9 0 1.6-.2 2.2-.6.5-.5 1-1 1.1-1.8Zm20.3-13.6c1 0 1.7.1 2.2.5.2.1.3.3.3.6l-.9 4.6c0 .3-.2.4-.5.3-.4-.2-.9-.2-1.4-.2h-1c-.9.1-1.7.5-2.3 1.1-.7.6-1 1.5-1 2.5v11l-.2.3-.3.1h-4.7l-.4-.1v-20.3l.4-.2h4.7c.1 0 .2 0 .3.2l.2.3v1.7h.2a5 5 0 0 1 4.4-2.4Zm13 0c1.7 0 3.3.2 4.6.8 1.4.6 2.4 1.4 3.2 2.5.8 1 1.2 2.2 1.2 3.5v13.5l-.2.4-.3.1h-4.7l-.4-.1V715.2l-.2-.2-.1.1c-1.1 1.5-3 2.2-5.4 2.2-2.1 0-3.8-.5-5-1.5-1.3-1-2-2.5-2-4.5s.7-3.6 2.2-4.7a9.7 9.7 0 0 1 6.1-1.8h4.1c.1 0 .2 0 .2-.2v-.8c0-1-.3-1.6-.8-2-.5-.6-1.3-.8-2.4-.8-.8 0-1.5.1-2 .4a2 2 0 0 0-1.1 1.2c0 .3-.3.5-.5.4l-4.9-.6c-.3 0-.4-.2-.4-.4.1-1 .5-2 1.3-3a8 8 0 0 1 3.1-2.1 12 12 0 0 1 4.4-.8Zm-.8 17c1.1 0 2.1-.4 3-1 .7-.6 1.1-1.4 1.1-2.4v-1.4c0-.1 0-.2-.2-.2h-2.9c-1.2 0-2.1.2-2.8.7-.7.4-1 1-1 1.9 0 .7.2 1.3.8 1.7.5.4 1.1.6 2 .6Zm25-12.7v.3l-.4.2H300c-.2 0-.2 0-.2.2v8.4c0 1 .1 1.6.5 2 .4.4 1 .6 1.8.6h1.3c.1 0 .2 0 .3.2l.2.3v3.8c0 .3-.2.5-.5.5l-2.4.1c-2.2 0-3.9-.3-5-1-1-.8-1.6-2.2-1.7-4.2v-10.7c0-.2 0-.2-.2-.2H292c-.2 0-.3 0-.4-.2l-.1-.3v-3.9l.5-.2h2.2c.2 0 .2 0 .2-.2v-4.7c0-.2 0-.3.2-.3l.3-.2h4.5c.1 0 .2 0 .3.2.1 0 .2.1.2.3v4.7c0 .2 0 .2.2.2h3.8c.1 0 .3 0 .3.2l.2.3v3.6Zm12.3 16.8c-2.2 0-4.2-.6-5.8-1.7a8.8 8.8 0 0 1-3.2-4.8 14.9 14.9 0 0 1 0-8.3c.6-2 1.7-3.6 3.3-4.7a9.8 9.8 0 0 1 5.7-1.7c2.2 0 4 .6 5.6 1.7 1.6 1 2.7 2.6 3.3 4.6a13.7 13.7 0 0 1 .1 8.2 9 9 0 0 1-3.3 5 9.3 9.3 0 0 1-5.7 1.7Zm0-4.8c.9 0 1.6-.3 2.2-.8.6-.6 1-1.3 1.4-2.2a11.5 11.5 0 0 0 0-5.7c-.3-.9-.8-1.6-1.4-2-.6-.6-1.4-.8-2.2-.8-1 0-1.7.2-2.3.7-.6.5-1 1.2-1.3 2.1-.2.7-.3 1.6-.3 2.9 0 1.2 0 2.1.3 2.8.2 1 .7 1.6 1.3 2.2.6.5 1.4.8 2.3.8Zm23.4-16.3c1 0 1.7.1 2.3.5.2.1.3.3.2.6l-.8 4.6c0 .3-.2.4-.6.3-.4-.2-.8-.2-1.4-.2h-.8c-1 .1-1.8.5-2.5 1.1-.6.6-1 1.5-1 2.5v11l-.1.3-.4.1h-4.6l-.4-.1-.1-.4V697l.1-.3.4-.2h4.6c.2 0 .3 0 .4.2l.1.3v1.5l.1.2h.1a5 5 0 0 1 4.4-2.4Zm5.4 28.8-.2-.2v-4.4h.4c1.1-.1 2-.2 2.6-.4.7-.1 1.2-.4 1.6-.9.4-.4.7-1.1 1-2v-.2l-6.6-20v-.1c0-.3 0-.4.4-.4h5c.3 0 .4.1.5.4l3.4 13h.2l3.4-13c0-.3.3-.4.5-.4h5s.2 0 .2.2c.1 0 .1.2 0 .4l-6.8 20.8c-.7 2-1.4 3.4-2 4.3a6 6 0 0 1-3 2.2c-1.3.4-3 .7-5.3.7h-.3Zm40-24.5v.3l-.4.2h-3.8c-.2 0-.2 0-.2.2v8.4c0 1 .1 1.6.5 2 .4.4 1 .6 1.7.6h1.4c.1 0 .2 0 .3.2l.1.3v3.8c0 .3-.1.5-.4.5l-2.4.1c-2.2 0-3.9-.3-5-1-1-.8-1.6-2.2-1.7-4.2v-10.7c0-.2 0-.2-.2-.2H373s-.2 0-.3-.2l-.1-.3v-3.9l.4-.2h2.3c.2 0 .2 0 .2-.2v-4.7l.1-.3.4-.2h4.5c.1 0 .2 0 .3.2.1 0 .2.1.2.3v4.7c0 .2 0 .2.2.2h3.8c.1 0 .2 0 .3.2l.2.3v3.6Zm13.7-4.3c1 0 1.7.1 2.3.5.2.1.3.3.2.6l-.8 4.6c0 .3-.2.4-.6.3-.4-.2-.8-.2-1.4-.2h-.8c-1 .1-1.8.5-2.5 1.1-.6.6-1 1.5-1 2.5v11l-.1.3-.4.1h-4.6l-.4-.1-.1-.4V697l.1-.3.4-.2h4.6c.2 0 .3 0 .4.2l.1.3v1.5l.1.2h.1a5 5 0 0 1 4.4-2.4Zm13 0c1.8 0 3.3.2 4.7.8 1.4.6 2.4 1.4 3.2 2.5.7 1 1.1 2.2 1.1 3.5v13.5l-.1.4-.4.1H416l-.4-.1-.1-.4v-1.3l-.1-.2-.2.1c-1 1.5-2.9 2.2-5.4 2.2-2 0-3.7-.5-5-1.5-1.3-1-2-2.5-2-4.5s.8-3.6 2.2-4.7a9.7 9.7 0 0 1 6.2-1.8h4c.2 0 .3 0 .3-.2v-.8c0-1-.3-1.6-.8-2-.6-.6-1.4-.8-2.4-.8-.8 0-1.5.1-2.1.4a2 2 0 0 0-1 1.2c-.1.3-.3.5-.6.4l-4.8-.6c-.3 0-.5-.2-.4-.4 0-1 .5-2 1.3-3a8 8 0 0 1 3.1-2.1 12 12 0 0 1 4.4-.8Zm-.7 17c1.1 0 2-.4 2.9-1 .8-.6 1.2-1.4 1.2-2.4v-1.4c0-.1 0-.2-.2-.2h-2.9c-1.2 0-2.1.2-2.8.7-.7.4-1 1-1 1.9 0 .7.2 1.3.7 1.7.5.4 1.2.6 2 .6Zm22.7 4.1c-2.1 0-4-.5-5.5-1.6a8.8 8.8 0 0 1-3.3-4.4c-.5-1.3-.7-2.9-.7-4.7 0-1.8.2-3.3.7-4.6a8.3 8.3 0 0 1 3.3-4.3c1.5-1 3.4-1.6 5.5-1.6 2.2 0 4 .6 5.6 1.6a7.6 7.6 0 0 1 3.6 5.5c0 .3-.1.5-.4.5l-4.6.7c-.3 0-.5-.1-.6-.4v-.6a3 3 0 0 0-1.3-1.8c-.7-.4-1.4-.6-2.3-.6-.9 0-1.6.2-2.2.6-.6.4-1 1-1.2 1.8-.3.8-.4 1.9-.4 3.2 0 1.4 0 2.5.4 3.3.2.8.6 1.4 1.2 1.9s1.3.7 2.2.7c.8 0 1.5-.2 2.2-.7.6-.4 1-1 1.3-1.8v-.4c0-.3.3-.4.6-.4l4.6.8c.3 0 .4.2.4.4l-.2 1.2a7.4 7.4 0 0 1-3.3 4.2c-1.6 1-3.5 1.5-5.6 1.5Zm30.4-12.7c.2 1 .3 2.1.2 3.4 0 .3-.2.5-.5.5h-12.4c-.1 0-.2 0-.1.2 0 .5.2 1 .4 1.6.7 1.5 2.1 2.2 4.2 2.2 1.8 0 3.1-.7 4-2l.4-.3c.1 0 .2 0 .3.2l2.9 2.8.2.4-.2.3c-.8 1-2 2-3.4 2.5-1.3.6-2.9 1-4.5 1-2.3 0-4.3-.6-5.9-1.6a8.7 8.7 0 0 1-3.4-4.4c-.5-1.3-.8-3-.8-5.2 0-1.5.2-2.8.6-4a8.8 8.8 0 0 1 3.2-4.4 9 9 0 0 1 5.5-1.7c2.7 0 4.8.8 6.4 2.3 1.6 1.5 2.6 3.6 3 6.2Zm-9.3-3.6c-1.7 0-2.8.7-3.3 2.3l-.3 1.3c0 .1 0 .2.2.2h7c.1 0 .2 0 .1-.2l-.2-1.1a3.5 3.5 0 0 0-3.5-2.5Zm21 16.3c-1.9 0-3.4-.3-4.8-.8a7.3 7.3 0 0 1-3-2.1c-.8-1-1.2-2-1.2-3v-.5l.1-.3.4-.2h4.4c.2 0 .3 0 .4.2l.1.3c0 .6.3 1.2 1 1.6.7.4 1.5.6 2.5.6.9 0 1.6-.2 2.2-.5.5-.4.8-.9.8-1.4 0-.5-.2-.8-.7-1-.5-.3-1.3-.6-2.4-.8a23.8 23.8 0 0 1-7-3.1c-1-.9-1.5-2.1-1.5-3.7 0-2 .7-3.5 2.2-4.7a9.9 9.9 0 0 1 6.2-1.7c1.7 0 3.2.2 4.4.8 1.3.5 2.3 1.3 3 2.3.7 1 1 2 1 3.3v.4l-.4.1h-4.3l-.3-.1-.2-.4c0-.5-.3-1-.9-1.4-.6-.4-1.3-.6-2.3-.6-1 0-1.6.1-2.2.4-.6.4-.8.8-.8 1.4 0 .5.2.9.8 1.2l2.7.8a86 86 0 0 1 2.2.6 13 13 0 0 1 4.5 2.2c1.1.8 1.6 2.1 1.6 3.8 0 2-.7 3.5-2.3 4.6-1.6 1.1-3.7 1.7-6.3 1.7Zm28.9 0c-2.3 0-4.2-.6-5.8-1.7a8.8 8.8 0 0 1-3.3-4.8c-.3-1.3-.5-2.7-.5-4.1 0-1.6.2-3 .5-4.3.6-2 1.8-3.5 3.4-4.6a9.8 9.8 0 0 1 5.7-1.7c2.2 0 4 .6 5.6 1.7 1.6 1 2.7 2.6 3.3 4.6a13.7 13.7 0 0 1 0 8.2 9 9 0 0 1-3.2 5 9.3 9.3 0 0 1-5.7 1.7Zm0-4.8c.9 0 1.6-.3 2.2-.8.6-.6 1-1.3 1.3-2.2a11.5 11.5 0 0 0 0-5.7c-.3-.9-.7-1.6-1.3-2-.6-.6-1.4-.8-2.3-.8-.9 0-1.6.2-2.2.7-.6.5-1 1.2-1.3 2.1-.2.7-.3 1.6-.3 2.9 0 1.2 0 2.1.2 2.8.3 1 .7 1.6 1.4 2.2.6.5 1.4.8 2.3.8Zm24.3-16.1c.2 0 .3 0 .4.2l.1.3v3.8l-.1.3-.4.2h-3.8c-.2 0-.2 0-.2.2v15.1l-.2.4-.3.1H520l-.4-.1v-15.5c0-.2-.2-.2-.3-.2h-2.3c-.2 0-.3 0-.4-.2l-.1-.3v-4.1l.5-.2h2.3c.1 0 .2 0 .2-.2v-.9c0-1.6.3-3 .8-3.8.5-1 1.3-1.6 2.4-2 1.2-.4 2.7-.6 4.7-.5h1.6s.2 0 .3.2l.1.3v3.2l-.1.4-.3.1h-1.4c-.9 0-1.6.2-2 .6-.3.3-.4 1-.4 2v.4c0 .1 0 .2.2.2h3.8Zm-183 58.6-.4-.1v-27.7l.4-.2h10c2 0 3.7.4 5.2 1a8 8 0 0 1 3.6 3 8 8 0 0 1 1.2 4.5v11a8 8 0 0 1-1.2 4.5c-.9 1.2-2 2.2-3.6 3-1.5.7-3.2 1-5.2 1h-10Zm5.2-5s0 .2.2.2h4.8c1.2 0 2.2-.5 3-1.3.7-.8 1.1-2 1.2-3.3v-9.2c0-1.4-.4-2.5-1.2-3.3a3.9 3.9 0 0 0-3-1.3h-4.8c-.2 0-.2.1-.2.2v18Zm30.5-15v-.4l.4-.2h4.7c.1 0 .3 0 .3.2l.2.3v19.6c0 .2 0 .3-.2.4l-.3.1h-4.7l-.3-.1-.1-.4v-1.3l-.1-.2-.2.1c-1 1.5-2.7 2.2-5 2.2a7 7 0 0 1-5-1.9c-1.3-1.2-1.9-3-1.9-5.1v-13.4l.1-.3.4-.2h4.6c.1 0 .3 0 .3.2l.2.3v12c0 1 .3 2 .8 2.6a3 3 0 0 0 2.4 1c1 0 1.7-.3 2.3-.8.6-.6 1-1.3 1-2.2V735Zm22.5-7.5.1-.3.4-.2h4.7c.1 0 .2 0 .3.2.1 0 .2.1.2.3v27l-.2.4-.3.1H405l-.4-.1V753.2l-.2-.1h-.1a5.5 5.5 0 0 1-4.6 2.2c-1.9 0-3.5-.5-4.9-1.5a8.6 8.6 0 0 1-2.8-4.3c-.5-1.4-.7-3-.7-4.9 0-1.9.2-3.5.7-5a7.9 7.9 0 0 1 7.8-5.6c2 .1 3.4.8 4.5 2.1l.1.1.1-.2v-8.5Zm-.8 21.3c.5-1 .8-2.4.8-4 0-1.9-.3-3.3-1-4.3a3 3 0 0 0-2.6-1.5c-1.2 0-2.2.5-2.8 1.5-.7 1-1 2.5-1 4.3 0 1.6.3 2.9.8 4a3.2 3.2 0 0 0 3 1.7c1.2 0 2.1-.6 2.8-1.7Zm29-6.2v3.4c0 .3-.1.5-.5.5H420c-.2 0-.2 0-.2.2l.5 1.6c.7 1.5 2 2.2 4.2 2.2 1.7 0 3-.7 4-2l.4-.3s.2 0 .3.2l2.9 2.8.2.4-.2.3c-.9 1-2 2-3.4 2.5-1.4.6-2.9 1-4.6 1-2.2 0-4.2-.6-5.8-1.6a8.7 8.7 0 0 1-3.4-4.4c-.6-1.3-.8-3-.8-5.2 0-1.5.2-2.8.6-4a8.8 8.8 0 0 1 3.2-4.4 9 9 0 0 1 5.4-1.7c2.7 0 4.8.8 6.4 2.3 1.7 1.5 2.7 3.6 3 6.2Zm-9.4-3.6c-1.7 0-2.8.7-3.3 2.3l-.3 1.3c0 .1 0 .2.2.2h7s.1 0 0-.2l-.1-1.1c-.3-.8-.7-1.4-1.3-1.9-.6-.4-1.3-.6-2.2-.6Zm13.4 16-.3-.1-.2-.4v-27c0-.2 0-.3.2-.3l.3-.2h4.7c.1 0 .2 0 .3.2.1 0 .2.1.2.3v27c0 .2 0 .3-.2.4l-.3.1h-4.7Zm17.5-20.9c1.7 0 3.3.3 4.7 1 1.3.5 2.4 1.3 3.1 2.4.8 1 1.2 2.2 1.2 3.5v13.5c0 .2 0 .3-.2.4l-.3.1H458l-.4-.1V753.2l-.2-.2-.1.1c-1.1 1.5-3 2.2-5.4 2.2-2 0-3.8-.5-5-1.5-1.3-1-2-2.5-2-4.5s.8-3.6 2.2-4.7a9.7 9.7 0 0 1 6.1-1.8h4.1c.2 0 .2 0 .2-.2v-.8c0-1-.2-1.6-.8-2-.5-.6-1.3-.8-2.4-.8-.8 0-1.5.1-2 .4a2 2 0 0 0-1 1.2c-.2.3-.3.5-.6.4l-4.8-.6c-.4 0-.5-.2-.5-.4.1-1 .6-2 1.3-3a8 8 0 0 1 3.2-2.1 12 12 0 0 1 4.3-.8Zm-.8 17c1.2 0 2.1-.3 3-.9.7-.6 1.1-1.4 1.1-2.4v-1.4c0-.1 0-.2-.2-.2h-2.9c-1.1 0-2.1.2-2.8.7-.7.4-1 1-1 1.9 0 .7.3 1.3.8 1.7.5.4 1.2.6 2 .6Zm24.5-17a7 7 0 0 1 5.1 2c1.3 1.3 2 3 2 5.3v13.1c0 .2 0 .3-.2.4l-.3.1h-4.7l-.3-.1-.2-.4v-12c0-1-.3-1.9-.9-2.5a3 3 0 0 0-2.3-1c-1 0-1.8.3-2.4 1-.6.6-1 1.5-1 2.6v12.3l-.4.1h-4.7l-.3-.1-.2-.4V735c0-.1 0-.2.2-.3l.3-.2h4.7c.1 0 .2 0 .3.2l.2.3V736.5h.2c1-1.6 2.7-2.4 4.9-2.4Zm23.7.8.1-.3.4-.2h4.6c.2 0 .3 0 .4.2l.1.3v18.3c0 3.5-1 6-3 7.4-2 1.5-4.6 2.3-7.8 2.3-1 0-2 0-3.1-.2-.3 0-.4-.2-.4-.5l.2-4.2c0-.3.1-.5.5-.4 1 .2 1.9.2 2.7.2a6 6 0 0 0 3.9-1c1-.8 1.4-2 1.4-3.7l-.1-.1h-.2c-1 1.1-2.5 1.7-4.4 1.7-1.7 0-3.3-.4-4.8-1.3a7 7 0 0 1-3-4c-.5-1.3-.7-2.9-.7-4.8 0-2 .3-3.8.7-5a8 8 0 0 1 2.9-4c1.3-1 2.9-1.5 4.6-1.5 2 0 3.6.6 4.7 1.9h.2V735Zm-.3 13a17.6 17.6 0 0 0 .2-5.2c0-.5-.1-1-.3-1.3-.2-.8-.6-1.3-1.2-1.8-.5-.4-1.2-.6-2-.6-.9 0-1.5.2-2.1.6-.6.5-1 1-1.2 1.8-.4.8-.6 1.8-.6 3.2 0 1.5.2 2.6.5 3.2.2.7.6 1.3 1.2 1.8.6.4 1.4.6 2.2.6.8 0 1.5-.2 2.1-.6.6-.5 1-1 1.2-1.8Zm28.1-5.3c.2 1 .3 2.1.2 3.4 0 .3-.2.5-.5.5h-12.4c-.1 0-.2 0-.1.2 0 .5.2 1 .4 1.6.7 1.5 2.1 2.2 4.2 2.2 1.8 0 3.1-.7 4-2l.4-.3c.1 0 .2 0 .3.2l2.9 2.8.2.4-.2.3c-.8 1-2 2-3.4 2.5-1.3.6-2.9 1-4.5 1-2.3 0-4.3-.6-5.9-1.6a8.7 8.7 0 0 1-3.4-4.4c-.5-1.3-.8-3-.8-5.2 0-1.5.2-2.8.6-4a8.8 8.8 0 0 1 3.2-4.4 9 9 0 0 1 5.5-1.7c2.7 0 4.8.8 6.4 2.3 1.6 1.5 2.6 3.6 3 6.2Zm-9.3-3.6c-1.7 0-2.8.7-3.3 2.3l-.3 1.3c0 .1 0 .2.2.2h7c.1 0 .2 0 .1-.2l-.2-1.1a3.5 3.5 0 0 0-3.5-2.5Z"/></g><defs><clipPath id="a"><use xlink:href="#reuse-0"/></clipPath><clipPath id="b"><path fill="#fff" d="M0 0H13V12H0z" transform="translate(58 790)"/></clipPath></defs></svg>