<svg xmlns="http://www.w3.org/2000/svg" xmlns:xlink="http://www.w3.org/1999/xlink" width="595" height="842" fill="none" viewBox="0 0 595 842"><defs><path id="reuse-0" fill="#fff" d="M0 0H595V842H0z"/></defs><g clip-path="url(#a)"><use xlink:href="#reuse-0"/><use xlink:href="#reuse-0"/><g clip-path="url(#b)"><path fill="#1E3446" d="M64.7 797h.1v1.2h-.5v1.7l-.2.1H63V798.3l-.1-.1h-3.2V797l1.8-4 .2-.1h1.3v.1l-1.7 3.8h1.6v-1.3H64.3v1.3h.5Zm5.4 0c.2.2.3.6.3 1s-.1.7-.3 1a2 2 0 0 1-.8.8c-.4.2-.8.3-1.3.3-.4 0-.9-.1-1.2-.3a2 2 0 0 1-.9-.8l-.2-1c0-.4 0-.8.2-1l.5-.7-.4-.5-.2-1c0-.4.1-.8.4-1.1.2-.3.4-.5.8-.6.3-.2.6-.2 1-.2s.8 0 1.1.2c.3.1.6.3.8.6a2 2 0 0 1 .1 2.1l-.4.5.5.6Zm-2.8-2.5-.1.4.1.6c.2.2.4.3.7.3.3 0 .6-.1.8-.3a1 1 0 0 0 0-1l-.3-.3a.9.9 0 0 0-.5-.1l-.4.1c-.2 0-.3.2-.3.3Zm1.4 4c.2-.2.2-.4.2-.7l-.1-.6c-.2-.3-.4-.4-.8-.4-.3 0-.6.1-.7.4l-.2.6c0 .3 0 .5.2.7.2.2.4.4.7.4.4 0 .6-.1.7-.4Z"/></g><path fill="#E13C2E" d="M75 795.5H84V796.5H75z"/><path fill="#1E3446" d="M84 795.5H136V796.5H84z"/><path fill="#D6C9C0" d="M512.2 99.8c.3 0 .5.1.7.3.2.2.3.5.3.8v10c0 .3-.1.5-.3.7-.2.2-.4.3-.7.3H454a1 1 0 0 1-.7-.3 1 1 0 0 1-.3-.7v-9.7c0-.6.2-1 .7-1.2l36.8-22.3c.2-.1.2-.2.2-.3 0-.1-.1-.2-.4-.2l-36.3.2a1 1 0 0 1-.7-.4 1 1 0 0 1-.3-.7v-10c0-.3 0-.6.3-.8.2-.2.4-.3.7-.3h58.2c.3 0 .5.1.7.3.2.2.3.5.3.8V76c0 .6-.2 1-.7 1.2L476 99.4l-.3.3.4.2h36.2Zm-32.5 56.7c-2.2.3-4.7.5-7.3.3-.7 0-1-.4-1-1V129c0-.3-.2-.4-.5-.3-1.2.2-2.3.5-3.5 1-3.2 1.4-4.8 4.5-4.8 9 0 3.7 1.6 6.6 4.5 8.8.3.2.5.4.5.7l-.3.6-6.1 6.2c-.3.3-.6.4-.8.4-.1 0-.3 0-.7-.3a19.1 19.1 0 0 1-5.5-7.3 25 25 0 0 1-1.9-9.8c0-5 1.1-9.1 3.4-12.6 2.2-3.3 5.3-5.8 9.3-7.3 3-1.2 6.7-1.8 11.3-1.8 3.2 0 6 .4 8.3 1.3a19 19 0 0 1 9.8 6.9c2.4 3.3 3.6 7.2 3.6 11.8a19 19 0 0 1-5 13.7 21.7 21.7 0 0 1-13.3 6.4Zm7.8-20c0-3.7-1.7-6-5-7.2l-2.8-.6c-.3 0-.5.2-.5.4v15c0 .3.2.4.5.3l2.4-.5c1.7-.5 3-1.4 4-2.7.9-1.3 1.4-2.9 1.4-4.7Zm-34.5 32c0-.5.3-1 .9-1.1L496 155h.3c.6 0 .9.2.9.9v10.4c0 .6-.3 1-.9 1.2l-26 6.2-.2.2c0 .1 0 .2.3.3l26 6.4c.5.2.8.6.8 1.2v9c0 .7-.3 1-.9 1.3l-26 6.8c-.2 0-.3.1-.3.2l.3.3 26 6.7c.6.2.9.6.9 1.2l-.2 10.3c0 .3-.1.6-.3.7-.2.2-.5.2-.8.2l-42.1-12.6c-.6-.2-.9-.5-.9-1.1v-10.4c0-.6.3-1 .9-1.2l23-6.6.3-.3-.3-.3-23-5.8c-.6-.2-.9-.6-.9-1.2v-10.4Zm-.6 66.7c0-3.9.5-7.2 1.6-10.1 1.1-2.9 2.6-5.1 4.6-6.7 2-1.6 4.1-2.3 6.6-2.3h.9c.3 0 .5 0 .7.2.2.3.3.5.3.8v9.5c0 .3-.1.6-.3.7-.2.3-.4.4-.7.4h-.1c-1.3 0-2.4.7-3.3 2-.8 1.5-1.3 3.2-1.3 5.4 0 2 .4 3.5 1.1 4.7.8 1.2 1.8 1.8 3 1.8 1 0 1.8-.5 2.3-1.5.5-1 1-2.8 1.6-5.1a51 51 0 0 1 6.6-15.2c1.9-2.1 4.5-3.2 8-3.2a12 12 0 0 1 10 4.9c2.5 3.3 3.8 7.7 3.8 13.1 0 3.7-.6 7-1.8 9.7a14.2 14.2 0 0 1-4.9 6.3 12 12 0 0 1-7.2 2.4 1 1 0 0 1-.8-.4 1 1 0 0 1-.3-.7v-9.2c0-.3.1-.5.3-.8l.8-.2c1.2 0 2.3-.7 3.2-2 .8-1.2 1.2-3 1.2-5s-.3-3.5-1-4.7c-.7-1.2-1.6-1.8-2.8-1.8-1.2 0-2 .6-2.6 1.7-.6 1.2-1.2 3.2-1.8 6a194.5 194.5 0 0 1-1.3 4.7 28 28 0 0 1-4.6 9.6c-2 2.4-4.7 3.5-8.3 3.5-4.2 0-7.6-1.7-10-5a23 23 0 0 1-3.5-13.5Z" opacity=".6"/><path fill="#D6C9C0" d="M528 60H531V659H528z" opacity=".8"/><path fill="#1E3446" d="M452.3 689.5v-.3l.4-.2h4.7c.1 0 .3 0 .3.2.1 0 .2.1.2.3v27c0 .2 0 .3-.2.4l-.3.1H453c-.3 0-.5-.1-.6-.3L442 699.6l-.2-.1v17.1l-.1.3-.4.1h-4.6l-.4-.1-.1-.4v-27.3l.5-.2h4.5c.2 0 .4.1.5.3l10.4 17 .1.2v-17Zm28.3 15.1c.2 1 .2 2.1.2 3.4 0 .3-.2.5-.5.5h-12.4c-.2 0-.2 0-.2.2l.5 1.6c.7 1.5 2 2.2 4.2 2.2 1.7 0 3-.7 4-2l.4-.3c.1 0 .2 0 .3.2l2.9 2.8.2.4-.2.3c-.9 1-2 2-3.4 2.5-1.4.6-2.9 1-4.5 1-2.3 0-4.3-.6-5.9-1.6a8.7 8.7 0 0 1-3.4-4.4c-.5-1.3-.8-3-.8-5.2 0-1.5.2-2.8.6-4a8.8 8.8 0 0 1 3.2-4.4 9 9 0 0 1 5.5-1.7c2.6 0 4.8.8 6.4 2.3 1.6 1.5 2.6 3.6 3 6.2Zm-9.3-3.6c-1.7 0-2.8.7-3.3 2.3l-.3 1.3c0 .1 0 .2.2.2h7s.1 0 0-.2l-.1-1.1c-.3-.8-.7-1.4-1.3-1.9-.6-.4-1.3-.6-2.2-.6Zm17 16c-.4 0-.5-.1-.6-.4l-5.8-19.6v-.2c0-.3.1-.4.4-.4h4.9c.3 0 .4.1.5.4l2.9 12 .1.2.1-.1 3-12.1c.1-.3.3-.4.6-.4h4.2c.3 0 .5.1.6.4l3.1 12.1.1.1h.2l3-12.2c.2-.3.3-.4.6-.4h4.8l.4.2v.4l-5.8 19.6c0 .3-.3.4-.5.4h-4.9c-.3 0-.4-.1-.5-.4l-3.1-10.7-.1-.1h-.1l-2.8 10.8c0 .3-.2.4-.5.4h-4.9Zm32.9.3c-1.8 0-3.3-.3-4.7-.8a7.3 7.3 0 0 1-3.1-2.1c-.7-1-1-2-1-3v-.8l.4-.2h4.4c.2 0 .3 0 .4.2l.1.3c0 .6.3 1.2 1 1.6.6.4 1.5.6 2.5.6.9 0 1.6-.2 2.2-.5.5-.4.8-.9.8-1.4 0-.5-.2-.8-.7-1-.5-.3-1.3-.6-2.4-.8a23.8 23.8 0 0 1-7-3.1c-1-.9-1.5-2.1-1.5-3.7 0-2 .7-3.5 2.2-4.7a9.9 9.9 0 0 1 6.2-1.7c1.7 0 3.2.2 4.4.8 1.3.5 2.3 1.3 3 2.3.7 1 1 2 1 3.3v.4l-.4.1h-4.3l-.3-.1-.2-.4c0-.5-.3-1-.9-1.4-.6-.4-1.4-.6-2.3-.6-1 0-1.6.1-2.2.4-.6.4-.8.8-.8 1.4 0 .5.2.9.8 1.2l2.7.8a80.9 80.9 0 0 1 2.2.6 13 13 0 0 1 4.5 2.2c1 .8 1.6 2.1 1.6 3.8 0 2-.7 3.5-2.3 4.6-1.6 1.1-3.7 1.7-6.3 1.7Z"/></g><defs><clipPath id="a"><use xlink:href="#reuse-0"/></clipPath><clipPath id="b"><path fill="#fff" d="M0 0H12V12H0z" transform="translate(59 790)"/></clipPath></defs></svg>