<svg xmlns="http://www.w3.org/2000/svg" xmlns:xlink="http://www.w3.org/1999/xlink" width="595" height="842" fill="none" viewBox="0 0 595 842"><defs><path id="reuse-0" fill="#fff" d="M0 0H595V842H0z"/></defs><g clip-path="url(#a)"><use xlink:href="#reuse-0"/><use xlink:href="#reuse-0"/><g clip-path="url(#b)"><path fill="#1E3446" d="M70 797v1.2h-.5v1.7l-.2.1H68.1V798.3l-.1-.1h-3.2V797l1.8-4 .2-.1H68v.1l-1.7 3.8H68v-1.3H69.5v1.3h.5Z"/></g><path fill="#E13C2E" d="M75 795.5H84V796.5H75z"/><path fill="#1E3446" d="M84 795.5H136V796.5H84z"/><path fill="#D6C9C0" d="M503.8 107a1 1 0 0 1-.7-.3 1 1 0 0 1-.3-.7V77.8c0-.3-.1-.4-.4-.4H489c-.3 0-.4.1-.4.4v18.5c0 .3-.1.5-.3.7-.2.2-.4.3-.7.3h-8.4a1 1 0 0 1-.7-.3 1 1 0 0 1-.3-.7V77.8c0-.3-.1-.4-.4-.4h-14c-.3 0-.4.1-.4.4V106c0 .3-.1.5-.3.7-.2.2-.4.3-.7.3H454a1 1 0 0 1-.7-.3 1 1 0 0 1-.3-.7V66.3c0-.3 0-.6.3-.8.2-.2.4-.3.7-.3h58.2c.3 0 .5.1.7.3.2.2.3.5.3.8V106c0 .3-.1.5-.3.7-.2.2-.4.3-.7.3h-8.4Zm14.7-25.8c0-.4.1-.7.4-.8.2-.1.5-.1.8 0l8.7 4.6c.5.3.8.7.8 1.3V95c0 .4-.1.7-.4.8-.3.1-.5.1-.9-.1l-8.7-6.1c-.4-.3-.7-.7-.7-1.2v-7.2Zm-6.3 56.6c.3 0 .5.1.7.3.2.2.3.5.3.8v10c0 .3-.1.5-.3.7-.2.2-.4.4-.7.4H454a1 1 0 0 1-.7-.4 1 1 0 0 1-.3-.7v-10c0-.3 0-.6.3-.8.2-.2.4-.3.7-.3h2.9l.2-.1v-.4a11.8 11.8 0 0 1-4.8-9.9c0-4 1.1-7.5 3.4-10.4 2.2-2.8 5.3-5 9.2-6.2 3-1 6.4-1.4 10.4-1.4s7.6.5 10.6 1.5a17 17 0 0 1 12 16.8c0 4.1-1.4 7.3-4.3 9.6-.2.1-.2.2-.2.4l.4.1h18.4Zm-45.8-1.8c2.1 1.2 5 1.7 8.7 1.7a18 18 0 0 0 9-1.8 6.3 6.3 0 0 0 3.4-5.8c0-2.7-1.1-4.7-3.4-6.1a16.8 16.8 0 0 0-9-2.2c-3.5 0-6.4.6-8.7 1.8a7 7 0 0 0-3.7 6.4c0 2.6 1.3 4.6 3.7 6Zm35.8 25.3c0-2 .6-3.5 1.9-4.9 1.3-1.2 3-1.9 4.9-1.9a6.6 6.6 0 0 1 6.8 6.8 6.6 6.6 0 0 1-6.8 6.8 6.7 6.7 0 0 1-6.8-6.8Zm-49.2-5.1c0-.3 0-.6.3-.8.2-.2.4-.3.7-.3h42.3c.2 0 .5.1.6.3.3.2.4.5.4.8v10c0 .3-.1.6-.4.7-.1.3-.4.4-.6.4H454a1 1 0 0 1-.7-.4 1 1 0 0 1-.3-.7v-10Zm35.5 41.6a1 1 0 0 1-.8-.3 1 1 0 0 1-.2-.7v-8.3c0-.3-.2-.4-.4-.4h-18.3c-1.9 0-3.3.3-4.2 1.1-1 .8-1.4 2-1.4 3.8v2.8c0 .3 0 .5-.3.7-.2.2-.4.3-.7.3H454c-.6 0-1-.3-1-1l-.3-5.1c0-4.8.8-8.4 2.4-10.7 1.6-2.4 4.6-3.6 9-3.6h23c.2 0 .4-.2.4-.4v-5c0-.2 0-.5.2-.7.3-.2.5-.3.8-.3h7.7c.3 0 .5.1.7.3.2.2.3.5.3.8v4.9c0 .2.1.4.4.4H508c.3 0 .5 0 .7.2.2.3.3.5.3.8v9.6c0 .3-.1.6-.3.7-.2.3-.4.4-.7.4h-10.3c-.3 0-.4.1-.4.4v8.3c0 .3-.1.5-.3.7-.2.2-.4.3-.7.3h-7.7Zm-36.2 22c0-4.9 1.3-9 3.8-12.5 2.5-3.4 6-5.7 10.3-7a31.9 31.9 0 0 1 17.9 0c4.2 1.3 7.6 3.7 10 7.1a21 21 0 0 1 3.6 12.4 20 20 0 0 1-3.6 12 18.8 18.8 0 0 1-10 7.1 29.5 29.5 0 0 1-17.6.2c-4.5-1.3-8-3.6-10.6-7a20 20 0 0 1-3.8-12.4Zm10.4 0a7 7 0 0 0 1.7 4.7 9.6 9.6 0 0 0 4.8 2.9 24.8 24.8 0 0 0 12 0c2-.6 3.6-1.6 4.7-3 1-1.3 1.6-2.9 1.6-4.8 0-2-.6-3.5-1.6-4.9a9.3 9.3 0 0 0-4.6-2.7c-1.4-.5-3.4-.7-6.1-.7-2.6 0-4.6.2-6 .6-2 .6-3.6 1.5-4.8 2.8a7.5 7.5 0 0 0-1.7 5Zm35.1 46c0 2-.4 3.7-1.2 4.9-.2.5-.7.6-1.3.5l-9.8-1.8c-.7 0-.9-.5-.6-1.2.3-.9.4-1.9.4-3l-.1-1.9c-.2-2-1-3.8-2.4-5.2a6.9 6.9 0 0 0-5.3-2.2H454a1 1 0 0 1-.7-.3 1 1 0 0 1-.3-.7v-10c0-.4 0-.6.3-.9l.7-.2h42.2c.3 0 .5 0 .7.2.2.3.3.5.3.8v10c0 .4-.1.6-.3.8-.2.2-.4.3-.7.3h-3.3c-.2 0-.3 0-.3.2-.1 0 0 .2 0 .2a11 11 0 0 1 5.2 9.5Zm4.4 13.1c0-2 .6-3.5 1.9-4.9 1.3-1.2 3-1.9 4.9-1.9a6.6 6.6 0 0 1 6.8 6.8 6.6 6.6 0 0 1-6.8 6.8 6.7 6.7 0 0 1-6.8-6.8Zm-49.2-5.1c0-.3 0-.6.3-.8.2-.2.4-.3.7-.3h42.3c.2 0 .5.1.6.3.3.2.4.5.4.8v10c0 .3-.1.6-.4.7-.1.3-.4.4-.6.4H454a1 1 0 0 1-.7-.4 1 1 0 0 1-.3-.7v-10Zm44.9 33.8c0 3.8-.7 7.1-2 10-1.2 3-3 5.2-5.2 6.8a12.2 12.2 0 0 1-7.5 2.5H454a1 1 0 0 1-.7-.3 1 1 0 0 1-.3-.7v-10c0-.4 0-.6.3-.9l.7-.2h2.9c.1 0 .3 0 .3-.2 0-.1 0-.2-.2-.3-3.1-2.4-4.7-6.3-4.7-11.6 0-4.5 1.1-8.1 3.3-10.9 2.2-2.7 5.4-4.1 9.6-4.1 4.4 0 7.8 1.5 10.2 4.6 2.5 3.1 3.7 7.6 3.7 13.3v8.8c0 .2.2.4.5.4h1.9c1.9 0 3.3-.6 4.4-1.7 1-1.2 1.6-2.9 1.6-5.2 0-1.8-.3-3.3-1-4.5a4.4 4.4 0 0 0-2.6-2.2c-.7-.2-1-.5-.9-1.1l1.4-10.4c.1-.7.4-1 .8-1 2.4.3 4.6 1.2 6.5 2.9 2 1.7 3.5 4 4.6 6.7 1 2.8 1.6 6 1.6 9.3Zm-36.6-1.7c0 2.5.7 4.6 2 6.3 1.3 1.7 3 2.6 5 2.6h3.2c.3 0 .4-.2.4-.4v-6.2a11 11 0 0 0-1.4-6.1 4.7 4.7 0 0 0-4.2-2.2c-1.5 0-2.8.6-3.7 1.6-.8 1.1-1.3 2.6-1.3 4.4Zm-8.3 26.3c0-.3 0-.6.3-.8.2-.2.4-.2.7-.2h58.2c.3 0 .5 0 .7.2.2.2.3.5.3.8v10c0 .3-.1.6-.3.7-.2.3-.4.4-.7.4H454a1 1 0 0 1-.7-.4 1 1 0 0 1-.3-.6v-10.1Z" opacity=".6"/><path fill="#D6C9C0" d="M528 60H531V659H528z" opacity=".8"/><path fill="#1E3446" d="M403 693.4v.3l-.4.1h-13.1c-.2 0-.2.1-.2.2v6.2c0 .2 0 .2.2.2h8.6c.1 0 .2 0 .3.2l.2.3v3.9l-.2.4h-8.9c-.2 0-.2.1-.2.3v6.5s0 .2.2.2h13.1l.3.1.2.3v4s0 .2-.2.3l-.3.1h-18.5l-.3-.1-.2-.4v-27c0-.2 0-.3.2-.3l.3-.2h18.5c.1 0 .2 0 .3.2.1 0 .2.1.2.3v3.9Zm-12-6.9-.3-.1v-.4l2.1-4c.1-.3.3-.4.6-.4h4c.3 0 .4 0 .4.2.1 0 .1.2 0 .4l-2.8 4-.6.3H391Zm28.4 3 .1-.3.4-.2h4.7s.2 0 .3.2l.1.3v27l-.1.4-.3.1h-4.7l-.4-.1-.1-.4V715.1h-.2a5.5 5.5 0 0 1-4.6 2.2c-2 0-3.5-.5-4.9-1.5a8.6 8.6 0 0 1-2.9-4.3c-.4-1.4-.6-3-.6-4.9 0-1.9.2-3.5.7-5a7.9 7.9 0 0 1 7.8-5.6c1.9.1 3.4.8 4.5 2.1l.1.1v-8.7Zm-.8 21.3c.5-1 .8-2.4.8-4 0-1.9-.3-3.3-1-4.3a3 3 0 0 0-2.6-1.5c-1.3 0-2.2.5-2.8 1.5-.7 1-1 2.5-1 4.3 0 1.6.2 2.9.8 4a3.2 3.2 0 0 0 3 1.7c1.2 0 2-.6 2.8-1.7Zm13.7-16.7c-.9 0-1.6-.3-2.2-.9-.6-.6-1-1.3-1-2.2 0-1 .4-1.7 1-2.3a3 3 0 0 1 2.2-.9c1 0 1.7.3 2.3.9.6.6.9 1.3.9 2.3a3.1 3.1 0 0 1-3.2 3.1ZM430 717l-.3-.1-.1-.4V696.6l.4-.2h4.7c.1 0 .3 0 .3.2.1 0 .2.1.2.3v19.6c0 .2 0 .3-.2.4l-.3.1H430Zm21.4-16.5c0 .1 0 .2-.2.3l-.3.2H447c-.2 0-.2 0-.2.2v8.4c0 1 .1 1.6.5 2 .4.4 1 .6 1.7.6h1.4c.1 0 .2 0 .3.2l.1.3v3.8c0 .3-.1.5-.4.5l-2.4.1c-2.2 0-3.9-.3-5-1-1-.8-1.6-2.2-1.7-4.2v-10.7c0-.2 0-.2-.2-.2h-2.3s-.2 0-.3-.2l-.1-.3v-3.9l.4-.2h2.3c.2 0 .2 0 .2-.2v-4.7l.1-.3.4-.2h4.5c.1 0 .2 0 .3.2.1 0 .2.1.2.3v4.7c0 .2 0 .2.2.2h3.8c.1 0 .2 0 .3.2l.2.3v3.6Zm12.2 16.8c-2.3 0-4.2-.6-5.8-1.7a8.8 8.8 0 0 1-3.3-4.8c-.3-1.3-.5-2.7-.5-4.1 0-1.6.2-3 .5-4.3.7-2 1.8-3.5 3.4-4.6a9.8 9.8 0 0 1 5.7-1.7c2.2 0 4 .6 5.6 1.7 1.6 1 2.7 2.6 3.3 4.6a13.7 13.7 0 0 1 0 8.2 9 9 0 0 1-3.2 5 9.3 9.3 0 0 1-5.7 1.7Zm0-4.8c.9 0 1.6-.3 2.2-.8.6-.6 1-1.3 1.3-2.2a11.5 11.5 0 0 0 0-5.7c-.2-.9-.7-1.6-1.3-2-.6-.6-1.4-.8-2.3-.8-.9 0-1.6.2-2.2.7-.6.5-1 1.2-1.3 2.1-.2.7-.3 1.6-.3 2.9 0 1.2 0 2.1.2 2.8.3 1 .8 1.6 1.4 2.2.6.5 1.4.8 2.3.8Zm23.4-16.3c1 0 1.7.1 2.3.5.2.1.3.3.2.6l-.8 4.6c0 .3-.2.4-.6.3-.4-.2-.8-.2-1.4-.2h-.8c-1 .1-1.8.5-2.5 1.1-.7.6-1 1.5-1 2.5v11l-.1.3-.4.1h-4.6l-.4-.1-.1-.4V696.6l.5-.2h4.6c.2 0 .3 0 .4.2l.1.3v1.7h.2a5 5 0 0 1 4.4-2.4Zm8.1-2c-.9 0-1.6-.4-2.3-1-.5-.6-.8-1.3-.8-2.2 0-1 .3-1.7.8-2.3a3 3 0 0 1 2.3-.9c1 0 1.7.3 2.3.9.6.6.9 1.3.9 2.3a3 3 0 0 1-3.2 3.1Zm-2.4 22.8-.3-.1-.2-.4V697c0-.2 0-.3.2-.3l.3-.2h4.7c.1 0 .2 0 .3.2.1 0 .2.1.2.3v19.6c0 .2 0 .3-.2.4l-.3.1h-4.7Zm17.8-20.9c1.7 0 3.3.3 4.6 1 1.4.5 2.4 1.3 3.2 2.4.8 1 1.1 2.2 1.1 3.5v13.5l-.1.4-.3.1h-4.7l-.4-.1-.1-.4V715l-.2.1c-1.2 1.5-3 2.2-5.4 2.2-2.1 0-3.8-.5-5-1.5-1.4-1-2-2.5-2-4.5s.7-3.6 2.2-4.7a9.7 9.7 0 0 1 6.1-1.8h4.1c.1 0 .2 0 .2-.2v-.8c0-1-.3-1.6-.8-2-.5-.6-1.3-.8-2.4-.8-.8 0-1.5.1-2 .4a2 2 0 0 0-1.1 1.2c-.1.3-.3.5-.5.4l-4.9-.6c-.3 0-.4-.2-.4-.4 0-1 .5-2 1.3-3a8 8 0 0 1 3.1-2.1 12 12 0 0 1 4.4-.8Zm-.8 17c1.1 0 2.1-.3 2.9-.9.8-.6 1.2-1.4 1.2-2.4v-1.4c0-.1 0-.2-.2-.2h-2.9c-1.2 0-2.1.2-2.8.7-.7.4-1 1-1 1.9 0 .7.2 1.3.7 1.7.5.4 1.2.6 2 .6Zm14.2 3.9-.4-.1v-27.7l.4-.2h4.7c.1 0 .2 0 .3.2.1 0 .2.1.2.3v27l-.2.4-.3.1h-4.7Z"/></g><defs><clipPath id="a"><use xlink:href="#reuse-0"/></clipPath><clipPath id="b"><path fill="#fff" d="M0 0H7V12H0z" transform="translate(64 790)"/></clipPath></defs></svg>