<svg xmlns="http://www.w3.org/2000/svg" xmlns:xlink="http://www.w3.org/1999/xlink" width="595" height="842" fill="none" viewBox="0 0 595 842"><defs><path id="reuse-0" fill="#fff" d="M0 0H595V842H0z"/></defs><g clip-path="url(#a)"><use xlink:href="#reuse-0"/><use xlink:href="#reuse-0"/><path fill="#E13C2E" d="M525 796.5H534V797.5H525z" transform="rotate(180 525 796.5)"/><path fill="#1E3446" d="M516 796.5H568V797.5H516z" transform="rotate(180 516 796.5)"/><path fill="#1E3446" d="M528.3 800c-.1 0-.2 0-.1-.1l2.1-5.6h-1.9v.5h-1.1V793h4.5v1.3l-2.1 5.6-.2.1h-1.2Z"/><path fill="#D6C9C0" d="M453 66.3c0-.3 0-.6.3-.8.2-.2.4-.3.7-.3h58.2c.3 0 .5.1.7.3.2.2.3.5.3.8v10c0 .3-.1.6-.3.7-.2.3-.4.4-.7.4h-48.4c-.3 0-.4.1-.4.4v28.1c0 .3-.1.5-.3.7-.2.2-.4.4-.7.4H454a1 1 0 0 1-.7-.4 1 1 0 0 1-.3-.7V66.3Zm26.7 82.2c-2.2.4-4.7.5-7.3.4-.7-.1-1-.5-1-1.2v-26.5c0-.4-.2-.5-.5-.4-1.2.2-2.3.5-3.5 1-3.2 1.5-4.8 4.5-4.8 9 0 3.8 1.6 6.7 4.5 8.8.3.2.5.5.5.7l-.3.6-6.1 6.2c-.3.3-.6.5-.8.5l-.7-.4a19.1 19.1 0 0 1-5.5-7.3 25 25 0 0 1-1.9-9.8c0-5 1.1-9.1 3.4-12.5 2.2-3.4 5.3-5.9 9.3-7.4 3-1.2 6.7-1.8 11.3-1.8 3.2 0 6 .5 8.3 1.3a19 19 0 0 1 9.8 7c2.4 3.2 3.6 7.2 3.6 11.7a19 19 0 0 1-5 13.8 21.7 21.7 0 0 1-13.3 6.3Zm7.8-20c0-3.6-1.7-6-5-7.2l-2.8-.6c-.3 0-.5.2-.5.5V136c0 .4.2.5.5.4l2.4-.4a7.5 7.5 0 0 0 5.4-7.5Zm-2.2 76A31 31 0 0 1 475 206c-4 0-7.5-.6-10.7-1.7a18.6 18.6 0 0 1-8.8-6.2 17 17 0 0 1-3.2-10.5c0-4.2 1.4-7.4 4.3-9.7.2 0 .2-.2.2-.3l-.4-.2H438a.8.8 0 0 1-.7-.3.8.8 0 0 1-.3-.7v-10c0-.4.1-.6.3-.8.2-.2.4-.3.7-.3h58.2c.3 0 .5 0 .7.3.2.2.3.4.3.7v10c0 .4-.1.6-.3.8-.2.2-.4.3-.7.3h-2.9c-.1 0-.3 0-.3.2 0 .1 0 .2.2.3 3.1 2.4 4.7 5.8 4.7 10 0 4-1.1 7.4-3.4 10.2-2.1 3-5.2 5-9.2 6.3Zm-19.2-13.2c2.2 1.4 5.2 2.1 9 2.1 3.7 0 6.6-.6 8.7-1.8a6.7 6.7 0 0 0 3.7-6.4c0-2.6-1.2-4.6-3.7-5.9-2-1.2-5-1.8-8.7-1.8-3.8 0-6.8.6-9 1.9a6.4 6.4 0 0 0-3.4 5.8c0 2.6 1.1 4.6 3.4 6Zm-13.8 37.5c0-4.8 1.3-9 3.8-12.4 2.5-3.4 6-5.8 10.3-7a31.9 31.9 0 0 1 17.9 0c4.2 1.3 7.6 3.7 10 7.1a21 21 0 0 1 3.6 12.4 20 20 0 0 1-3.6 12 18.8 18.8 0 0 1-10 7 29.5 29.5 0 0 1-17.6.3c-4.5-1.3-8-3.7-10.6-7.1a20 20 0 0 1-3.8-12.3Zm10.4 0a7 7 0 0 0 1.7 4.8 9.6 9.6 0 0 0 4.8 2.9c1.8.4 3.8.6 6 .6 2.4 0 4.4-.2 6-.6 2-.7 3.6-1.7 4.7-3 1-1.3 1.6-2.9 1.6-4.8 0-2-.6-3.6-1.6-4.9a9.3 9.3 0 0 0-4.6-2.7c-1.4-.5-3.4-.7-6.1-.7-2.6 0-4.6.2-6 .6-2 .5-3.6 1.5-4.8 2.8a7.5 7.5 0 0 0-1.7 5Zm39.5 30.6c0-2 .6-3.6 1.9-5 1.3-1.2 3-1.8 4.9-1.8 2 0 3.6.6 4.9 1.9a6.6 6.6 0 0 1 1.9 4.9 6.6 6.6 0 0 1-6.8 6.8 6.7 6.7 0 0 1-6.8-6.8Zm-49.2-5.2c0-.3 0-.5.3-.7.2-.2.4-.3.7-.3h42.3c.2 0 .5 0 .6.3.3.2.4.4.4.7v10c0 .4-.1.6-.4.8-.1.2-.4.3-.6.3H454a1 1 0 0 1-.7-.3 1 1 0 0 1-.3-.7v-10Zm44.9 39.3a15 15 0 0 1-4.2 11.1 15.5 15.5 0 0 1-11.5 4.2H454a1 1 0 0 1-.7-.3 1 1 0 0 1-.3-.7v-10c0-.4 0-.6.3-.8.2-.2.4-.3.7-.3h25.7a8 8 0 0 0 5.6-2c1.5-1.2 2.2-3 2.2-5 0-2.2-.7-3.9-2.2-5.2a8.2 8.2 0 0 0-5.6-1.9H454a1 1 0 0 1-.7-.3 1 1 0 0 1-.3-.7v-10.1c0-.3 0-.5.3-.8l.7-.2h42.2c.3 0 .5 0 .7.2.2.3.3.5.3.8v10c0 .4-.1.6-.3.8-.2.2-.4.3-.7.3h-3c-.2 0-.3 0-.4.2l.1.2c3.3 2.4 5 5.9 5 10.5Zm-9.4 45a1 1 0 0 1-.8-.3 1 1 0 0 1-.2-.7v-8.2c0-.3-.2-.4-.4-.4h-18.3c-1.9 0-3.3.3-4.2 1-1 .9-1.4 2.1-1.4 3.9v2.8c0 .3 0 .5-.3.7-.2.2-.4.3-.7.3H454c-.6 0-1-.3-1-1l-.3-5.2c0-4.7.8-8.3 2.4-10.6 1.6-2.4 4.6-3.6 9-3.6h23c.2 0 .4-.2.4-.5v-4.9c0-.3 0-.5.2-.8l.8-.2h7.7c.3 0 .5 0 .7.3.2.2.3.4.3.7v5c0 .2.1.4.4.4H508c.3 0 .5 0 .7.2.2.2.3.5.3.8v9.6c0 .3-.1.5-.3.7-.2.2-.4.4-.7.4h-10.3c-.3 0-.4.1-.4.4v8.2c0 .3-.1.6-.3.7-.2.3-.4.4-.7.4h-7.7Zm-36.1 33.6c0-3.8.5-7.2 1.6-10 1.1-3 2.6-5.1 4.6-6.8 2-1.5 4.1-2.3 6.6-2.3h.9c.3 0 .5.1.7.3.2.2.3.5.3.8v9.5c0 .3-.1.5-.3.7-.2.2-.4.3-.7.3h-.1c-1.3 0-2.4.7-3.3 2.1-.8 1.4-1.3 3.2-1.3 5.3 0 2 .4 3.6 1.1 4.8.8 1.2 1.8 1.8 3 1.8 1 0 1.8-.5 2.3-1.6.5-1 1-2.7 1.6-5a51 51 0 0 1 6.6-15.2c1.9-2.2 4.5-3.3 8-3.3a12 12 0 0 1 10 5c2.5 3.3 3.8 7.7 3.8 13.1 0 3.7-.6 6.9-1.8 9.6a14.2 14.2 0 0 1-4.9 6.4 12 12 0 0 1-7.2 2.3 1 1 0 0 1-.8-.3 1 1 0 0 1-.3-.7v-9.2c0-.3.1-.6.3-.8.2-.2.5-.2.8-.2 1.2 0 2.3-.7 3.2-2 .8-1.3 1.2-3 1.2-5.1 0-1.9-.3-3.4-1-4.6-.7-1.2-1.6-1.8-2.8-1.8-1.2 0-2 .5-2.6 1.7a200.8 200.8 0 0 1-3.1 10.7 28 28 0 0 1-4.6 9.6c-2 2.3-4.7 3.5-8.3 3.5-4.2 0-7.6-1.7-10-5a23 23 0 0 1-3.5-13.6Zm43.8 47c.3 0 .5.1.7.3.2.2.3.5.3.8v10c0 .3-.1.6-.3.7-.2.3-.4.4-.7.4H454a1 1 0 0 1-.7-.4 1 1 0 0 1-.3-.7v-10c0-.3 0-.6.3-.8.2-.2.4-.2.7-.2h3l.2-.2-.2-.4c-3-2.3-4.6-5.8-4.6-10.6 0-4.4 1.3-8 4-10.8 2.6-2.8 6.3-4.2 11-4.2h28.8c.3 0 .5.1.7.3.2.2.3.5.3.7v10c0 .3-.1.5-.3.7-.2.2-.4.4-.7.4h-25.7c-2.3 0-4.2.6-5.6 1.8a6.5 6.5 0 0 0-2.2 5.1c0 2 .6 3.6 1.7 4.8 1.2 1.3 2.8 2 4.7 2.4h27Zm1.6 38.8c0 2.1-.4 3.7-1.2 5-.2.4-.7.6-1.3.5l-9.8-1.9c-.7 0-.9-.4-.6-1.2.3-.8.4-1.8.4-3l-.1-1.9c-.2-2-1-3.8-2.4-5.2a6.9 6.9 0 0 0-5.3-2.2H454a1 1 0 0 1-.7-.3 1 1 0 0 1-.3-.7v-10c0-.3 0-.6.3-.8.2-.2.4-.3.7-.3h42.2c.3 0 .5.1.7.3.2.2.3.5.3.8v10c0 .3-.1.5-.3.7-.2.2-.4.3-.7.3h-3.3c-.2 0-.3.1-.3.2v.3a11 11 0 0 1 5.2 9.4Z" opacity=".6"/><path fill="#D6C9C0" d="M528 60H531V659H528z" opacity=".8"/><path fill="#1E3446" d="m323.8 717-.3-.1-.1-.4v-27.3l.4-.2h4.7c.2 0 .3 0 .3.2.1 0 .2.1.2.3V712s0 .2.2.2h13l.4.1.2.3v4s0 .2-.2.3l-.3.1h-18.5Zm40.3-12.4c.2 1 .2 2.1.2 3.4 0 .3-.2.5-.6.5h-12.3c-.2 0-.2 0-.2.2 0 .5.2 1 .5 1.6.6 1.5 2 2.2 4.2 2.2 1.7 0 3-.7 4-2 .1-.2.3-.3.4-.3 0 0 .2 0 .3.2l2.9 2.8.2.4-.2.3c-.9 1-2 2-3.4 2.5-1.4.6-3 1-4.6 1-2.3 0-4.2-.6-5.8-1.6a8.7 8.7 0 0 1-3.4-4.4c-.6-1.3-.8-3-.8-5.2 0-1.5.2-2.8.6-4a8.8 8.8 0 0 1 3.2-4.4 9 9 0 0 1 5.4-1.7c2.7 0 4.8.8 6.4 2.3 1.7 1.5 2.6 3.6 3 6.2Zm-9.3-3.6c-1.7 0-2.8.7-3.3 2.3-.2.4-.2.8-.3 1.3 0 .1 0 .2.2.2h6.9c.2 0 .2 0 .2-.2l-.2-1.1c-.3-.8-.7-1.4-1.3-1.9-.6-.4-1.3-.6-2.2-.6Zm39.3 1c.5 1.3.7 3 .7 4.8 0 1.8-.2 3.5-.7 5-.7 1.7-1.6 3-3 4-1.3 1-2.9 1.5-4.8 1.5-2 0-3.5-.6-4.5-2h-.2v8.7l-.2.3-.3.1h-4.7l-.4-.1-.1-.3v-27l.1-.4.4-.2h4.7s.2 0 .3.2l.1.3v1.3l.1.2h.2a5.5 5.5 0 0 1 4.6-2.3c1.9 0 3.4.5 4.8 1.6 1.3 1 2.3 2.4 2.9 4.3Zm-6.1 9c.6-1.1 1-2.5 1-4.3 0-1.7-.3-3-.9-4a3.1 3.1 0 0 0-3-1.7 3 3 0 0 0-2.7 1.7 8 8 0 0 0-.8 4c0 1.8.3 3.2.9 4.2a3 3 0 0 0 2.7 1.6c1.2 0 2.1-.5 2.8-1.6Zm19.4 6.3c-2.2 0-4.1-.6-5.7-1.7a8.8 8.8 0 0 1-3.3-4.8 14.9 14.9 0 0 1 0-8.3c.6-2 1.7-3.6 3.3-4.7a9.8 9.8 0 0 1 5.8-1.7c2.2 0 4 .6 5.6 1.7 1.5 1 2.6 2.6 3.3 4.6a13.7 13.7 0 0 1 0 8.2 9 9 0 0 1-3.2 5 9.3 9.3 0 0 1-5.8 1.7Zm0-4.8c1 0 1.7-.3 2.3-.8.6-.6 1-1.3 1.3-2.2.2-.9.3-1.8.3-2.8 0-1.1 0-2-.3-2.9-.3-.9-.8-1.6-1.4-2-.6-.6-1.3-.8-2.2-.8-1 0-1.7.2-2.3.7-.6.5-1 1.2-1.3 2.1-.2.7-.3 1.6-.3 2.9 0 1.2.1 2.1.3 2.8.3 1 .7 1.6 1.3 2.2.7.5 1.4.8 2.3.8Zm16.3-18.4c-1 0-1.7-.3-2.3-.9-.6-.6-.9-1.3-.9-2.2 0-1 .3-1.7.9-2.3a3 3 0 0 1 2.3-.9c.9 0 1.7.3 2.2.9.6.6 1 1.3 1 2.3a3.1 3.1 0 0 1-3.2 3.1Zm-2.4 22.9-.4-.1-.1-.4V697l.1-.3.4-.2h4.6c.2 0 .3 0 .4.2l.1.3v19.6l-.1.4-.4.1h-4.6Zm20.2-20.9a7 7 0 0 1 5.2 2c1.3 1.3 2 3 2 5.3v13.1l-.2.4-.3.1h-4.7l-.4-.1v-12.4c0-1-.4-1.9-1-2.5a3 3 0 0 0-2.4-1c-1 0-1.8.3-2.4 1-.6.6-.8 1.5-.8 2.6v12l-.2.3-.3.1h-4.7l-.4-.1v-20.3l.4-.2h4.7c.1 0 .2 0 .3.2l.2.3V698.5h.2c1-1.6 2.7-2.4 4.8-2.4Zm23 4.4c0 .1 0 .2-.2.3l-.3.2h-3.8c-.2 0-.2 0-.2.2v8.4c0 1 .1 1.6.5 2 .4.4 1 .6 1.7.6h1.4c.1 0 .2 0 .3.2l.1.3v3.8c0 .3-.1.5-.4.5l-2.4.1c-2.2 0-3.9-.3-5-1-1-.8-1.6-2.2-1.7-4.2v-10.7c0-.2 0-.2-.2-.2H452s-.2 0-.3-.2l-.1-.3v-3.9l.4-.2h2.3c.2 0 .2 0 .2-.2v-4.7l.1-.3.4-.2h4.5c.1 0 .2 0 .3.2.1 0 .2.1.2.3v4.7c0 .2 0 .2.2.2h3.8c.1 0 .2 0 .3.2l.2.3v3.6Zm19.6 16.8c-1.8 0-3.4-.3-4.7-.8a7.3 7.3 0 0 1-3.1-2.1c-.7-1-1-2-1-3v-.8l.4-.2h4.4c.2 0 .3 0 .4.2l.1.3c0 .6.3 1.2 1 1.6.6.4 1.5.6 2.5.6.9 0 1.6-.2 2.2-.5.5-.4.8-.9.8-1.4 0-.5-.2-.8-.7-1-.5-.3-1.3-.6-2.4-.8a23.8 23.8 0 0 1-7-3.1c-1-.9-1.5-2.1-1.5-3.7 0-2 .7-3.5 2.2-4.7a9.9 9.9 0 0 1 6.2-1.7c1.7 0 3.2.2 4.4.8 1.3.5 2.3 1.3 3 2.3.7 1 1 2 1 3.3v.4l-.4.1h-4.3l-.3-.1-.2-.4c0-.5-.3-1-.9-1.4-.6-.4-1.4-.6-2.3-.6-1 0-1.6.1-2.2.4-.6.4-.8.8-.8 1.4 0 .5.2.9.8 1.2l2.7.8a86 86 0 0 1 2.2.6 13 13 0 0 1 4.5 2.2c1 .8 1.6 2.1 1.6 3.8 0 2-.8 3.5-2.3 4.6-1.6 1.1-3.7 1.7-6.3 1.7Zm23.9-20.4v-.3l.5-.2h4.6c.2 0 .3 0 .4.2l.1.3v19.6l-.1.4-.4.1h-4.6l-.4-.1-.1-.4v-1.3l-.1-.2-.2.1c-1 1.5-2.7 2.2-5 2.2a7 7 0 0 1-5-1.9c-1.2-1.2-1.9-3-1.9-5.1v-13.4l.1-.3.4-.2h4.6c.2 0 .3 0 .4.2l.1.3v12c0 1 .3 2 .9 2.6a3 3 0 0 0 2.4 1c.9 0 1.6-.3 2.2-.8.6-.6 1-1.3 1-2.2V697Zm20-.7c1 0 1.7.1 2.3.5.2.1.3.3.2.6l-.8 4.6c0 .3-.2.4-.6.3-.4-.2-.8-.2-1.4-.2h-.9c-1 .1-1.7.5-2.4 1.1-.7.6-1 1.5-1 2.5v11s0 .2-.2.3l-.3.1h-4.7l-.3-.1-.1-.4V696.6l.4-.2h4.7c.2 0 .3 0 .3.2.2 0 .2.2.2.3v1.7h.2a5 5 0 0 1 4.4-2.4Z"/></g><defs><clipPath id="a"><use xlink:href="#reuse-0"/></clipPath></defs></svg>