<svg xmlns="http://www.w3.org/2000/svg" xmlns:xlink="http://www.w3.org/1999/xlink" width="595" height="842" fill="none" viewBox="0 0 595 842"><defs><path id="reuse-0" fill="#fff" d="M0 0H595V842H0z"/></defs><g clip-path="url(#a)"><use xlink:href="#reuse-0"/><use xlink:href="#reuse-0"/><g clip-path="url(#b)"><path fill="#1E3446" d="M61.7 798.7h2.7l.1.1V800h-4.6l-.1-.1v-1a25.5 25.5 0 0 0 3.2-4c0-.2-.1-.4-.3-.5a1 1 0 0 0-.6-.3 1 1 0 0 0-.7.3l-.2.6v.2l-.1.1h-1.3v-.6c0-.3 0-.6.3-1l.8-.6a3 3 0 0 1 1.2-.2c.5 0 .9.1 1.2.3.4.2.6.4.8.7.2.3.3.6.3 1 0 .3 0 .6-.2.9l-.6 1-.7.7-1 1-.2.2Zm6 1.4c-.6 0-1.2-.2-1.7-.6-.4-.4-.6-1-.6-1.7v-2.6c0-.7.2-1.3.6-1.7.5-.4 1-.6 1.8-.6.7 0 1.3.2 1.7.6.5.4.7 1 .7 1.7v2.6c0 .7-.2 1.3-.7 1.7-.4.4-1 .6-1.7.6Zm0-1.2c.4 0 .6 0 .8-.3.2-.2.3-.4.3-.7V795c0-.3-.1-.5-.3-.7a1 1 0 0 0-.7-.3 1 1 0 0 0-.7.3 1 1 0 0 0-.3.7v2.8c0 .3.1.5.3.7.2.2.4.3.7.3Z"/></g><path fill="#E13C2E" d="M75 795.5H84V796.5H75z"/><path fill="#1E3446" d="M84 795.5H136V796.5H84z"/><path fill="#D6C9C0" d="M503.8 107a1 1 0 0 1-.7-.3 1 1 0 0 1-.3-.7V77.8c0-.3-.1-.4-.4-.4H489c-.3 0-.4.1-.4.4v18.5c0 .3-.1.5-.3.7-.2.2-.4.3-.7.3h-8.4a1 1 0 0 1-.7-.3 1 1 0 0 1-.3-.7V77.8c0-.3-.1-.4-.4-.4h-14c-.3 0-.4.1-.4.4V106c0 .3-.1.5-.3.7-.2.2-.4.3-.7.3H454a1 1 0 0 1-.7-.3 1 1 0 0 1-.3-.7V66.3c0-.3 0-.6.3-.8.2-.2.4-.3.7-.3h58.2c.3 0 .5.1.7.3.2.2.3.5.3.8V106c0 .3-.1.5-.3.7-.2.2-.4.3-.7.3h-8.4Zm-6 26.4a15 15 0 0 1-4.1 11.1 15.5 15.5 0 0 1-11.5 4.3H454a1 1 0 0 1-.7-.4 1 1 0 0 1-.3-.7v-10c0-.3 0-.6.3-.8.2-.2.4-.3.7-.3h25.7a8 8 0 0 0 5.6-2c1.5-1.2 2.2-3 2.2-5 0-2.1-.7-3.9-2.2-5.2a8.1 8.1 0 0 0-5.6-1.9H454a1 1 0 0 1-.7-.3 1 1 0 0 1-.3-.7v-10c0-.4 0-.6.3-.8.2-.2.4-.3.7-.3h42.2c.3 0 .5 0 .7.3.2.2.3.4.3.7v10c0 .4-.1.6-.3.8-.2.2-.4.3-.7.3h-3c-.2 0-.3 0-.4.2l.1.3c3.3 2.3 5 5.8 5 10.4Zm-9.3 45.1a1 1 0 0 1-.8-.3 1 1 0 0 1-.2-.7v-8.3c0-.3-.2-.4-.4-.4h-18.3c-1.9 0-3.3.4-4.2 1.1-1 .8-1.4 2-1.4 3.8v2.8c0 .3 0 .5-.3.7-.2.2-.4.4-.7.4H454c-.6 0-1-.4-1-1l-.3-5.2c0-4.8.8-8.4 2.4-10.7 1.6-2.4 4.6-3.6 9-3.6h23c.2 0 .4-.2.4-.4v-5c0-.2 0-.5.2-.7.3-.2.5-.3.8-.3h7.7c.3 0 .5.1.7.3.2.2.3.5.3.8v4.9c0 .2.1.4.4.4H508c.3 0 .5 0 .7.2.2.3.3.5.3.8v9.6c0 .3-.1.6-.3.7-.2.3-.4.4-.7.4h-10.3c-.3 0-.4.1-.4.4v8.3c0 .3-.1.5-.3.7-.2.2-.4.3-.7.3h-7.7Zm9.3 25c0 2-.4 3.7-1.2 5-.2.4-.7.5-1.3.4l-9.8-1.8c-.7 0-.9-.4-.6-1.2.3-.8.4-1.8.4-3l-.1-1.9c-.2-2-1-3.8-2.4-5.2a6.9 6.9 0 0 0-5.3-2.2H454a1 1 0 0 1-.7-.3 1 1 0 0 1-.3-.7v-10c0-.4 0-.6.3-.8.2-.2.4-.3.7-.3h42.2c.3 0 .5 0 .7.3.2.2.3.4.3.7v10c0 .4-.1.6-.3.8-.2.2-.4.3-.7.3h-3.3c-.2 0-.3 0-.3.2v.3a11 11 0 0 1 5.2 9.4Zm-18.1 44.7c-2.2.3-4.7.4-7.3.3-.7 0-1-.4-1-1.1v-26.6c0-.3-.2-.5-.5-.3-1.2.1-2.3.5-3.5 1-3.2 1.4-4.8 4.4-4.8 9 0 3.7 1.6 6.6 4.5 8.7.3.2.5.5.5.8l-.3.6-6.1 6.2c-.3.3-.6.4-.8.4l-.7-.3a19.1 19.1 0 0 1-5.5-7.3 25 25 0 0 1-1.9-9.8c0-5 1.1-9.2 3.4-12.6 2.2-3.4 5.3-5.8 9.3-7.3 3-1.2 6.7-1.8 11.3-1.8 3.2 0 6 .4 8.3 1.3a19 19 0 0 1 9.8 6.8c2.4 3.4 3.6 7.3 3.6 11.8a19 19 0 0 1-5 13.8 21.7 21.7 0 0 1-13.3 6.4Zm7.8-20c0-3.7-1.7-6-5-7.2l-2.8-.6c-.3 0-.5.1-.5.4v14.9c0 .3.2.4.5.3l2.4-.4a7.5 7.5 0 0 0 5.4-7.5Zm1 47.8a1 1 0 0 1-.8-.3 1 1 0 0 1-.2-.7v-8.3c0-.2-.2-.4-.4-.4h-18.3c-1.9 0-3.3.4-4.2 1.1-1 .8-1.4 2.1-1.4 3.8v2.9c0 .2 0 .5-.3.6-.2.3-.4.4-.7.4H454c-.6 0-1-.4-1-1l-.3-5.2c0-4.8.8-8.3 2.4-10.7 1.6-2.3 4.6-3.5 9-3.6h23c.2 0 .4-.1.4-.4v-5c0-.2 0-.5.2-.7.3-.2.5-.2.8-.2h7.7c.3 0 .5 0 .7.2.2.2.3.5.3.8v4.9c0 .3.1.4.4.4H508c.3 0 .5.1.7.3.2.2.3.5.3.8v9.6c0 .3-.1.5-.3.7-.2.2-.4.3-.7.3h-10.3c-.3 0-.4.2-.4.4v8.3c0 .3-.1.5-.3.7-.2.2-.4.3-.7.3h-7.7Zm13.7 9.6c0-2 .6-3.6 1.9-5 1.3-1.2 3-1.8 4.9-1.8 2 0 3.6.6 4.9 1.9a6.6 6.6 0 0 1 1.9 4.9 6.6 6.6 0 0 1-6.8 6.8 6.7 6.7 0 0 1-6.8-6.8Zm-49.2-5.2c0-.3 0-.5.3-.8l.7-.2h42.3c.2 0 .5 0 .6.2.3.3.4.5.4.8v10c0 .4-.1.6-.4.8-.1.2-.4.3-.6.3H454a1 1 0 0 1-.7-.3 1 1 0 0 1-.3-.7v-10Zm26.7 55.4c-2.2.3-4.7.4-7.3.3-.7 0-1-.4-1-1v-26.7c0-.3-.2-.4-.5-.3-1.2.2-2.3.5-3.5 1-3.2 1.4-4.8 4.5-4.8 9 0 3.7 1.6 6.6 4.5 8.7.3.3.5.5.5.8l-.3.6-6.1 6.2c-.3.3-.6.4-.8.4-.1 0-.3 0-.7-.3a19.1 19.1 0 0 1-5.5-7.3 25 25 0 0 1-1.9-9.8c0-5 1.1-9.1 3.4-12.6 2.2-3.4 5.3-5.8 9.3-7.3 3-1.2 6.7-1.8 11.3-1.8 3.2 0 6 .4 8.3 1.3a19 19 0 0 1 9.8 6.9c2.4 3.3 3.6 7.2 3.6 11.8a19 19 0 0 1-5 13.7 21.7 21.7 0 0 1-13.3 6.4Zm7.8-20c0-3.7-1.7-6-5-7.2l-2.8-.6c-.3 0-.5.2-.5.4v15c0 .3.2.4.5.3l2.4-.5c1.7-.5 3-1.4 4-2.7.9-1.3 1.4-2.9 1.4-4.8Zm10.4 46.6a15 15 0 0 1-4.2 11 15.5 15.5 0 0 1-11.5 4.3H454a1 1 0 0 1-.7-.4 1 1 0 0 1-.3-.7v-10c0-.3 0-.6.3-.8.2-.2.4-.3.7-.3h25.7a8 8 0 0 0 5.6-2c1.5-1.2 2.2-2.9 2.2-5s-.7-3.9-2.2-5.2a8.2 8.2 0 0 0-5.6-1.9H454a1 1 0 0 1-.7-.3 1 1 0 0 1-.3-.7v-10c0-.4 0-.6.3-.8.2-.2.4-.3.7-.3h42.2c.3 0 .5 0 .7.3.2.2.3.4.3.7v10.1c0 .3-.1.5-.3.7-.2.2-.4.3-.7.3h-3c-.2 0-.3 0-.4.2l.1.3c3.3 2.3 5 5.8 5 10.5Zm0 50.2c0 3.7-.7 7-2 10-1.2 2.9-3 5.1-5.2 6.8a12.2 12.2 0 0 1-7.5 2.4H454a1 1 0 0 1-.7-.3 1 1 0 0 1-.3-.7v-10c0-.3 0-.6.3-.8.2-.2.4-.3.7-.3h2.9c.1 0 .3 0 .3-.2 0 0 0-.2-.2-.3-3.1-2.4-4.7-6.3-4.7-11.6 0-4.5 1.1-8 3.3-10.8 2.2-2.8 5.4-4.2 9.6-4.2 4.4 0 7.8 1.6 10.2 4.7 2.5 3 3.7 7.5 3.7 13.2v8.8c0 .3.2.4.5.4h1.9c1.9 0 3.3-.6 4.4-1.7 1-1.1 1.6-2.9 1.6-5.2 0-1.7-.3-3.2-1-4.4a4.4 4.4 0 0 0-2.6-2.3c-.7-.1-1-.5-.9-1l1.4-10.5c.1-.7.4-1 .8-1 2.4.3 4.6 1.2 6.5 2.9 2 1.7 3.5 4 4.6 6.7 1 2.8 1.6 6 1.6 9.4Zm-36.6-1.7c0 2.4.7 4.5 2 6.2 1.3 1.8 3 2.6 5 2.6h3.2c.3 0 .4-.1.4-.4V413a11 11 0 0 0-1.4-6.1 4.7 4.7 0 0 0-4.2-2.2c-1.5 0-2.8.6-3.7 1.7-.8 1-1.3 2.5-1.3 4.4Zm-8.3 36.3c0-.6.3-1 .9-1.1l42.2-13.8h.4c.5 0 .8.3.8.9v11c0 .7-.3 1.1-.9 1.3l-26 7-.3.3.3.3 26 7c.6.2.9.6.9 1.2l-.2 11.1c0 .4-.1.6-.3.8-.2.2-.5.2-.9 0l-42-13.6c-.6-.2-.9-.6-.9-1.1v-11.3Zm26.7 64.4c-2.2.3-4.7.4-7.3.3-.7 0-1-.4-1-1.1v-26.6c0-.3-.2-.4-.5-.3-1.2.1-2.3.5-3.5 1-3.2 1.4-4.8 4.4-4.8 9 0 3.7 1.6 6.6 4.5 8.7.3.3.5.5.5.8l-.3.6-6.1 6.2c-.3.3-.6.4-.8.4l-.7-.3a19.1 19.1 0 0 1-5.5-7.3 25 25 0 0 1-1.9-9.8c0-5 1.1-9.2 3.4-12.6 2.2-3.4 5.3-5.8 9.3-7.3 3-1.2 6.7-1.8 11.3-1.8 3.2 0 6 .4 8.3 1.3a19 19 0 0 1 9.8 6.9c2.4 3.3 3.6 7.2 3.6 11.7a19 19 0 0 1-5 13.8 21.7 21.7 0 0 1-13.3 6.4Zm7.8-20c0-3.7-1.7-6-5-7.2l-2.8-.6c-.3 0-.5.1-.5.4v14.9c0 .3.2.5.5.3l2.4-.4c1.7-.5 3-1.4 4-2.7.9-1.3 1.4-2.9 1.4-4.8Zm-35.2 43c0-4.7 1.2-8.7 3.5-12 2.2-3.4 5.4-5.7 9.4-7.2 2.9-1 6.3-1.4 10.2-1.4 3.8 0 7.1.5 10 1.4 3.8 1.4 6.9 3.8 9.1 7.2 2.3 3.3 3.4 7.3 3.4 12 0 4.5-1.2 8.5-3.4 12a16.4 16.4 0 0 1-11.8 7.6h-.2c-.5 0-.8-.3-1-.8l-1.4-10v-.1c0-.5.3-.9.8-1l1.4-.3a6.5 6.5 0 0 0 3.7-2.7c1-1.3 1.5-3 1.5-4.9a7.3 7.3 0 0 0-5.2-7.3c-1.7-.6-4-1-7-1s-5.4.4-7 1c-1.8.5-3.1 1.3-4.1 2.6a7.7 7.7 0 0 0-1.5 4.7 8 8 0 0 0 1.4 4.7c1 1.4 2.3 2.3 4 2.8l.5.1h.2c.7.1 1 .5.9 1.3l-1.6 9.9c0 .6-.4.8-1 .8a16 16 0 0 1-11.6-7.6 21.9 21.9 0 0 1-3.2-11.9ZM431.2 90.2c.3 0 .5 0 .7.2.2.3.3.5.3.8v10c0 .4-.1.6-.3.8-.2.2-.4.3-.7.3H389a1 1 0 0 1-.7-.3 1 1 0 0 1-.3-.7V91.3c0-.3 0-.5.3-.8l.7-.2h3c.1 0 .2 0 .2-.2 0-.1 0-.2-.2-.3-3-2.3-4.6-5.9-4.6-10.7 0-4.4 1.3-8 4-10.8 2.6-2.8 6.3-4.2 11-4.2h28.8c.3 0 .5.1.7.3.2.2.3.5.3.8v10c0 .2-.1.5-.3.6-.2.3-.4.4-.7.4h-25.7c-2.3 0-4.2.6-5.6 1.8a6.5 6.5 0 0 0-2.2 5.1c0 2 .6 3.6 1.7 4.9 1.2 1.2 2.8 2 4.7 2.3h27Zm1.7 39.8a15 15 0 0 1-4.2 11 15.5 15.5 0 0 1-11.5 4.3H389a1 1 0 0 1-.7-.4 1 1 0 0 1-.3-.6v-10.1c0-.3 0-.5.3-.8l.7-.2h25.7a8 8 0 0 0 5.6-2c1.5-1.3 2.2-3 2.2-5 0-2.2-.7-4-2.2-5.2a8.2 8.2 0 0 0-5.6-2H389a1 1 0 0 1-.7-.3 1 1 0 0 1-.3-.7v-10c0-.3 0-.6.3-.8.2-.2.4-.3.7-.3h42.2c.3 0 .5.1.7.3.2.2.3.5.3.8v10c0 .3-.1.5-.3.7-.2.2-.4.4-.7.4h-3l-.4.1.1.3c3.3 2.3 5 5.8 5 10.5ZM406 155.4c0-2 .7-3.5 2-4.9 1.3-1.2 2.9-1.9 4.8-1.9a6.6 6.6 0 0 1 6.8 6.8c0 2-.6 3.7-1.9 5a6.6 6.6 0 0 1-4.9 1.8 6.7 6.7 0 0 1-6.8-6.8Zm8.6 49.4c-2.2.4-4.7.5-7.3.4-.7 0-1-.4-1-1.1v-26.6c0-.4-.2-.5-.5-.4-1.2.2-2.3.5-3.5 1-3.2 1.5-4.8 4.5-4.8 9.1 0 3.7 1.6 6.6 4.5 8.7.3.2.5.5.5.8l-.3.6-6.1 6.2-.8.4-.7-.4a19.1 19.1 0 0 1-5.5-7.3 25 25 0 0 1-1.9-9.8c0-4.9 1.1-9 3.4-12.5 2.2-3.4 5.3-5.8 9.3-7.3 3-1.2 6.7-1.8 11.3-1.8 3.2 0 6 .4 8.3 1.3a19 19 0 0 1 9.8 6.8c2.4 3.4 3.6 7.3 3.6 11.8a19 19 0 0 1-5 13.8 21.7 21.7 0 0 1-13.3 6.3Zm7.8-20c0-3.6-1.7-6-5-7.1-.8-.3-1.8-.5-2.8-.6-.3 0-.5.1-.5.4v14.9c0 .3.2.4.5.3l2.4-.4a7.5 7.5 0 0 0 5.4-7.5ZM322.3 83.9c0-4.6 1.2-8.6 3.5-12 2.2-3.3 5.4-5.7 9.4-7 2.9-1 6.3-1.5 10.2-1.5 3.8 0 7.1.4 10 1.4 3.8 1.4 6.9 3.8 9.1 7.2 2.3 3.3 3.4 7.3 3.4 12 0 4.5-1.2 8.5-3.4 12a16.4 16.4 0 0 1-11.8 7.6h-.2c-.5 0-.8-.3-1-.9l-1.4-9.8v-.2c0-.5.3-.9.8-1l1.4-.3a6.5 6.5 0 0 0 3.7-2.7c1-1.4 1.5-3 1.5-4.9a7.3 7.3 0 0 0-5.2-7.3c-1.7-.6-4-1-7-1s-5.4.4-7 1c-1.8.4-3.1 1.3-4.1 2.6a7.7 7.7 0 0 0-1.5 4.7 8 8 0 0 0 1.4 4.7c1 1.3 2.3 2.3 4 2.8h.5l.2.2c.7 0 1 .4.9 1.2l-1.6 9.9c0 .5-.4.8-1 .8a16 16 0 0 1-11.6-7.6 21.9 21.9 0 0 1-3.2-11.9Zm45.6 45.5a15 15 0 0 1-4.2 11.1 15.5 15.5 0 0 1-11.5 4.2H324a1 1 0 0 1-.7-.3 1 1 0 0 1-.3-.7v-10c0-.4 0-.6.3-.8.2-.2.4-.3.7-.3h25.7a8 8 0 0 0 5.6-2c1.5-1.2 2.2-3 2.2-5 0-2.2-.7-3.9-2.2-5.2a8.2 8.2 0 0 0-5.6-2H324a1 1 0 0 1-.7-.3 1 1 0 0 1-.3-.6v-10.1c0-.3 0-.5.3-.8.2-.2.4-.2.7-.2h58.2c.3 0 .5 0 .7.2.2.3.3.5.3.8v10c0 .3-.1.6-.3.7-.2.3-.4.4-.7.4h-19c-.2 0-.3 0-.4.2l.1.2c3.3 2.4 5 5.9 5 10.5ZM349.7 188c-2.2.3-4.7.4-7.3.3-.7 0-1-.4-1-1.1v-26.6c0-.3-.2-.4-.5-.3-1.2.2-2.3.5-3.5 1-3.2 1.4-4.8 4.5-4.8 9 0 3.7 1.6 6.6 4.5 8.7.3.3.5.5.5.8l-.3.6-6.1 6.2c-.3.3-.6.4-.8.4-.1 0-.3 0-.7-.3a19.1 19.1 0 0 1-5.5-7.3 25 25 0 0 1-1.9-9.8c0-5 1.1-9.1 3.4-12.6 2.2-3.4 5.3-5.8 9.3-7.3 3-1.2 6.7-1.8 11.3-1.8 3.2 0 6 .4 8.3 1.3a19 19 0 0 1 9.8 6.9c2.4 3.3 3.6 7.2 3.6 11.7a19 19 0 0 1-5 13.8 21.7 21.7 0 0 1-13.3 6.4Zm7.8-20c0-3.7-1.7-6-5-7.2l-2.8-.6c-.3 0-.5.1-.5.4v14.9c0 .3.2.5.5.3l2.4-.4c1.7-.5 3-1.4 4-2.7.9-1.3 1.4-2.9 1.4-4.8Zm10.3 45.5c0 2-.4 3.7-1.2 5-.2.4-.7.5-1.3.4l-9.8-1.8c-.7 0-.9-.4-.6-1.2.3-.8.4-1.8.4-3l-.1-1.9c-.2-2-1-3.8-2.4-5.2a6.9 6.9 0 0 0-5.3-2.2H324a1 1 0 0 1-.7-.3 1 1 0 0 1-.3-.7v-10c0-.4 0-.6.3-.9l.7-.2h42.2c.3 0 .5 0 .7.2.2.3.3.5.3.8v10c0 .4-.1.6-.3.8-.2.2-.4.3-.7.3h-3.3c-.2 0-.3 0-.3.2-.1.1 0 .2 0 .2a11 11 0 0 1 5.2 9.5Zm-45.5 25c0-4.6 1.2-8.6 3.5-12 2.2-3.3 5.4-5.7 9.4-7.1 2.9-1 6.3-1.5 10.2-1.5 3.8 0 7.1.5 10 1.5 3.8 1.3 6.9 3.7 9.1 7.1 2.3 3.4 3.4 7.4 3.4 12 0 4.5-1.2 8.6-3.4 12a16.4 16.4 0 0 1-11.8 7.6h-.2c-.5 0-.8-.2-1-.8l-1.4-9.9v-.2c0-.5.3-.8.8-1l1.4-.3a6.5 6.5 0 0 0 3.7-2.6c1-1.4 1.5-3 1.5-5 0-1.8-.5-3.3-1.4-4.6a7.3 7.3 0 0 0-3.8-2.6c-1.7-.7-4-1-7-1s-5.4.3-7 .9c-1.8.5-3.1 1.4-4.1 2.6a7.7 7.7 0 0 0-1.5 4.8 8 8 0 0 0 1.4 4.6c1 1.4 2.3 2.3 4 2.9h.5l.2.1c.7 0 1 .5.9 1.2l-1.6 10c0 .5-.4.8-1 .8l-2.5-.5a16 16 0 0 1-9-7 21.9 21.9 0 0 1-3.3-12ZM368 284a15 15 0 0 1-4.2 11 15.5 15.5 0 0 1-11.5 4.3H324a1 1 0 0 1-.7-.4 1 1 0 0 1-.3-.7v-10c0-.3 0-.6.3-.8.2-.2.4-.3.7-.3h25.7a8 8 0 0 0 5.6-2c1.5-1.2 2.2-2.9 2.2-5s-.7-3.9-2.2-5.2a8.2 8.2 0 0 0-5.6-1.9H324a1 1 0 0 1-.7-.3 1 1 0 0 1-.3-.7v-10c0-.3 0-.6.3-.8.2-.2.4-.3.7-.3h58.2c.3 0 .5.1.7.3.2.2.3.5.3.7V272c0 .3-.1.5-.3.7-.2.2-.4.3-.7.3h-19l-.4.2.1.3c3.3 2.3 5 5.8 5 10.5Zm-18.2 58.5c-2.2.4-4.7.5-7.3.4-.7 0-1-.5-1-1.2v-26.5c0-.4-.2-.5-.5-.4-1.2.2-2.3.5-3.5 1-3.2 1.5-4.8 4.5-4.8 9 0 3.8 1.6 6.7 4.5 8.8.3.2.5.5.5.8l-.3.6-6.1 6.1c-.3.3-.6.5-.8.5l-.7-.4a19.1 19.1 0 0 1-5.5-7.3 25 25 0 0 1-1.9-9.8c0-5 1.1-9.1 3.4-12.5 2.2-3.4 5.3-5.9 9.3-7.3 3-1.3 6.7-1.9 11.3-1.9 3.2 0 6 .5 8.3 1.3a19 19 0 0 1 9.8 7c2.4 3.2 3.6 7.2 3.6 11.7a19 19 0 0 1-5 13.8 21.7 21.7 0 0 1-13.3 6.3Zm7.8-20c0-3.6-1.7-6-5-7.2l-2.8-.6c-.3 0-.5.2-.5.5V330c0 .3.2.4.5.3l2.4-.4a7.5 7.5 0 0 0 5.4-7.5Zm8.7 49.3c.3 0 .5.1.7.3.2.2.3.5.3.8v10c0 .3-.1.5-.3.7-.2.2-.4.4-.7.4H324a1 1 0 0 1-.7-.4 1 1 0 0 1-.3-.7v-10c0-.3 0-.6.3-.8.2-.2.4-.3.7-.3h3l.2-.1c0-.1 0-.3-.2-.4-3-2.3-4.6-5.8-4.6-10.6 0-4.4 1.3-8 4-10.8 2.6-2.8 6.3-4.2 11-4.2h28.8c.3 0 .5 0 .7.3.2.2.3.4.3.7v10c0 .3-.1.5-.3.7-.2.2-.4.3-.7.3h-25.7c-2.3 0-4.2.6-5.6 1.8a6.5 6.5 0 0 0-2.2 5.2c0 2 .6 3.6 1.7 4.8 1.2 1.3 2.8 2 4.7 2.3h27Zm1.6 38.8c0 2-.4 3.7-1.2 5-.2.4-.7.5-1.3.4l-9.8-1.8c-.7 0-.9-.4-.6-1.2.3-.8.4-1.8.4-3l-.1-1.9c-.2-2-1-3.8-2.4-5.2a6.9 6.9 0 0 0-5.3-2.2H324a1 1 0 0 1-.7-.3 1 1 0 0 1-.3-.7v-10c0-.4 0-.6.3-.8.2-.2.4-.3.7-.3h42.2c.3 0 .5 0 .7.3.2.2.3.4.3.7v10c0 .4-.1.6-.3.8-.2.2-.4.3-.7.3h-3.3c-.2 0-.3 0-.3.2v.3a11 11 0 0 1 5.2 9.4ZM341.1 423c0-2 .7-3.6 2-4.9 1.3-1.3 2.9-1.9 4.8-1.9 2 0 3.7.6 5 1.9a6.6 6.6 0 0 1 1.8 4.9c0 2-.6 3.6-1.9 4.9a6.6 6.6 0 0 1-4.9 1.9 6.7 6.7 0 0 1-6.8-6.8Zm-18.7 27.9c0-3.8.5-7.2 1.6-10 1.1-3 2.6-5.2 4.6-6.8 2-1.5 4.1-2.3 6.6-2.3h.9c.3 0 .5 0 .7.3.2.2.3.4.3.7v9.6c0 .3-.1.5-.3.7-.2.2-.4.3-.7.3h-.1c-1.3 0-2.4.7-3.3 2-.8 1.5-1.3 3.3-1.3 5.4 0 2 .4 3.5 1.1 4.7.8 1.2 1.8 1.8 3 1.8 1 0 1.8-.5 2.3-1.5.5-1 1-2.7 1.6-5a51 51 0 0 1 6.6-15.2c1.9-2.2 4.5-3.3 8-3.3a12 12 0 0 1 10 5c2.5 3.2 3.8 7.6 3.8 13 0 3.7-.6 7-1.8 9.7a14.2 14.2 0 0 1-4.9 6.4 12 12 0 0 1-7.2 2.3 1 1 0 0 1-.8-.3 1 1 0 0 1-.3-.7v-9.2c0-.3.1-.6.3-.8.2-.2.5-.3.8-.3 1.2 0 2.3-.6 3.2-2 .8-1.2 1.2-2.9 1.2-5 0-2-.3-3.5-1-4.7-.7-1.2-1.6-1.8-2.8-1.8-1.2 0-2 .6-2.6 1.7-.6 1.3-1.2 3.2-1.8 6a188.5 188.5 0 0 1-1.3 4.7 28 28 0 0 1-4.6 9.6c-2 2.4-4.7 3.6-8.3 3.6-4.2 0-7.6-1.7-10-5.1a23 23 0 0 1-3.5-13.5Zm27.3 60.4c-2.2.3-4.7.4-7.3.3-.7 0-1-.4-1-1.1v-26.6c0-.3-.2-.4-.5-.3-1.2.1-2.3.5-3.5 1-3.2 1.4-4.8 4.4-4.8 9 0 3.7 1.6 6.6 4.5 8.7.3.2.5.5.5.8l-.3.6-6.1 6.2c-.3.3-.6.4-.8.4l-.7-.3a19.1 19.1 0 0 1-5.5-7.3 25 25 0 0 1-1.9-9.8c0-5 1.1-9.2 3.4-12.6 2.2-3.4 5.3-5.8 9.3-7.3 3-1.2 6.7-1.8 11.3-1.8 3.2 0 6 .4 8.3 1.3a19 19 0 0 1 9.8 6.9c2.4 3.3 3.6 7.2 3.6 11.7a19 19 0 0 1-5 13.8 21.7 21.7 0 0 1-13.3 6.4Zm7.8-20c0-3.7-1.7-6-5-7.2l-2.8-.6c-.3 0-.5.1-.5.4v14.9c0 .3.2.4.5.3l2.4-.4c1.7-.5 3-1.4 4-2.7.9-1.3 1.4-2.9 1.4-4.8Z" opacity=".6"/><path fill="#D6C9C0" d="M528 60H531V659H528z" opacity=".8"/><path fill="#1E3446" d="M212.9 693.4s0 .2-.2.3l-.3.1h-13.1c-.2 0-.2.1-.2.2v6.2c0 .2 0 .2.2.2h8.6c.1 0 .2 0 .3.2l.2.3v3.9c0 .1 0 .3-.2.4h-8.9c-.2 0-.2.1-.2.3v6.5s0 .2.2.2h13.1l.3.1.2.3v4s0 .2-.2.3l-.3.1h-18.5l-.3-.1-.2-.4v-27c0-.2 0-.3.2-.3l.3-.2h18.5c.1 0 .2 0 .3.2.1 0 .2.1.2.3v3.9Zm14.3 2.7a7 7 0 0 1 5.1 2c1.3 1.3 2 3 2 5.3v13.1c0 .2 0 .3-.2.4l-.3.1h-4.7l-.3-.1-.2-.4v-12c0-1-.3-1.9-.9-2.5a3 3 0 0 0-2.3-1c-1 0-1.8.3-2.4 1-.6.6-1 1.5-1 2.6v12.3l-.4.1h-4.7l-.3-.1-.2-.4V697c0-.1 0-.2.2-.3l.3-.2h4.7c.1 0 .2 0 .3.2l.2.3V698.5h.2c1-1.6 2.7-2.4 4.9-2.4Zm23 4.4-.2.3-.4.2h-3.8c-.1 0-.2 0-.2.2v8.4c0 1 .2 1.6.5 2 .4.4 1 .6 1.8.6h1.3c.1 0 .2 0 .3.2l.2.3v3.8c0 .3-.2.5-.5.5l-2.4.1c-2.2 0-3.9-.3-5-1-1-.8-1.6-2.2-1.6-4.2v-10.7c0-.2-.1-.2-.2-.2h-2.3c-.2 0-.3 0-.4-.2l-.1-.3v-3.6l.1-.3.4-.2h2.3s.2 0 .2-.2v-5l.4-.2h4.5c.1 0 .3 0 .3.2.1 0 .2.1.2.3v4.7c0 .2 0 .2.2.2h3.8c.2 0 .3 0 .4.2l.1.3v3.6Zm13.6-4.3c1 0 1.7.1 2.2.5.2.1.3.3.3.6l-.9 4.6c0 .3-.2.4-.5.3-.4-.2-.9-.2-1.4-.2h-1c-.9.1-1.7.5-2.4 1.1-.6.6-1 1.5-1 2.5v11l-.1.3-.3.1H254l-.4-.1v-20.3l.4-.2h4.7c.1 0 .2 0 .3.2l.1.3v1.5l.1.2h.2a5 5 0 0 1 4.4-2.4Zm22.7 8.4c.2 1 .2 2.1.2 3.4 0 .3-.2.5-.5.5h-12.4c-.2 0-.2 0-.2.2l.5 1.6c.7 1.5 2 2.2 4.2 2.2 1.7 0 3-.7 4-2l.4-.3s.2 0 .3.2l2.9 2.8.2.4-.2.3c-.9 1-2 2-3.4 2.5-1.4.6-2.9 1-4.5 1-2.3 0-4.3-.6-5.9-1.6a8.7 8.7 0 0 1-3.4-4.4c-.5-1.3-.8-3-.8-5.2 0-1.5.2-2.8.6-4a8.8 8.8 0 0 1 3.2-4.4 9 9 0 0 1 5.5-1.7c2.6 0 4.8.8 6.4 2.3a10 10 0 0 1 3 6.2Zm-9.3-3.6c-1.7 0-2.8.7-3.3 2.3l-.3 1.3c0 .1 0 .2.2.2h7s.1 0 0-.2l-.1-1.1c-.3-.8-.7-1.4-1.3-1.9-.6-.4-1.3-.6-2.2-.6Zm24.3-.5c0 .1 0 .2-.2.3l-.3.2h-3.8c-.2 0-.2 0-.2.2v8.4c0 1 .1 1.6.5 2 .4.4 1 .6 1.7.6h1.4s.2 0 .3.2l.1.3v3.8c0 .3-.1.5-.4.5l-2.4.1c-2.3 0-3.9-.3-5-1-1-.8-1.7-2.2-1.7-4.2v-10.7c0-.2 0-.2-.2-.2H289s-.2 0-.3-.2l-.1-.3v-3.9l.4-.2h2.3c.2 0 .2 0 .2-.2v-4.7l.1-.3.4-.2h4.5c.1 0 .2 0 .3.2.1 0 .2.1.2.3v4.7c0 .2 0 .2.2.2h3.8c.1 0 .2 0 .3.2l.2.3v3.6Zm6.4-6.4c-.9 0-1.6-.3-2.3-.9-.6-.6-.8-1.3-.8-2.2 0-1 .3-1.7.8-2.3a3 3 0 0 1 2.3-.9c1 0 1.7.3 2.3.9.6.6.9 1.3.9 2.3a3.1 3.1 0 0 1-3.2 3.1Zm-2.4 22.9-.3-.1-.2-.4V697c0-.2 0-.3.2-.3l.3-.2h4.7c.1 0 .2 0 .3.2.1 0 .2.1.2.3v19.6c0 .2 0 .3-.2.4l-.3.1h-4.7Zm27.8-12.4c.1 1 .2 2.1.1 3.4 0 .3-.2.5-.5.5h-12.3c-.2 0-.3 0-.2.2 0 .5.2 1 .4 1.6.7 1.5 2.1 2.2 4.3 2.2 1.7 0 3-.7 4-2 .1-.2.2-.3.4-.3l.3.2 2.8 2.8c.2.1.2.3.2.4l-.1.3c-1 1-2 2-3.4 2.5-1.4.6-3 1-4.6 1-2.3 0-4.2-.6-5.8-1.6a8.7 8.7 0 0 1-3.4-4.4c-.6-1.3-.9-3-.9-5.2 0-1.5.2-2.8.6-4a8.8 8.8 0 0 1 3.2-4.4 9 9 0 0 1 5.5-1.7c2.7 0 4.8.8 6.4 2.3a10 10 0 0 1 3 6.2ZM324 701c-1.7 0-2.8.7-3.4 2.3l-.2 1.3c0 .1 0 .2.2.2h6.9c.1 0 .2 0 .1-.2l-.2-1.1c-.2-.8-.6-1.4-1.2-1.9-.6-.4-1.4-.6-2.2-.6Zm23.6-4.9a7 7 0 0 1 5.2 2c1.3 1.3 2 3 2 5.3v13.1l-.2.4-.3.1h-4.7l-.4-.1v-12.4c0-1-.4-1.9-1-2.5a3 3 0 0 0-2.4-1c-1 0-1.8.3-2.4 1-.6.6-.9 1.5-.9 2.6v12l-.1.3-.3.1h-4.7l-.4-.1v-20.3l.4-.2h4.7c.1 0 .2 0 .3.2l.1.3v1.4l.1.2h.1c1.1-1.6 2.8-2.4 5-2.4Zm27.4 0c1.7 0 3.3.3 4.6 1 1.4.5 2.4 1.3 3.2 2.4.8 1 1.2 2.2 1.2 3.5v13.5l-.2.4-.3.1h-4.7l-.4-.1V715.2l-.2-.2-.1.1c-1.1 1.5-3 2.2-5.4 2.2-2.1 0-3.8-.5-5-1.5-1.3-1-2-2.5-2-4.5s.7-3.6 2.2-4.7a9.7 9.7 0 0 1 6.1-1.8h4.1c.1 0 .2 0 .2-.2v-.8c0-1-.3-1.6-.8-2-.5-.6-1.3-.8-2.4-.8-.8 0-1.5.1-2 .4a2 2 0 0 0-1.1 1.2c0 .3-.3.5-.5.4l-4.9-.6c-.3 0-.4-.2-.4-.4.1-1 .5-2 1.3-3a8 8 0 0 1 3.1-2.1 12 12 0 0 1 4.4-.8Zm-.8 17c1.1 0 2.1-.3 3-.9.7-.6 1.1-1.4 1.1-2.4v-1.4c0-.1 0-.2-.2-.2h-2.9c-1.2 0-2.1.2-2.8.7-.7.4-1 1-1 1.9 0 .7.2 1.3.8 1.7.5.4 1.1.6 2 .6ZM393 717c-.3 0-.4-.1-.5-.4l-6.4-19.6v-.2c0-.3 0-.4.4-.4h5.1c.3 0 .5.1.6.4l3.3 12.1.1.1h.1l3.3-12.2c0-.3.3-.4.6-.4h5.1l.4.2v.4l-6.3 19.6c-.1.3-.3.4-.6.4h-5.2Zm32-12.4v3.4c0 .3-.1.5-.4.5h-12.4c-.2 0-.2 0-.2.2l.5 1.6c.7 1.5 2.1 2.2 4.2 2.2 1.7 0 3-.7 4-2l.4-.3c.1 0 .2 0 .3.2l2.9 2.8.2.4-.2.3c-.8 1-2 2-3.4 2.5-1.4.6-2.9 1-4.5 1-2.3 0-4.3-.6-5.9-1.6a8.7 8.7 0 0 1-3.4-4.4c-.5-1.3-.8-3-.8-5.2 0-1.5.2-2.8.6-4a8.8 8.8 0 0 1 3.2-4.4 9 9 0 0 1 5.5-1.7c2.6 0 4.8.8 6.4 2.3 1.6 1.5 2.6 3.6 3 6.2Zm-9.4-3.6c-1.7 0-2.8.7-3.3 2.3l-.3 1.3c0 .1 0 .2.2.2h7s.1 0 0-.2l-.1-1.1c-.3-.8-.7-1.4-1.3-1.9-.6-.4-1.3-.6-2.2-.6Zm22 16.3c-2.1 0-4-.5-5.6-1.6a8.8 8.8 0 0 1-3.3-4.4c-.4-1.3-.7-2.9-.7-4.7 0-1.8.3-3.3.7-4.6a8.3 8.3 0 0 1 3.3-4.3c1.6-1 3.5-1.6 5.6-1.6 2.1 0 4 .6 5.6 1.6a7.6 7.6 0 0 1 3.6 5.5c0 .3-.2.5-.4.5l-4.6.7h-.1c-.3 0-.4-.1-.5-.4l-.1-.6a3 3 0 0 0-1.3-1.8c-.6-.4-1.4-.6-2.2-.6-.9 0-1.6.2-2.2.6-.6.4-1 1-1.2 1.8-.3.8-.5 1.9-.5 3.2 0 1.4.2 2.5.4 3.3.3.8.7 1.4 1.3 1.9.6.5 1.3.7 2.2.7.8 0 1.5-.2 2.1-.7.7-.4 1.1-1 1.3-1.8v-.2l.1-.2c0-.3.2-.4.6-.4l4.6.8c.3 0 .4.2.4.4s0 .6-.3 1.2a7.4 7.4 0 0 1-3.2 4.2c-1.6 1-3.5 1.5-5.6 1.5Zm32.5-20.4v-.3l.4-.2h4.7c.2 0 .3 0 .3.2l.2.3v19.6c0 .2 0 .3-.2.4l-.3.1h-4.7l-.3-.1-.1-.4v-1.3l-.1-.2-.2.1c-1 1.5-2.7 2.2-5 2.2a7 7 0 0 1-5-1.9c-1.2-1.2-1.9-3-1.9-5.1v-13.4l.1-.3.4-.2h4.6c.2 0 .3 0 .3.2l.2.3v12c0 1 .3 2 .8 2.6a3 3 0 0 0 2.4 1c1 0 1.7-.3 2.3-.8.6-.6 1-1.3 1-2.2V697Zm20.5-.8a7 7 0 0 1 5.1 2c1.3 1.3 2 3 2 5.3v13.1c0 .2 0 .3-.2.4l-.3.1h-4.7l-.3-.1-.1-.4v-12c0-1-.4-1.9-1-2.5a3 3 0 0 0-2.3-1c-1 0-1.8.3-2.4 1-.6.6-.9 1.5-.9 2.6v12s0 .2-.2.3l-.3.1h-4.7l-.3-.1-.1-.4V696.6l.4-.2h4.7c.1 0 .3 0 .3.2l.2.3V698.5h.2c1-1.6 2.7-2.4 4.9-2.4Zm13.8 12.5c-1 0-1.7-.3-2.3-1-.6-.5-.9-1.3-.9-2.2 0-1 .3-1.7.9-2.3a3 3 0 0 1 2.3-.9c.9 0 1.7.3 2.3 1 .5.5.8 1.3.8 2.2a3.1 3.1 0 0 1-3.1 3.2Zm25-4c.1 1 .2 2.1.1 3.4 0 .3-.2.5-.5.5h-12.4c-.1 0-.2 0-.1.2 0 .5.2 1 .4 1.6.7 1.5 2.1 2.2 4.2 2.2 1.8 0 3.1-.7 4-2l.4-.3c.1 0 .2 0 .3.2l2.9 2.8.2.4-.2.3c-.8 1-2 2-3.4 2.5-1.3.6-2.9 1-4.5 1-2.3 0-4.3-.6-5.9-1.6a8.7 8.7 0 0 1-3.4-4.4c-.5-1.3-.8-3-.8-5.2 0-1.5.2-2.8.6-4a8.8 8.8 0 0 1 3.2-4.4 9 9 0 0 1 5.5-1.7c2.7 0 4.8.8 6.4 2.3 1.6 1.5 2.6 3.6 3 6.2ZM520 701c-1.7 0-2.8.7-3.3 2.3l-.3 1.3c0 .1 0 .2.2.2h7c.1 0 .2 0 .1-.2l-.2-1.1a3.5 3.5 0 0 0-3.5-2.5Zm-211.4 54.3c-2.1 0-4-.5-5.5-1.6a8.8 8.8 0 0 1-3.4-4.4c-.4-1.3-.6-2.9-.6-4.7 0-1.8.2-3.3.6-4.6a8.3 8.3 0 0 1 3.4-4.3c1.5-1 3.4-1.6 5.5-1.6 2.2 0 4 .6 5.6 1.6a7.7 7.7 0 0 1 3.6 5.5c0 .3-.2.5-.4.5l-4.6.7h-.1c-.2 0-.4-.1-.5-.4l-.1-.6a3 3 0 0 0-1.2-1.8c-.7-.4-1.4-.6-2.3-.6-.9 0-1.6.2-2.2.6-.6.4-1 1-1.2 1.8-.3.8-.5 1.9-.5 3.2 0 1.4.2 2.5.4 3.3.3.8.7 1.4 1.3 1.9.6.5 1.3.7 2.2.7.8 0 1.5-.2 2.1-.7.7-.4 1.1-1 1.4-1.8v-.4c0-.3.3-.4.6-.4l4.6.8c.3 0 .4.2.4.4l-.2 1.2a7.4 7.4 0 0 1-3.3 4.2c-1.6 1-3.5 1.5-5.6 1.5Zm23.2-21.2a7 7 0 0 1 5.1 2c1.4 1.3 2 3 2 5.3v13.1c0 .2 0 .3-.2.4l-.3.1h-4.7l-.3-.1-.1-.4v-12c0-1-.3-1.9-1-2.5a3 3 0 0 0-2.3-1c-1 0-1.8.3-2.4 1-.6.6-.9 1.5-.9 2.6v12s0 .2-.2.3l-.3.1h-4.7l-.3-.1-.1-.4v-27.3l.4-.2h4.7c.2 0 .3 0 .3.2.2 0 .2.1.2.3v9h.2c1.1-1.6 2.7-2.4 4.9-2.4Zm29.2 8.5c.2 1 .2 2.1.2 3.4 0 .3-.2.5-.5.5h-12.4c-.2 0-.2 0-.2.2l.5 1.6c.7 1.5 2 2.2 4.2 2.2 1.7 0 3-.7 4-2l.4-.3c.1 0 .2 0 .3.2l2.9 2.8.2.4-.2.3c-.9 1-2 2-3.4 2.5-1.4.6-2.9 1-4.5 1-2.3 0-4.3-.6-5.9-1.6a8.7 8.7 0 0 1-3.4-4.4c-.5-1.3-.8-3-.8-5.2 0-1.5.2-2.8.6-4a8.8 8.8 0 0 1 3.2-4.4 9 9 0 0 1 5.5-1.7c2.6 0 4.8.8 6.4 2.3 1.6 1.5 2.6 3.6 3 6.2Zm-9.3-3.6c-1.7 0-2.8.7-3.3 2.3l-.3 1.3c0 .1 0 .2.2.2h7s.1 0 0-.2l-.1-1.1c-.3-.8-.7-1.4-1.3-1.9-.6-.4-1.3-.6-2.2-.6Zm23.2-4.8c1 0 1.7.1 2.3.5.2.1.3.3.2.6l-.8 4.6c0 .3-.2.4-.6.3-.4-.2-.8-.2-1.4-.2h-.9c-1 .1-1.7.5-2.4 1.1-.7.6-1 1.5-1 2.5v11s0 .2-.2.3l-.3.1h-4.7l-.3-.1-.1-.4V734.6l.4-.2h4.7c.2 0 .3 0 .3.2l.2.3v1.7h.2a5 5 0 0 1 4.4-2.4Zm13.6 21.1c-2.1 0-4-.5-5.6-1.6a8.8 8.8 0 0 1-3.3-4.4c-.4-1.3-.7-2.9-.7-4.7 0-1.8.3-3.3.7-4.6a8.3 8.3 0 0 1 3.3-4.3c1.6-1 3.5-1.6 5.6-1.6 2.1 0 4 .6 5.6 1.6a7.6 7.6 0 0 1 3.6 5.5c0 .3-.2.5-.4.5l-4.6.7h-.1c-.3 0-.4-.1-.5-.4l-.1-.6a3 3 0 0 0-1.3-1.8c-.6-.4-1.4-.6-2.2-.6-.9 0-1.6.2-2.2.6-.6.4-1 1-1.2 1.8-.3.8-.5 1.9-.5 3.2 0 1.4.2 2.5.4 3.3.3.8.7 1.4 1.3 1.9.6.5 1.3.7 2.2.7.8 0 1.5-.2 2.1-.7.7-.4 1.1-1 1.3-1.8v-.2l.1-.2c0-.3.2-.4.6-.4l4.6.8c.3 0 .4.2.4.4l-.3 1.2a7.4 7.4 0 0 1-3.2 4.2c-1.6 1-3.5 1.5-5.6 1.5Zm23.2-21.2a7 7 0 0 1 5.1 2c1.3 1.3 2 3 2 5.3v13.1c0 .2 0 .3-.2.4l-.3.1h-4.7l-.3-.1-.2-.4v-12c0-1-.3-1.9-.9-2.5a3 3 0 0 0-2.3-1c-1 0-1.8.3-2.4 1-.6.6-1 1.5-1 2.6v12.3l-.4.1h-4.7l-.3-.1-.2-.4v-27c0-.2 0-.3.2-.3l.3-.2h4.7c.1 0 .2 0 .3.2.1 0 .2.1.2.3v9h.2c1-1.6 2.7-2.4 4.9-2.4Zm29.2 8.5c.2 1 .2 2.1.2 3.4 0 .3-.2.5-.6.5h-12.3c-.2 0-.2 0-.2.2l.5 1.6c.7 1.5 2 2.2 4.2 2.2 1.7 0 3-.7 4-2l.4-.3s.2 0 .3.2l2.9 2.8.2.4-.2.3c-.9 1-2 2-3.4 2.5-1.4.6-2.9 1-4.6 1-2.2 0-4.2-.6-5.8-1.6a8.7 8.7 0 0 1-3.4-4.4c-.6-1.3-.8-3-.8-5.2 0-1.5.2-2.8.6-4a8.8 8.8 0 0 1 3.2-4.4 9 9 0 0 1 5.4-1.7c2.7 0 4.8.8 6.4 2.3 1.7 1.5 2.7 3.6 3 6.2Zm-9.3-3.6c-1.7 0-2.8.7-3.3 2.3l-.3 1.3c0 .1 0 .2.2.2h7s.1 0 0-.2l-.1-1.1c-.3-.8-.7-1.4-1.3-1.9-.6-.4-1.3-.6-2.2-.6Zm25-4v-.4l.4-.2h4.7c.1 0 .2 0 .3.2l.2.3v19.6c0 .2 0 .3-.2.4l-.3.1h-4.7l-.3-.1-.2-.4V753l-.2.1c-1 1.5-2.7 2.2-5 2.2a7 7 0 0 1-5-1.9c-1.3-1.2-2-3-2-5.1v-13.4l.2-.3.4-.2h4.6c.1 0 .2 0 .3.2l.2.3v12c0 1 .3 2 .8 2.6a3 3 0 0 0 2.4 1c1 0 1.7-.3 2.3-.8.5-.6 1-1.3 1-2.2V735Zm20-.8c1 0 1.7.1 2.3.5.2.1.3.3.2.6l-.8 4.6c0 .3-.3.4-.6.3-.4-.2-.9-.2-1.4-.2h-.9c-1 .1-1.8.5-2.4 1.1-.7.6-1 1.5-1 2.5v11s0 .2-.2.3l-.3.1h-4.7l-.3-.1-.2-.4V735c0-.1 0-.2.2-.3l.3-.2h4.7c.1 0 .2 0 .3.2l.2.3v1.7h.2a5 5 0 0 1 4.4-2.4Zm7.7 12.4c-1 0-1.7-.3-2.3-1-.6-.5-.9-1.3-.9-2.2 0-1 .3-1.7 1-2.3a3 3 0 0 1 2.2-.9c1 0 1.7.3 2.3 1 .6.5.9 1.3.9 2.2a3.1 3.1 0 0 1-3.2 3.2Zm15 8.7c-1.8 0-3.4-.3-4.7-.8a7.3 7.3 0 0 1-3.1-2.1c-.8-1-1.1-2-1.1-3v-.5l.1-.3.4-.2h4.4c.1 0 .2 0 .3.2l.2.3c0 .6.3 1.2 1 1.6.6.4 1.4.6 2.4.6s1.7-.2 2.2-.5c.6-.4.9-.9.9-1.4 0-.5-.3-.8-.8-1-.4-.3-1.2-.6-2.3-.8a23.8 23.8 0 0 1-7-3.1c-1-.9-1.6-2.1-1.6-3.7 0-2 .8-3.5 2.3-4.7a9.9 9.9 0 0 1 6.1-1.7c1.7 0 3.2.2 4.5.8 1.3.5 2.3 1.3 3 2.3.7 1 1 2 1 3.3l-.1.4-.3.1h-4.3l-.4-.1v-.4c0-.5-.4-1-1-1.4-.6-.4-1.4-.6-2.4-.6-.9 0-1.6.1-2.1.4-.6.4-.9.8-.9 1.4 0 .5.3.9.8 1.2l2.8.8a80.9 80.9 0 0 1 2.2.6 13 13 0 0 1 4.5 2.2c1 .8 1.6 2.1 1.6 3.8 0 2-.8 3.5-2.4 4.6-1.5 1.1-3.6 1.7-6.2 1.7Zm30-12.7c.2 1 .3 2.1.2 3.4 0 .3-.2.5-.5.5h-12.4c-.1 0-.2 0-.1.2 0 .5.2 1 .4 1.6.7 1.5 2.1 2.2 4.2 2.2 1.8 0 3.1-.7 4-2l.4-.3c.1 0 .2 0 .3.2l2.9 2.8.2.4-.2.3c-.8 1-2 2-3.4 2.5-1.3.6-2.9 1-4.5 1-2.3 0-4.3-.6-5.9-1.6a8.7 8.7 0 0 1-3.4-4.4c-.5-1.3-.8-3-.8-5.2 0-1.5.2-2.8.6-4a8.8 8.8 0 0 1 3.2-4.4 9 9 0 0 1 5.5-1.7c2.7 0 4.8.8 6.4 2.3 1.6 1.5 2.6 3.6 3 6.2Zm-9.3-3.6c-1.7 0-2.8.7-3.3 2.3l-.3 1.3c0 .1 0 .2.2.2h7c.1 0 .2 0 .1-.2l-.2-1.1a3.5 3.5 0 0 0-3.5-2.5Z"/></g><defs><clipPath id="a"><use xlink:href="#reuse-0"/></clipPath><clipPath id="b"><path fill="#fff" d="M0 0H12V12H0z" transform="translate(59 790)"/></clipPath></defs></svg>