<svg xmlns="http://www.w3.org/2000/svg" xmlns:xlink="http://www.w3.org/1999/xlink" width="595" height="842" fill="none" viewBox="0 0 595 842"><defs><path id="reuse-0" fill="#fff" d="M0 0H595V842H0z"/></defs><g clip-path="url(#a)"><use xlink:href="#reuse-0"/><use xlink:href="#reuse-0"/><path fill="#E13C2E" d="M519 796.5H528V797.5H519z" transform="rotate(180 519 796.5)"/><path fill="#1E3446" d="M510 796.5H562V797.5H510z" transform="rotate(180 510 796.5)"/><path fill="#1E3446" d="M523.5 798.7h2.7v.1l.1.1v1.1h-4.6l-.1-.1v-1a26 26 0 0 0 3.2-4c0-.2-.1-.4-.3-.5a1 1 0 0 0-.6-.3 1 1 0 0 0-.7.3l-.2.6v.2l-.1.1h-1.3v-.6c0-.3 0-.6.3-1l.8-.6a3 3 0 0 1 1.2-.2c.4 0 .9.1 1.2.3.4.2.6.4.8.7.2.3.3.6.3 1 0 .3 0 .6-.2.9l-.6 1-.7.7-1 1-.2.2Zm7.9-2 .2 1c0 .4 0 .7-.2 1a2 2 0 0 1-.8 1c-.4.3-.8.4-1.4.4-.5 0-.9-.1-1.3-.4-.4-.3-.6-.6-.8-1l-.2-.9H528.3c0 .3.1.4.2.5 0 .2.1.3.3.4l.4.2c.4 0 .7-.2.8-.5l.1-.7-.1-.8a.8.8 0 0 0-.8-.5l-.2.1-.3.2h-.2l-.5-.9v-.1l1.6-1.4h-2.4l-.1-.1V793h4.3V794.4l-1.3 1.2c.6.1 1 .5 1.3 1Z"/><path fill="#D6C9C0" d="M513.3 90.1c0 3.8-.8 7.1-2.3 10a16 16 0 0 1-6.7 6.6c-2.8 1.6-6 2.4-9.7 2.4a18 18 0 0 1-9.5-2.5 16.6 16.6 0 0 1-6.5-6.9 22 22 0 0 1-2.2-10.1V77.4c0-.3-.2-.5-.4-.5h-22a1 1 0 0 1-.7-.3 1 1 0 0 1-.3-.7V66c0-.3 0-.6.3-.8.2-.2.4-.3.7-.3h58.3c.2 0 .5.1.6.3.3.2.4.5.4.7v24.3ZM486 88.3a9 9 0 0 0 2.2 6.4 8 8 0 0 0 6 2.4c2.6 0 4.6-.8 6.2-2.4a8.8 8.8 0 0 0 2.3-6.4v-11c0-.2-.1-.4-.4-.4h-15.9c-.2 0-.4.2-.4.5v10.9Zm-33.8 40.2c0-4.8 1.3-9 3.8-12.4 2.5-3.4 6-5.8 10.3-7a31.9 31.9 0 0 1 17.9 0c4.2 1.3 7.6 3.7 10 7a21 21 0 0 1 3.6 12.5 20 20 0 0 1-3.6 12 18.8 18.8 0 0 1-10 7 29.5 29.5 0 0 1-17.6.2c-4.5-1.2-8-3.6-10.6-7a20 20 0 0 1-3.8-12.3Zm10.4 0a7 7 0 0 0 1.7 4.8 9.6 9.6 0 0 0 4.8 2.8c1.8.5 3.8.7 6 .7 2.4 0 4.4-.2 6-.7 2-.6 3.6-1.6 4.7-2.9 1-1.3 1.6-3 1.6-4.8 0-2-.6-3.6-1.6-4.9a9.3 9.3 0 0 0-4.6-2.8c-1.4-.4-3.4-.6-6.1-.6-2.6 0-4.6.2-6 .6-2 .5-3.6 1.5-4.8 2.8a7.5 7.5 0 0 0-1.7 5Zm35.1 46c0 2.1-.4 3.8-1.2 5-.2.4-.7.6-1.3.5l-9.8-1.8c-.7 0-.9-.5-.6-1.2.3-.9.4-1.9.4-3l-.1-2c-.2-2-1-3.8-2.4-5.2a6.9 6.9 0 0 0-5.3-2.1H454a1 1 0 0 1-.7-.4 1 1 0 0 1-.3-.7v-10c0-.3 0-.6.3-.8.2-.2.4-.3.7-.3h42.2c.3 0 .5.1.7.3.2.2.3.5.3.8v10c0 .3-.1.5-.3.7-.2.2-.4.4-.7.4h-3.3l-.3.1v.3a11 11 0 0 1 5.2 9.5Zm-9.3 32.5a1 1 0 0 1-.8-.3 1 1 0 0 1-.2-.7v-8.3c0-.2-.2-.4-.4-.4h-18.3c-1.9 0-3.3.4-4.2 1.1-1 .8-1.4 2.1-1.4 3.8v2.9c0 .2 0 .5-.3.6-.2.3-.4.4-.7.4H454c-.6 0-1-.4-1-1l-.3-5.2c0-4.8.8-8.3 2.4-10.7 1.6-2.3 4.6-3.5 9-3.6h23c.2 0 .4-.1.4-.4v-5c0-.2 0-.5.2-.7.3-.2.5-.2.8-.2h7.7c.3 0 .5 0 .7.2.2.2.3.5.3.8v4.9c0 .3.1.4.4.4H508c.3 0 .5.1.7.3.2.2.3.5.3.8v9.6c0 .3-.1.5-.3.7-.2.2-.4.3-.7.3h-10.3c-.3 0-.4.2-.4.4v8.3c0 .3-.1.5-.3.7-.2.2-.4.3-.7.3h-7.7Zm9.3 25c0 2.1-.4 3.7-1.2 5-.2.4-.7.6-1.3.5l-9.8-1.8c-.7-.1-.9-.5-.6-1.2.3-.9.4-2 .4-3l-.1-2c-.2-2-1-3.8-2.4-5.2a6.9 6.9 0 0 0-5.3-2.1H454a1 1 0 0 1-.7-.4 1 1 0 0 1-.3-.7v-10c0-.3 0-.6.3-.8.2-.2.4-.3.7-.3h42.2c.3 0 .5.1.7.3.2.2.3.5.3.8v10c0 .3-.1.5-.3.7-.2.2-.4.4-.7.4h-3.3l-.3.1v.3a11 11 0 0 1 5.2 9.5Zm0 23.8c0 3.7-.6 7-1.9 10-1.2 2.9-3 5.1-5.2 6.8a12.2 12.2 0 0 1-7.5 2.4H454a1 1 0 0 1-.7-.3 1 1 0 0 1-.3-.7v-10c0-.3 0-.6.3-.8.2-.2.4-.3.7-.3h2.9c.1 0 .3 0 .3-.2 0 0 0-.2-.2-.3-3.1-2.4-4.7-6.3-4.7-11.6 0-4.5 1.1-8 3.3-10.8 2.2-2.8 5.4-4.2 9.6-4.2 4.4 0 7.8 1.6 10.2 4.7 2.5 3 3.7 7.5 3.7 13.2v8.8c0 .3.2.4.5.4h1.9c1.9 0 3.3-.6 4.4-1.7 1-1.1 1.6-2.9 1.6-5.2 0-1.7-.3-3.2-1-4.4a4.4 4.4 0 0 0-2.6-2.3c-.7-.1-1-.5-.9-1l1.4-10.5c.1-.7.4-1 .8-1 2.4.3 4.6 1.2 6.5 2.9 2 1.7 3.5 4 4.6 6.7 1 2.8 1.6 6 1.6 9.4Zm-36.5-1.7c0 2.4.7 4.5 2 6.2 1.3 1.8 3 2.6 5 2.6h3.2c.3 0 .4-.1.4-.4v-6.2a11 11 0 0 0-1.4-6.1 4.7 4.7 0 0 0-4.2-2.2c-1.5 0-2.8.6-3.7 1.7-.8 1-1.3 2.5-1.3 4.4Zm40.9 31.7c0-2 .6-3.6 1.9-4.9 1.3-1.2 3-1.9 4.9-1.9a6.6 6.6 0 0 1 6.8 6.8 6.6 6.6 0 0 1-6.8 6.8 6.7 6.7 0 0 1-6.8-6.8Zm-49.2-5.1c0-.3 0-.6.3-.8.2-.2.4-.3.7-.3h42.3c.2 0 .5.1.6.3.3.2.4.5.4.8v10c0 .3-.1.5-.4.7-.1.2-.4.4-.6.4H454a1 1 0 0 1-.7-.4 1 1 0 0 1-.3-.7v-10Zm35.5 41.6a1 1 0 0 1-.8-.4 1 1 0 0 1-.2-.7V313c0-.3-.2-.4-.4-.4h-18.3c-1.9 0-3.3.3-4.2 1-1 .9-1.4 2.1-1.4 3.9v2.8c0 .3 0 .5-.3.7-.2.2-.4.3-.7.3H454c-.6 0-1-.3-1-1l-.3-5.2c0-4.7.8-8.3 2.4-10.6 1.6-2.4 4.6-3.6 9-3.6h23c.2 0 .4-.2.4-.5v-4.9c0-.3 0-.5.2-.7.3-.2.5-.3.8-.3h7.7c.3 0 .5 0 .7.3.2.2.3.4.3.7v5c0 .2.1.4.4.4H508c.3 0 .5 0 .7.2.2.3.3.5.3.8v9.6c0 .3-.1.5-.3.7-.2.2-.4.4-.7.4h-10.3c-.3 0-.4.1-.4.4v8.2c0 .3-.1.6-.3.7-.2.3-.4.4-.7.4h-7.7Zm-36.1 20.6c0-3.8.5-7.2 1.6-10 1.1-3 2.6-5.2 4.6-6.8 2-1.5 4.1-2.3 6.6-2.3h.9c.3 0 .5.1.7.3.2.2.3.5.3.7v9.6c0 .3-.1.5-.3.7-.2.2-.4.3-.7.3h-.1c-1.3 0-2.4.7-3.3 2-.8 1.5-1.3 3.3-1.3 5.4 0 2 .4 3.5 1.1 4.8.8 1.2 1.8 1.8 3 1.8 1 0 1.8-.6 2.3-1.6.5-1 1-2.7 1.6-5a51 51 0 0 1 6.6-15.2c1.9-2.2 4.5-3.3 8-3.3a12 12 0 0 1 10 5c2.5 3.3 3.8 7.6 3.8 13 0 3.8-.6 7-1.8 9.7a14.2 14.2 0 0 1-4.9 6.4 12 12 0 0 1-7.2 2.3 1 1 0 0 1-.8-.3 1 1 0 0 1-.3-.7v-9.2c0-.3.1-.6.3-.8.2-.2.5-.3.8-.3 1.2 0 2.3-.6 3.2-2 .8-1.2 1.2-2.9 1.2-5 0-1.9-.3-3.4-1-4.7-.7-1.2-1.6-1.8-2.8-1.8-1.2 0-2 .6-2.6 1.8-.6 1.2-1.2 3.1-1.8 5.9a194.5 194.5 0 0 1-1.3 4.7 28 28 0 0 1-4.6 9.7c-2 2.3-4.7 3.5-8.3 3.5-4.2 0-7.6-1.7-10-5a23 23 0 0 1-3.5-13.6Zm59.8 61.6c.3 0 .5 0 .7.3.2.2.3.4.3.7v10c0 .4-.1.6-.3.8-.2.2-.4.3-.7.3H454a1 1 0 0 1-.7-.3 1 1 0 0 1-.3-.7v-10c0-.4 0-.6.3-.8.2-.2.4-.3.7-.3h2.9c.1 0 .2 0 .2-.2v-.3a11.8 11.8 0 0 1-4.8-10c0-4 1.1-7.4 3.4-10.3 2.2-2.9 5.3-5 9.2-6.2 3-1 6.4-1.5 10.4-1.5s7.6.5 10.6 1.6a17 17 0 0 1 12 16.8c0 4-1.4 7.3-4.3 9.6-.2.1-.2.2-.2.3l.4.2h18.4Zm-45.8-1.8c2.1 1.1 5 1.7 8.7 1.7a18 18 0 0 0 9-1.9 6.3 6.3 0 0 0 3.4-5.7c0-2.7-1.1-4.8-3.4-6.2a16.8 16.8 0 0 0-9-2.1c-3.5 0-6.4.6-8.7 1.8a7 7 0 0 0-3.7 6.4c0 2.6 1.3 4.6 3.7 6Zm13.3 57.9c-2.2.3-4.7.5-7.3.3-.7 0-1-.4-1-1v-26.6c0-.4-.2-.5-.5-.4-1.2.2-2.3.5-3.5 1-3.2 1.4-4.8 4.5-4.8 9 0 3.7 1.6 6.6 4.5 8.8.3.2.5.4.5.7l-.3.6-6.1 6.2c-.3.3-.6.5-.8.5l-.7-.4a19.1 19.1 0 0 1-5.5-7.3 25 25 0 0 1-1.9-9.8c0-5 1.1-9.1 3.4-12.6 2.2-3.3 5.3-5.8 9.3-7.3 3-1.2 6.7-1.8 11.3-1.8 3.2 0 6 .5 8.3 1.3a19 19 0 0 1 9.8 6.9c2.4 3.3 3.6 7.2 3.6 11.8a19 19 0 0 1-5 13.7 21.7 21.7 0 0 1-13.3 6.4Zm7.8-20c0-3.6-1.7-6-5-7.2l-2.8-.6c-.3 0-.5.2-.5.5V448c0 .4.2.5.5.4l2.4-.5c1.7-.5 3-1.4 4-2.7.9-1.3 1.4-2.8 1.4-4.7ZM432.8 86.5c0 2-.4 3.7-1.2 4.9-.2.4-.7.6-1.3.5l-9.8-1.8c-.7 0-.9-.5-.6-1.2.3-.9.4-1.9.4-3l-.1-2c-.2-2-1-3.7-2.4-5.2a6.9 6.9 0 0 0-5.3-2.1H389a1 1 0 0 1-.7-.3 1 1 0 0 1-.3-.7V65.5c0-.3 0-.5.3-.8l.7-.2h42.2c.3 0 .5 0 .7.2.2.3.3.5.3.8v10c0 .4-.1.6-.3.8-.2.2-.4.3-.7.3h-3.3c-.2 0-.3 0-.3.2-.1 0 0 .2 0 .2a11 11 0 0 1 5.2 9.5ZM414.7 131c-2.2.4-4.7.5-7.3.4-.7 0-1-.5-1-1.1v-26.6c0-.4-.2-.5-.5-.4-1.2.2-2.3.5-3.5 1-3.2 1.5-4.8 4.5-4.8 9.1 0 3.7 1.6 6.6 4.5 8.7.3.2.5.5.5.8l-.3.6-6.1 6.2-.8.4-.7-.4a19.1 19.1 0 0 1-5.5-7.3 25 25 0 0 1-1.9-9.8c0-4.9 1.1-9 3.4-12.5 2.2-3.4 5.3-5.8 9.3-7.3 3-1.2 6.7-1.8 11.3-1.8 3.2 0 6 .4 8.3 1.2a19 19 0 0 1 9.8 7c2.4 3.3 3.6 7.2 3.6 11.7a19 19 0 0 1-5 13.8 21.7 21.7 0 0 1-13.3 6.3Zm7.8-20c0-3.6-1.7-6-5-7.1-.8-.3-1.8-.5-2.8-.6-.3 0-.5.1-.5.4v14.9c0 .3.2.4.5.3l2.4-.4a7.5 7.5 0 0 0 5.4-7.5Zm-35.2 43c0-4.6 1.2-8.6 3.5-12 2.2-3.3 5.4-5.7 9.4-7.1 2.9-1 6.3-1.5 10.2-1.5 3.8 0 7.1.5 10 1.5 3.8 1.4 6.9 3.7 9.1 7.1 2.3 3.4 3.4 7.4 3.4 12s-1.2 8.6-3.4 12a16.4 16.4 0 0 1-11.8 7.7h-.2c-.5 0-.8-.3-1-.9l-1.4-9.9v-.1c0-.6.3-.9.8-1l1.4-.3a6.5 6.5 0 0 0 3.7-2.7c1-1.4 1.5-3 1.5-4.9a7.3 7.3 0 0 0-5.2-7.3c-1.7-.6-4-1-7-1s-5.4.3-7 .9c-1.8.5-3.1 1.4-4.1 2.7a7.7 7.7 0 0 0-1.5 4.7 8 8 0 0 0 1.4 4.6c1 1.4 2.3 2.4 4 2.9h.5l.2.2c.7 0 1 .4.9 1.2l-1.6 9.8c0 .6-.4 1-1 1l-2.5-.6a16 16 0 0 1-9-7 21.9 21.9 0 0 1-3.3-12Zm45.6 45.5a15 15 0 0 1-4.2 11 15.5 15.5 0 0 1-11.5 4.3H389a1 1 0 0 1-.7-.3 1 1 0 0 1-.3-.7v-10.1c0-.3 0-.5.3-.8l.7-.2h25.7a8 8 0 0 0 5.6-2c1.5-1.3 2.2-3 2.2-5 0-2.2-.7-4-2.2-5.2a8.1 8.1 0 0 0-5.6-2H389a1 1 0 0 1-.7-.3 1 1 0 0 1-.3-.7v-10c0-.3 0-.6.3-.8.2-.2.4-.3.7-.3h58.2c.3 0 .5.1.7.3.2.2.3.5.3.8v10c0 .3-.1.6-.3.7-.2.3-.4.4-.7.4h-19l-.4.1.1.3c3.3 2.3 5 5.8 5 10.5ZM414.7 258c-2.2.4-4.7.5-7.3.4-.7 0-1-.4-1-1.1v-26.6c0-.3-.2-.5-.5-.3-1.2.1-2.3.4-3.5.9-3.2 1.5-4.8 4.5-4.8 9.1 0 3.7 1.6 6.6 4.5 8.7.3.2.5.5.5.8l-.3.6-6.1 6.2c-.3.3-.6.4-.8.4l-.7-.3a19.1 19.1 0 0 1-5.5-7.3 25 25 0 0 1-1.9-9.9c0-4.9 1.1-9 3.4-12.5 2.2-3.4 5.3-5.8 9.3-7.3 3-1.2 6.7-1.8 11.3-1.8 3.2 0 6 .4 8.3 1.3a19 19 0 0 1 9.8 6.8c2.4 3.4 3.6 7.3 3.6 11.8a19 19 0 0 1-5 13.8 21.7 21.7 0 0 1-13.3 6.3Zm7.8-20c0-3.6-1.7-6-5-7.1-.8-.3-1.8-.5-2.8-.6-.3 0-.5.1-.5.4v14.9c0 .3.2.4.5.3l2.4-.4a7.5 7.5 0 0 0 5.4-7.5Zm10.3 45.6c0 2-.4 3.7-1.2 4.9-.2.4-.7.6-1.3.5l-9.8-1.8c-.7 0-.9-.5-.6-1.2.3-.9.4-1.9.4-3l-.1-2c-.2-2-1-3.7-2.4-5.2a6.9 6.9 0 0 0-5.3-2.1H389a1 1 0 0 1-.7-.4 1 1 0 0 1-.3-.6v-10.1c0-.3 0-.5.3-.8l.7-.2h42.2c.3 0 .5 0 .7.2.2.3.3.5.3.8v10c0 .3-.1.6-.3.7-.2.3-.4.4-.7.4h-3.3c-.2 0-.3 0-.3.2-.1 0 0 .2 0 .2a11 11 0 0 1 5.2 9.5Zm-45.5 25c0-4.7 1.2-8.6 3.5-12 2.2-3.3 5.4-5.7 9.4-7.2 2.9-1 6.3-1.4 10.2-1.4 3.8 0 7.1.5 10 1.4 3.8 1.4 6.9 3.8 9.1 7.2 2.3 3.4 3.4 7.3 3.4 12 0 4.5-1.2 8.5-3.4 12a16.4 16.4 0 0 1-11.8 7.6h-.2c-.5 0-.8-.3-1-.8l-1.4-10v-.1c0-.5.3-.9.8-1l1.4-.3a6.5 6.5 0 0 0 3.7-2.7c1-1.3 1.5-3 1.5-4.9 0-1.8-.5-3.3-1.4-4.6a7.3 7.3 0 0 0-3.8-2.7c-1.7-.6-4-1-7-1s-5.4.4-7 1c-1.8.5-3.1 1.4-4.1 2.6a7.7 7.7 0 0 0-1.5 4.7 8 8 0 0 0 1.4 4.7c1 1.4 2.3 2.3 4 2.8l.5.1.2.1c.7 0 1 .5.9 1.2l-1.6 9.9c0 .6-.4.9-1 .9l-2.5-.6a16 16 0 0 1-9-7 21.9 21.9 0 0 1-3.3-12ZM433 354a15 15 0 0 1-4.2 11.1 15.5 15.5 0 0 1-11.5 4.2H389a1 1 0 0 1-.7-.3 1 1 0 0 1-.3-.7v-10c0-.3 0-.6.3-.8.2-.2.4-.3.7-.3h25.7a8 8 0 0 0 5.6-2c1.5-1.2 2.2-3 2.2-5 0-2.2-.7-3.9-2.2-5.2a8.1 8.1 0 0 0-5.6-1.9H389a1 1 0 0 1-.7-.3 1 1 0 0 1-.3-.7v-10c0-.4 0-.6.3-.9l.7-.2h58.2c.3 0 .5 0 .7.2.2.3.3.5.3.8v10c0 .4-.1.6-.3.8-.2.2-.4.3-.7.3h-19c-.2 0-.3 0-.4.2l.1.2c3.3 2.4 5 5.9 5 10.5Zm-18.2 58.6c-2.2.3-4.7.5-7.3.3-.7 0-1-.4-1-1v-26.6c0-.4-.2-.5-.5-.4-1.2.2-2.3.5-3.5 1-3.2 1.4-4.8 4.5-4.8 9 0 3.7 1.6 6.6 4.5 8.8.3.2.5.4.5.7l-.3.6-6.1 6.2c-.3.3-.6.5-.8.5l-.7-.4a19.1 19.1 0 0 1-5.5-7.3 25 25 0 0 1-1.9-9.8c0-5 1.1-9.1 3.4-12.6 2.2-3.3 5.3-5.8 9.3-7.3 3-1.2 6.7-1.8 11.3-1.8 3.2 0 6 .5 8.3 1.3a19 19 0 0 1 9.8 6.9c2.4 3.3 3.6 7.2 3.6 11.8a19 19 0 0 1-5 13.7 21.7 21.7 0 0 1-13.3 6.4Zm7.8-20c0-3.7-1.7-6-5-7.2l-2.8-.6c-.3 0-.5.2-.5.5v14.8c0 .4.2.5.5.4l2.4-.5c1.7-.5 3-1.4 4-2.7.9-1.3 1.4-2.8 1.4-4.7Z" opacity=".6"/><path fill="#D6C9C0" d="M528 60H531V659H528z" opacity=".8"/><path fill="#1E3446" d="M145.5 689c1.8 0 3.3.3 4.6 1 1.4.8 2.4 1.8 3.1 3.1a9 9 0 0 1 1.1 4.5c0 1.7-.3 3.2-1.1 4.5a7.7 7.7 0 0 1-3.2 3c-1.4.7-3 1-4.7 1h-5.7c-.1 0-.2 0-.2.2v10.2c0 .2 0 .3-.2.4l-.3.1h-4.7l-.3-.1-.2-.4v-27c0-.2 0-.3.2-.4l.3-.1h11.3Zm-.8 12.6c1.2 0 2.2-.3 3-1 .7-.8 1-1.7 1-2.8 0-1.2-.3-2.2-1-2.9a4 4 0 0 0-3-1h-5.1l-.2.1v7.4c0 .1 0 .2.2.2h5Zm20.7 15.7c-2.3 0-4.2-.6-5.8-1.7a8.8 8.8 0 0 1-3.3-4.8c-.4-1.3-.5-2.7-.5-4.1 0-1.6.1-3 .5-4.3.6-2 1.7-3.5 3.3-4.6a9.8 9.8 0 0 1 5.8-1.7c2.2 0 4 .6 5.6 1.7 1.6 1 2.6 2.6 3.3 4.6a13.7 13.7 0 0 1 0 8.2 9 9 0 0 1-3.2 5 9.3 9.3 0 0 1-5.7 1.7Zm0-4.8c.8 0 1.6-.3 2.2-.8.6-.6 1-1.3 1.3-2.2a11.5 11.5 0 0 0 0-5.7c-.3-.9-.7-1.6-1.3-2-.7-.6-1.4-.8-2.3-.8-.9 0-1.6.2-2.3.7-.5.5-1 1.2-1.2 2.1-.3.7-.4 1.6-.4 2.9 0 1.2.1 2.1.3 2.8.3 1 .7 1.6 1.3 2.2.7.5 1.5.8 2.4.8Zm23.4-16.3c1 0 1.7.1 2.3.5.2.1.3.3.2.6l-.8 4.6c0 .3-.2.4-.6.3-.4-.2-.9-.2-1.4-.2h-.9c-1 .1-1.7.5-2.4 1.1-.7.6-1 1.5-1 2.5v11s0 .2-.2.3l-.3.1H179l-.3-.1-.2-.4V697c0-.1 0-.2.2-.3l.3-.2h4.7c.1 0 .2 0 .3.2l.2.3v1.7h.2a5 5 0 0 1 4.4-2.4Zm17.1 4.3c0 .1 0 .2-.2.3l-.3.2h-3.8c-.2 0-.2 0-.2.2v8.4c0 1 .1 1.6.5 2 .4.4 1 .6 1.8.6h1.3c.1 0 .2 0 .3.2l.2.3v3.8c0 .3-.2.5-.5.5l-2.4.1c-2.2 0-3.9-.3-5-1-1-.8-1.6-2.2-1.7-4.2v-10.7c0-.2 0-.2-.2-.2h-2.2c-.2 0-.3 0-.4-.2l-.1-.3v-3.6l.1-.3.4-.2h2.2c.2 0 .2 0 .2-.2v-4.7c0-.2 0-.3.2-.3l.3-.2h4.5c.1 0 .2 0 .3.2.1 0 .2.1.2.3v4.7c0 .2 0 .2.2.2h3.8c.1 0 .3 0 .3.2l.2.3v3.6Zm13.6-4.3c1 0 1.8.1 2.3.5.2.1.3.3.3.6l-.9 4.6c0 .3-.2.4-.5.3-.4-.2-1-.2-1.4-.2h-1c-.9.1-1.7.5-2.4 1.1-.6.6-1 1.5-1 2.5v11l-.1.3-.3.1h-4.7l-.4-.1-.1-.4V697l.1-.3.4-.2h4.7s.2 0 .3.2l.1.3v1.5l.1.2h.1a5 5 0 0 1 4.4-2.4Zm13 0c1.8 0 3.3.2 4.7.8 1.4.6 2.4 1.4 3.2 2.5.7 1 1.1 2.2 1.1 3.5v13.5l-.1.4-.4.1h-4.6l-.4-.1-.1-.4V715l-.3.1c-1 1.5-2.9 2.2-5.4 2.2-2 0-3.7-.5-5-1.5-1.3-1-2-2.5-2-4.5s.8-3.6 2.2-4.7a9.7 9.7 0 0 1 6.2-1.8h4c.2 0 .3 0 .3-.2v-.8c0-1-.3-1.6-.8-2-.5-.6-1.3-.8-2.4-.8-.8 0-1.5.1-2 .4a2 2 0 0 0-1.1 1.2c-.1.3-.3.5-.6.4l-4.8-.6c-.3 0-.5-.2-.4-.4 0-1 .5-2 1.3-3a8 8 0 0 1 3.1-2.1 12 12 0 0 1 4.4-.8Zm-.7 17c1.1 0 2-.4 2.9-1 .8-.6 1.2-1.4 1.2-2.4v-1.4c0-.1 0-.2-.2-.2h-2.9c-1.2 0-2.1.2-2.8.7-.7.4-1 1-1 1.9 0 .7.2 1.3.7 1.7.5.4 1.2.6 2 .6Zm16.7-19c-.9 0-1.6-.4-2.2-1-.6-.6-1-1.3-1-2.2 0-1 .4-1.7 1-2.3a3 3 0 0 1 2.2-.9c1 0 1.7.3 2.3.9.6.6.9 1.3.9 2.3a3.1 3.1 0 0 1-3.2 3.1Zm-2.4 22.8-.3-.1-.1-.4V696.6l.4-.2h4.7c.2 0 .3 0 .3.2.1 0 .2.1.2.3v19.6c0 .2 0 .3-.2.4l-.3.1h-4.7Zm21.4-16.5c0 .1 0 .2-.2.3 0 .1-.1.2-.3.2h-3.8c-.2 0-.2 0-.2.2v8.4c0 1 .2 1.6.5 2 .4.4 1 .6 1.8.6h1.3c.1 0 .2 0 .3.2l.2.3v3.8c0 .3-.2.5-.5.5l-2.4.1c-2.2 0-3.9-.3-5-1-1-.8-1.6-2.2-1.7-4.2v-10.7c0-.2 0-.2-.2-.2h-2.2c-.2 0-.3 0-.4-.2l-.1-.3v-3.6l.1-.3.4-.2h2.2c.2 0 .2 0 .2-.2v-4.7c0-.2 0-.3.2-.3l.3-.2h4.5c.1 0 .2 0 .3.2.1 0 .2.1.2.3v4.7c0 .2 0 .2.2.2h3.8c.2 0 .3 0 .3.2l.2.3v3.6Zm11.6 16.8c-1.8 0-3.4-.3-4.7-.8a7.3 7.3 0 0 1-3.1-2.1c-.7-1-1-2-1-3v-.8l.4-.2h4.4c.2 0 .3 0 .4.2l.1.3c0 .6.3 1.2 1 1.6.6.4 1.5.6 2.5.6.9 0 1.6-.2 2.2-.5.5-.4.8-.9.8-1.4 0-.5-.2-.8-.7-1-.5-.3-1.3-.6-2.4-.8a23.8 23.8 0 0 1-7-3.1c-1-.9-1.5-2.1-1.5-3.7 0-2 .7-3.5 2.2-4.7a9.9 9.9 0 0 1 6.2-1.7c1.7 0 3.2.2 4.4.8 1.3.5 2.3 1.3 3 2.3.7 1 1 2 1 3.3v.4l-.4.1h-4.3l-.3-.1-.2-.4c0-.5-.3-1-.9-1.4-.6-.4-1.4-.6-2.3-.6-1 0-1.6.1-2.2.4-.6.4-.8.8-.8 1.4 0 .5.2.9.8 1.2l2.7.8a86 86 0 0 1 2.2.6 13 13 0 0 1 4.5 2.2c1 .8 1.6 2.1 1.6 3.8 0 2-.8 3.5-2.3 4.6-1.6 1.1-3.7 1.7-6.3 1.7Zm32.6-27.8c0-.2 0-.3.2-.3l.3-.2h4.7c.1 0 .2 0 .3.2.1 0 .2.1.2.3v27c0 .2 0 .3-.2.4l-.3.1h-4.7l-.3-.1-.2-.4V715.1h-.2a5.5 5.5 0 0 1-4.6 2.2 7.7 7.7 0 0 1-7.7-5.8c-.5-1.4-.7-3-.7-4.9 0-1.9.2-3.5.7-5a7.9 7.9 0 0 1 7.8-5.6c2 .1 3.4.8 4.5 2.1l.2.1v-8.7Zm-.8 21.3c.5-1 .8-2.4.8-4 0-1.9-.3-3.3-.9-4.3a3 3 0 0 0-2.7-1.5c-1.2 0-2.2.5-2.8 1.5-.7 1-1 2.5-1 4.3 0 1.6.3 2.9.8 4a3.2 3.2 0 0 0 3 1.7c1.2 0 2.1-.6 2.8-1.7Zm29-6.2.1 3.4c0 .3-.2.5-.5.5H327c-.1 0-.2 0-.1.2 0 .5.2 1 .4 1.6.7 1.5 2.1 2.2 4.2 2.2 1.7 0 3-.7 4-2l.4-.3c.1 0 .2 0 .3.2l2.9 2.8.2.4-.2.3c-.8 1-2 2-3.4 2.5-1.4.6-2.9 1-4.5 1-2.3 0-4.3-.6-5.9-1.6a8.7 8.7 0 0 1-3.4-4.4c-.5-1.3-.8-3-.8-5.2 0-1.5.2-2.8.6-4a8.8 8.8 0 0 1 3.2-4.4 9 9 0 0 1 5.5-1.7c2.6 0 4.8.8 6.4 2.3 1.6 1.5 2.6 3.6 3 6.2Zm-9.4-3.6c-1.7 0-2.8.7-3.3 2.3l-.3 1.3c0 .1 0 .2.2.2h7s.1 0 0-.2l-.1-1.1a3.5 3.5 0 0 0-3.5-2.5Zm31.2-4.8c1 0 1.7.1 2.3.5.2.1.3.3.2.6l-.8 4.6c0 .3-.2.4-.6.3-.4-.2-.8-.2-1.4-.2h-.8c-1 .1-1.8.5-2.5 1.1-.6.6-1 1.5-1 2.5v11l-.1.3-.4.1H352l-.4-.1-.1-.4V697l.1-.3.4-.2h4.6c.2 0 .3 0 .4.2l.1.3v1.5l.1.2h.1a5 5 0 0 1 4.4-2.4Zm22.8 8.4c.1 1 .2 2.1.1 3.4 0 .3-.2.5-.5.5h-12.3c-.2 0-.3 0-.2.2 0 .5.2 1 .4 1.6.7 1.5 2.1 2.2 4.3 2.2 1.7 0 3-.7 4-2 .1-.2.3-.3.4-.3 0 0 .2 0 .3.2l2.8 2.8c.2.1.2.3.2.4l-.1.3c-.9 1-2 2-3.4 2.5-1.4.6-3 1-4.6 1-2.3 0-4.2-.6-5.8-1.6a8.7 8.7 0 0 1-3.4-4.4c-.6-1.3-.9-3-.9-5.2 0-1.5.2-2.8.6-4a8.8 8.8 0 0 1 3.2-4.4 9 9 0 0 1 5.5-1.7c2.7 0 4.8.8 6.4 2.3 1.6 1.5 2.6 3.6 3 6.2Zm-9.3-3.6c-1.7 0-2.8.7-3.4 2.3l-.2 1.3c0 .1 0 .2.2.2h6.9c.1 0 .2 0 .1-.2 0-.8-.2-1.1-.2-1.1-.2-.8-.6-1.4-1.2-1.9-.6-.4-1.4-.6-2.2-.6Zm22 16.3c-2.2 0-4-.5-5.6-1.6a8.8 8.8 0 0 1-3.3-4.4c-.5-1.3-.7-2.9-.7-4.7 0-1.8.2-3.3.7-4.6a8.3 8.3 0 0 1 3.3-4.3c1.6-1 3.4-1.6 5.6-1.6 2 0 4 .6 5.6 1.6a7.6 7.6 0 0 1 3.5 5.5c0 .3-.1.5-.4.5l-4.6.7c-.3 0-.5-.1-.5-.4l-.2-.6a3 3 0 0 0-1.2-1.8c-.6-.4-1.4-.6-2.3-.6-.8 0-1.6.2-2.1.6-.6.4-1 1-1.3 1.8-.3.8-.4 1.9-.4 3.2 0 1.4.1 2.5.4 3.3.2.8.6 1.4 1.2 1.9s1.4.7 2.2.7c.8 0 1.6-.2 2.2-.7.6-.4 1-1 1.3-1.8v-.4c.1-.3.3-.4.6-.4l4.6.8c.3 0 .4.2.4.4l-.2 1.2a7.4 7.4 0 0 1-3.3 4.2c-1.6 1-3.4 1.5-5.5 1.5Zm23.1-21.2a7 7 0 0 1 5.2 2c1.3 1.3 2 3 2 5.3v13.1l-.2.4-.3.1h-4.7l-.4-.1-.1-.4v-12c0-1-.3-1.9-1-2.5a3 3 0 0 0-2.3-1c-1 0-1.8.3-2.4 1-.6.6-.9 1.5-.9 2.6v12l-.1.3-.3.1H410l-.4-.1-.1-.4v-27l.1-.3.4-.2h4.7c.1 0 .2 0 .3.2l.1.3v8.8l.1.2h.1c1.1-1.6 2.8-2.4 5-2.4Zm29.3 8.5c.1 1 .2 2.1.1 3.4 0 .3-.2.5-.5.5h-12.4c-.1 0-.2 0-.1.2 0 .5.2 1 .4 1.6.7 1.5 2.1 2.2 4.3 2.2 1.7 0 3-.7 4-2 .1-.2.2-.3.4-.3l.2.2 3 2.8.1.4-.1.3c-1 1-2 2-3.4 2.5-1.4.6-3 1-4.6 1-2.3 0-4.2-.6-5.8-1.6a8.7 8.7 0 0 1-3.4-4.4c-.6-1.3-.9-3-.9-5.2 0-1.5.2-2.8.6-4a8.8 8.8 0 0 1 3.2-4.4 9 9 0 0 1 5.5-1.7c2.7 0 4.8.8 6.4 2.3a10 10 0 0 1 3 6.2Zm-9.4-3.6c-1.6 0-2.7.7-3.3 2.3l-.3 1.3.2.2h7c.1 0 .2 0 .1-.2l-.2-1.1c-.2-.8-.6-1.4-1.3-1.9-.5-.4-1.3-.6-2.2-.6Zm23.2-4.8c1 0 1.8.1 2.3.5.2.1.3.3.3.6l-.9 4.6c0 .3-.2.4-.5.3-.4-.2-1-.2-1.4-.2h-1c-.9.1-1.7.5-2.4 1.1-.6.6-1 1.5-1 2.5v11l-.1.3-.3.1h-4.7l-.4-.1-.1-.4V697l.1-.3.4-.2h4.7s.2 0 .3.2l.1.3v1.5l.1.2h.1a5 5 0 0 1 4.4-2.4Zm13.6 21.1c-2 0-4-.5-5.5-1.6a8.8 8.8 0 0 1-3.3-4.4c-.5-1.3-.7-2.9-.7-4.7 0-1.8.2-3.3.7-4.6a8.3 8.3 0 0 1 3.3-4.3c1.6-1 3.4-1.6 5.5-1.6 2.2 0 4 .6 5.6 1.6a7.6 7.6 0 0 1 3.6 5.5c0 .3-.1.5-.4.5l-4.6.7c-.3 0-.5-.1-.6-.4v-.6a3 3 0 0 0-1.3-1.8c-.7-.4-1.4-.6-2.3-.6-.9 0-1.6.2-2.2.6-.5.4-1 1-1.2 1.8-.3.8-.4 1.9-.4 3.2 0 1.4.1 2.5.4 3.3.2.8.6 1.4 1.2 1.9s1.3.7 2.2.7c.8 0 1.5-.2 2.2-.7.6-.4 1-1 1.3-1.8v-.4c0-.3.3-.4.6-.4l4.6.8c.3 0 .4.2.4.4l-.2 1.2a7.4 7.4 0 0 1-3.3 4.2c-1.6 1-3.5 1.5-5.6 1.5Zm23.2-21.2a7 7 0 0 1 5.2 2c1.3 1.3 2 3 2 5.3v13.1l-.2.4-.4.1h-4.6l-.4-.1-.1-.4v-12c0-1-.3-1.9-1-2.5a3 3 0 0 0-2.3-1c-1 0-1.8.3-2.4 1-.6.6-.9 1.5-.9 2.6v12l-.1.3-.4.1H490l-.4-.1-.1-.4v-27l.1-.3.4-.2h4.6c.2 0 .3 0 .4.2l.1.3v8.8l.1.2h.1c1.1-1.6 2.7-2.4 5-2.4Zm29.2 8.5c.2 1 .3 2.1.2 3.4 0 .3-.2.5-.5.5h-12.4c-.1 0-.2 0-.1.2 0 .5.2 1 .4 1.6.7 1.5 2.1 2.2 4.2 2.2 1.8 0 3.1-.7 4-2l.4-.3c.1 0 .2 0 .3.2l2.9 2.8.2.4-.2.3c-.8 1-2 2-3.4 2.5-1.3.6-2.9 1-4.5 1-2.3 0-4.3-.6-5.9-1.6a8.7 8.7 0 0 1-3.4-4.4c-.5-1.3-.8-3-.8-5.2 0-1.5.2-2.8.6-4a8.8 8.8 0 0 1 3.2-4.4 9 9 0 0 1 5.5-1.7c2.7 0 4.8.8 6.4 2.3 1.6 1.5 2.6 3.6 3 6.2Zm-9.3-3.6c-1.7 0-2.8.7-3.3 2.3l-.3 1.3c0 .1 0 .2.2.2h7c.1 0 .2 0 .1-.2l-.2-1.1a3.5 3.5 0 0 0-3.5-2.5Z"/></g><defs><clipPath id="a"><use xlink:href="#reuse-0"/></clipPath></defs></svg>