<svg xmlns="http://www.w3.org/2000/svg" xmlns:xlink="http://www.w3.org/1999/xlink" width="595" height="842" fill="none" viewBox="0 0 595 842"><defs><path id="reuse-0" fill="#fff" d="M0 0H595V842H0z"/></defs><g clip-path="url(#a)"><use xlink:href="#reuse-0"/><use xlink:href="#reuse-0"/><path fill="#E13C2E" d="M519 796.5H528V797.5H519z" transform="rotate(180 519 796.5)"/><path fill="#1E3446" d="M510 796.5H562V797.5H510z" transform="rotate(180 510 796.5)"/><path fill="#1E3446" d="m526 796.7.2 1c0 .4 0 .7-.2 1a2 2 0 0 1-.8 1c-.4.3-.8.4-1.4.4-.5 0-.9-.1-1.3-.4-.4-.3-.6-.6-.8-1l-.2-.9H523c0 .3.1.4.2.5l.2.4.5.2c.4 0 .7-.2.8-.5l.1-.7-.1-.8a.8.8 0 0 0-.8-.5l-.2.1-.3.2h-.2l-.6-.9v-.1l1.7-1.4h-2.4l-.1-.1V793h4.3V794.4l-1.3 1.2c.6.1 1 .5 1.3 1Zm5.4 0 .2 1c0 .4 0 .7-.2 1a2 2 0 0 1-.8 1c-.4.3-.8.4-1.4.4-.5 0-.9-.1-1.3-.4-.4-.3-.6-.6-.8-1l-.2-.9H528.3c0 .3.1.4.2.5 0 .2.1.3.3.4l.4.2c.4 0 .7-.2.8-.5l.1-.7-.1-.8a.8.8 0 0 0-.8-.5l-.2.1-.3.2h-.2l-.5-.9v-.1l1.6-1.4h-2.4l-.1-.1V793h4.3V794.4l-1.3 1.2c.6.1 1 .5 1.3 1Z"/><path fill="#D6C9C0" d="M512.5 104c.5.2.7.6.7 1.2v10c0 .3-.1.5-.3.7-.2.2-.4.3-.7.3H454a1 1 0 0 1-.7-.3 1 1 0 0 1-.3-.7v-10c0-.3 0-.6.3-.8.2-.2.4-.3.7-.3h38c.2 0 .3 0 .3-.2 0 0 0-.2-.3-.3l-14.2-9.1c-.5-.3-.7-.7-.7-1.2v-5c0-.6.2-1 .7-1.3l14.2-9.1c.2-.1.3-.2.2-.4l-.3-.1H454a1 1 0 0 1-.7-.4 1 1 0 0 1-.3-.7v-10c0-.3 0-.6.3-.8.2-.2.4-.3.7-.3h58.2c.3 0 .5.1.7.3.2.2.3.5.3.8v10c0 .6-.2 1-.7 1.2l-20 13c-.4.1-.4.3 0 .5l20 13Zm-16.3 43.4c.3 0 .5.1.7.3.2.2.3.5.3.8v10c0 .3-.1.6-.3.7-.2.3-.4.4-.7.4H454a1 1 0 0 1-.7-.4 1 1 0 0 1-.3-.7v-10c0-.3 0-.6.3-.8.2-.2.4-.3.7-.3h3l.2-.1c0-.1 0-.3-.2-.4-3-2.3-4.6-5.8-4.6-10.6 0-4.4 1.3-8 4-10.8 2.6-2.8 6.3-4.2 11-4.2h28.8c.3 0 .5 0 .7.3.2.2.3.5.3.7v10c0 .3-.1.5-.3.7-.2.2-.4.3-.7.3h-25.7c-2.3 0-4.2.6-5.6 1.9a6.5 6.5 0 0 0-2.2 5.1c0 2 .6 3.6 1.7 4.8 1.2 1.3 2.8 2 4.7 2.3h27Zm-43.8 34.4c0-3.8.5-7.2 1.6-10 1.1-2.9 2.6-5.1 4.6-6.7 2-1.6 4.1-2.3 6.6-2.3h.9c.3 0 .5 0 .7.2.2.2.3.5.3.8v9.5c0 .3-.1.5-.3.7-.2.2-.4.4-.7.4h-.1c-1.3 0-2.4.6-3.3 2-.8 1.5-1.3 3.2-1.3 5.4 0 2 .4 3.5 1.1 4.7.8 1.2 1.8 1.8 3 1.8 1 0 1.8-.5 2.3-1.6.5-1 1-2.7 1.6-5a51 51 0 0 1 6.6-15.2c1.9-2.1 4.5-3.2 8-3.2a12 12 0 0 1 10 4.9c2.5 3.3 3.8 7.7 3.8 13.1 0 3.7-.6 7-1.8 9.7a14.2 14.2 0 0 1-4.9 6.3 12 12 0 0 1-7.2 2.3 1 1 0 0 1-.8-.3 1 1 0 0 1-.3-.7v-9.2c0-.3.1-.5.3-.8l.8-.2c1.2 0 2.3-.7 3.2-2 .8-1.3 1.2-3 1.2-5s-.3-3.5-1-4.7c-.7-1.2-1.6-1.8-2.8-1.8-1.2 0-2 .5-2.6 1.7-.6 1.2-1.2 3.2-1.8 6a194.5 194.5 0 0 1-1.3 4.7 28 28 0 0 1-4.6 9.6c-2 2.3-4.7 3.5-8.3 3.5-4.2 0-7.6-1.7-10-5a23 23 0 0 1-3.5-13.6Zm27.3 60.4c-2.2.4-4.7.5-7.3.4-.7-.1-1-.5-1-1.2V215c0-.4-.2-.5-.5-.4-1.2.2-2.3.5-3.5 1-3.2 1.5-4.8 4.5-4.8 9 0 3.7 1.6 6.6 4.5 8.8.3.2.5.5.5.7l-.3.6-6.1 6.2c-.3.3-.6.5-.8.5l-.7-.4a19.1 19.1 0 0 1-5.5-7.3 25 25 0 0 1-1.9-9.8c0-5 1.1-9.1 3.4-12.6 2.2-3.3 5.3-5.8 9.3-7.3 3-1.2 6.7-1.8 11.3-1.8 3.2 0 6 .5 8.3 1.3a19 19 0 0 1 9.8 6.9c2.4 3.3 3.6 7.3 3.6 11.8a19 19 0 0 1-5 13.7 21.7 21.7 0 0 1-13.3 6.4Zm7.8-20c0-3.6-1.7-6-5-7.2l-2.8-.6c-.3 0-.5.2-.5.5v14.8c0 .4.2.5.5.4l2.4-.4a7.5 7.5 0 0 0 5.4-7.5Zm15-5c0-.4.2-.7.4-.8.2-.1.5 0 .8.1l8.7 4.6c.5.2.8.6.8 1.2v8.7c0 .4-.1.7-.4.8-.3.2-.5.1-.9 0l-8.7-6.2c-.4-.3-.7-.7-.7-1.2v-7.2Zm-22.8 67.5c-2.2.3-4.7.4-7.3.3-.7 0-1-.4-1-1v-26.7c0-.3-.2-.4-.5-.3-1.2.2-2.3.5-3.5 1-3.2 1.4-4.8 4.5-4.8 9 0 3.7 1.6 6.6 4.5 8.7.3.3.5.5.5.8l-.3.6-6.1 6.2c-.3.3-.6.4-.8.4-.1 0-.3 0-.7-.3a19.1 19.1 0 0 1-5.5-7.3 25 25 0 0 1-1.9-9.8c0-5 1.1-9.1 3.4-12.6 2.2-3.4 5.3-5.8 9.3-7.3 3-1.2 6.7-1.8 11.3-1.8 3.2 0 6 .4 8.3 1.3a19 19 0 0 1 9.8 6.9c2.4 3.3 3.6 7.2 3.6 11.8a19 19 0 0 1-5 13.7 21.7 21.7 0 0 1-13.3 6.4Zm7.8-20c0-3.7-1.7-6-5-7.2l-2.8-.6c-.3 0-.5.2-.5.4v15c0 .3.2.4.5.3l2.4-.5c1.7-.5 3-1.4 4-2.7.9-1.3 1.4-2.9 1.4-4.7Zm-35.1 40.5c0-3.8.5-7.1 1.6-10 1.1-2.9 2.6-5.1 4.6-6.7 2-1.6 4.1-2.3 6.6-2.3h.9c.3 0 .5 0 .7.2.2.2.3.5.3.8v9.5c0 .3-.1.6-.3.7-.2.3-.4.4-.7.4h-.1c-1.3 0-2.4.7-3.3 2-.8 1.5-1.3 3.2-1.3 5.4 0 2 .4 3.5 1.1 4.7.8 1.2 1.8 1.8 3 1.8 1 0 1.8-.5 2.3-1.6.5-1 1-2.7 1.6-5a51 51 0 0 1 6.6-15.2c1.9-2.1 4.5-3.2 8-3.2a12 12 0 0 1 10 4.9c2.5 3.3 3.8 7.7 3.8 13.1 0 3.7-.6 7-1.8 9.7a14.2 14.2 0 0 1-4.9 6.3 12 12 0 0 1-7.2 2.4 1 1 0 0 1-.8-.4 1 1 0 0 1-.3-.7v-9.2c0-.3.1-.5.3-.8l.8-.2c1.2 0 2.3-.7 3.2-2 .8-1.3 1.2-3 1.2-5s-.3-3.5-1-4.7c-.7-1.2-1.6-1.8-2.8-1.8-1.2 0-2 .6-2.6 1.7-.6 1.2-1.2 3.2-1.8 6a188.5 188.5 0 0 1-1.3 4.7 28 28 0 0 1-4.6 9.6c-2 2.3-4.7 3.5-8.3 3.5-4.2 0-7.6-1.7-10-5a23 23 0 0 1-3.5-13.6Zm27.3 73.3c-2.2.4-4.7.5-7.3.4-.7 0-1-.5-1-1.1v-26.6c0-.4-.2-.5-.5-.4-1.2.2-2.3.5-3.5 1-3.2 1.5-4.8 4.5-4.8 9.1 0 3.7 1.6 6.6 4.5 8.7.3.2.5.5.5.8l-.3.6-6.1 6.2-.8.4-.7-.4a19.1 19.1 0 0 1-5.5-7.3 25 25 0 0 1-1.9-9.8c0-4.9 1.1-9 3.4-12.5 2.2-3.4 5.3-5.8 9.3-7.3 3-1.2 6.7-1.8 11.3-1.8 3.2 0 6 .4 8.3 1.2a19 19 0 0 1 9.8 7c2.4 3.3 3.6 7.2 3.6 11.7a19 19 0 0 1-5 13.8 21.7 21.7 0 0 1-13.3 6.3Zm7.8-20c0-3.6-1.7-6-5-7.1-.8-.3-1.8-.5-2.8-.6-.3 0-.5.1-.5.4V366c0 .3.2.4.5.3l2.4-.4a7.5 7.5 0 0 0 5.4-7.5Zm1 48a1 1 0 0 1-.8-.4 1 1 0 0 1-.2-.7V397c0-.3-.2-.4-.4-.4h-18.3c-1.9 0-3.3.4-4.2 1.1-1 .8-1.4 2-1.4 3.8v2.8c0 .3 0 .6-.3.7-.2.3-.4.4-.7.4H454c-.6 0-1-.4-1-1l-.3-5.2c0-4.8.8-8.3 2.4-10.7 1.6-2.3 4.6-3.5 9-3.6h23c.2 0 .4-.1.4-.4v-5c0-.2 0-.5.2-.7.3-.2.5-.3.8-.3h7.7c.3 0 .5.1.7.3.2.2.3.5.3.8v4.9c0 .3.1.4.4.4H508c.3 0 .5 0 .7.3.2.2.3.4.3.7v9.7c0 .2-.1.5-.3.7-.2.2-.4.3-.7.3h-10.3c-.3 0-.4.1-.4.4v8.3c0 .3-.1.5-.3.7-.2.2-.4.3-.7.3h-7.7Zm-68.2-302.6a31 31 0 0 1-10.3 1.6c-4 0-7.5-.6-10.7-1.6a18.6 18.6 0 0 1-8.8-6.3 17 17 0 0 1-3.2-10.5c0-4.1 1.4-7.3 4.3-9.6l.2-.4-.4-.2H373a.8.8 0 0 1-.7-.3.8.8 0 0 1-.3-.7V66c0-.3.1-.6.3-.8.2-.2.4-.3.7-.3h58.2c.3 0 .5.1.7.3.2.2.3.5.3.7V76c0 .3-.1.5-.3.7-.2.2-.4.3-.7.3h-2.9l-.3.2.2.4c3.1 2.4 4.7 5.7 4.7 10 0 3.9-1.1 7.3-3.4 10.2-2.1 2.9-5.2 5-9.2 6.2Zm-19.2-13.1c2.2 1.4 5.2 2.1 9 2.1 3.7 0 6.6-.6 8.7-1.8a6.7 6.7 0 0 0 3.7-6.3c0-2.7-1.2-4.6-3.7-6-2-1.2-5-1.8-8.7-1.8-3.8 0-6.8.7-9 2a6.4 6.4 0 0 0-3.4 5.8c0 2.5 1.1 4.6 3.4 6Zm31.8 35.9c0 3.7-.7 7-2 10-1.2 2.9-3 5.1-5.2 6.8a12.2 12.2 0 0 1-7.5 2.4H389a1 1 0 0 1-.7-.3 1 1 0 0 1-.3-.7v-10c0-.3 0-.6.3-.8.2-.2.4-.3.7-.3h2.9c.1 0 .3 0 .3-.2 0 0 0-.2-.2-.3-3.1-2.4-4.7-6.3-4.7-11.6 0-4.5 1.1-8 3.3-10.8 2.2-2.8 5.4-4.2 9.6-4.2 4.4 0 7.8 1.6 10.2 4.7 2.5 3 3.7 7.5 3.7 13.2v8.8c0 .3.2.4.5.4h1.9c1.9 0 3.3-.6 4.4-1.7 1-1.1 1.6-2.9 1.6-5.2 0-1.7-.3-3.2-1-4.4a4.4 4.4 0 0 0-2.6-2.3c-.7-.1-1-.5-.9-1l1.4-10.5c.1-.7.4-1 .8-1 2.4.3 4.6 1.2 6.5 2.9 2 1.7 3.5 4 4.6 6.7 1 2.8 1.6 6 1.6 9.4Zm-36.6-1.7c0 2.4.7 4.5 2 6.2 1.3 1.8 3 2.6 5 2.6h3.2c.3 0 .4-.1.4-.4v-6.2a11 11 0 0 0-1.4-6.1 4.7 4.7 0 0 0-4.2-2.2c-1.5 0-2.8.6-3.7 1.7-.8 1-1.3 2.5-1.3 4.4Zm27.2 49.6a1 1 0 0 1-.8-.3 1 1 0 0 1-.2-.7v-8.3c0-.2-.2-.4-.4-.4h-18.3c-1.9 0-3.3.4-4.2 1.1-1 .8-1.4 2.1-1.4 3.8v2.9c0 .2 0 .5-.3.6-.2.3-.4.4-.7.4H389c-.6 0-1-.4-1-1l-.3-5.2c0-4.8.8-8.3 2.4-10.7 1.6-2.3 4.6-3.5 9-3.6h23c.2 0 .4-.1.4-.4v-5c0-.2 0-.5.2-.7.3-.2.5-.2.8-.2h7.7c.3 0 .5 0 .7.2.2.2.3.5.3.8v4.9c0 .3.1.4.4.4H443c.3 0 .5.1.7.3.2.2.3.5.3.8v9.6c0 .3-.1.5-.3.7-.2.2-.4.3-.7.3h-10.3c-.3 0-.4.2-.4.4v8.3c0 .3-.1.5-.3.7-.2.2-.4.3-.7.3h-7.7Zm9.3 25c0 2.1-.4 3.7-1.2 5-.2.4-.7.6-1.3.5l-9.8-1.8c-.7-.1-.9-.5-.6-1.2.3-.9.4-2 .4-3l-.1-2c-.2-2-1-3.8-2.4-5.2a6.9 6.9 0 0 0-5.3-2.1H389a1 1 0 0 1-.7-.4 1 1 0 0 1-.3-.7v-10c0-.3 0-.6.3-.8.2-.2.4-.3.7-.3h42.2c.3 0 .5.1.7.3.2.2.3.5.3.8v10c0 .3-.1.5-.3.7-.2.2-.4.4-.7.4h-3.3l-.3.1v.3a11 11 0 0 1 5.2 9.4Zm4.4 13.2c0-2 .6-3.6 1.9-5 1.3-1.2 3-1.8 4.9-1.8 2 0 3.6.6 4.9 1.9a6.6 6.6 0 0 1 1.9 4.9 6.6 6.6 0 0 1-6.8 6.8 6.7 6.7 0 0 1-6.8-6.8Zm-49.2-5.2c0-.3 0-.5.3-.7.2-.2.4-.3.7-.3h42.3c.2 0 .5 0 .6.3.3.2.4.4.4.7v10c0 .4-.1.6-.4.8-.1.2-.4.3-.6.3H389a1 1 0 0 1-.7-.3 1 1 0 0 1-.3-.7v-10Zm44.9 65.3c0 4.5-1.4 8-4 10.5a16 16 0 0 1-11.4 3.8H389a1 1 0 0 1-.7-.4 1 1 0 0 1-.3-.7v-10c0-.3 0-.6.3-.8.2-.2.4-.3.7-.3h25.8c2.4 0 4.2-.6 5.6-1.8a6 6 0 0 0 2-4.8c0-2-.6-3.6-2-4.9a7.8 7.8 0 0 0-5.5-1.9H389a1 1 0 0 1-.7-.3 1 1 0 0 1-.3-.7v-10c0-.3 0-.5.3-.8l.7-.2h25.8c2.3 0 4.2-.6 5.5-1.9a6.2 6.2 0 0 0 2.2-5c0-1.7-.6-3.3-1.6-4.5a7 7 0 0 0-4.6-2.2H389a1 1 0 0 1-.7-.3 1 1 0 0 1-.3-.7v-10c0-.4 0-.6.3-.9l.7-.2h42.2c.3 0 .5 0 .7.2.2.3.3.5.3.8v10c0 .4-.1.6-.3.8-.2.2-.4.3-.7.3h-3.4c-.2 0-.3 0-.3.2l.1.3c3.5 2.4 5.3 6 5.3 11 0 2.8-.6 5.3-1.8 7.4a12 12 0 0 1-5.2 5c-.3.2-.3.4 0 .6 2.4 1.3 4.1 3 5.3 5 1.1 2.3 1.7 4.7 1.7 7.4Zm-45.6 37.8c0-4.9 1.3-9 3.8-12.4 2.5-3.5 6-5.8 10.3-7a31.9 31.9 0 0 1 17.9 0c4.2 1.2 7.6 3.6 10 7a21 21 0 0 1 3.6 12.4 20 20 0 0 1-3.6 12 18.8 18.8 0 0 1-10 7.1 29.5 29.5 0 0 1-17.6.2c-4.5-1.3-8-3.6-10.6-7a20 20 0 0 1-3.8-12.3Zm10.4 0a7 7 0 0 0 1.7 4.8 9.6 9.6 0 0 0 4.8 2.8c1.8.5 3.8.7 6 .7 2.4 0 4.4-.2 6-.7 2-.6 3.6-1.6 4.7-3 1-1.2 1.6-2.8 1.6-4.7 0-2-.6-3.6-1.6-5a9.3 9.3 0 0 0-4.6-2.7c-1.4-.4-3.4-.7-6.1-.7-2.6 0-4.6.2-6 .6-2 .6-3.6 1.5-4.8 2.9a7.5 7.5 0 0 0-1.7 5Zm39.5 30.5c0-2 .6-3.5 1.9-4.9 1.3-1.2 3-1.9 4.9-1.9a6.6 6.6 0 0 1 6.8 6.8 6.6 6.6 0 0 1-6.8 6.8 6.7 6.7 0 0 1-6.8-6.8Zm-49.2-5.1c0-.3 0-.6.3-.8.2-.2.4-.3.7-.3h42.3c.2 0 .5.1.6.3.3.2.4.5.4.8v10c0 .3-.1.6-.4.7-.1.3-.4.4-.6.4H389a1 1 0 0 1-.7-.4 1 1 0 0 1-.3-.7v-10Zm44.9 39.3a15 15 0 0 1-4.2 11 15.5 15.5 0 0 1-11.5 4.3H389a1 1 0 0 1-.7-.4 1 1 0 0 1-.3-.7v-10c0-.3 0-.6.3-.8.2-.2.4-.3.7-.3h25.7a8 8 0 0 0 5.6-2c1.5-1.2 2.2-2.9 2.2-5s-.7-3.8-2.2-5.2a8.2 8.2 0 0 0-5.6-1.9H389a1 1 0 0 1-.7-.3 1 1 0 0 1-.3-.7v-10c0-.3 0-.6.3-.8.2-.2.4-.3.7-.3h42.2c.3 0 .5.1.7.3.2.2.3.5.3.8v10c0 .3-.1.5-.3.7-.2.2-.4.3-.7.3h-3l-.4.2.1.3c3.3 2.3 5 5.8 5 10.5Zm-18.2 58.5c-2.2.4-4.7.5-7.3.4-.7 0-1-.5-1-1.1v-26.6c0-.4-.2-.5-.5-.4-1.2.2-2.3.5-3.5 1-3.2 1.5-4.8 4.5-4.8 9.1 0 3.7 1.6 6.6 4.5 8.7.3.2.5.5.5.8l-.3.6-6.1 6.2-.8.4-.7-.4a19.1 19.1 0 0 1-5.5-7.3 25 25 0 0 1-1.9-9.8c0-4.9 1.1-9 3.4-12.5 2.2-3.4 5.3-5.9 9.3-7.3 3-1.2 6.7-1.8 11.3-1.8 3.2 0 6 .4 8.3 1.2a19 19 0 0 1 9.8 7c2.4 3.2 3.6 7.2 3.6 11.7a19 19 0 0 1-5 13.8 21.7 21.7 0 0 1-13.3 6.3Zm7.8-20c0-3.6-1.7-6-5-7.1-.8-.3-1.8-.5-2.8-.6-.3 0-.5.1-.5.4v14.9c0 .3.2.4.5.3l2.4-.4a7.5 7.5 0 0 0 5.4-7.5Zm-54.6-300.4c0 4.5-1.4 8-4 10.5a16 16 0 0 1-11.4 3.8H324a1 1 0 0 1-.7-.4 1 1 0 0 1-.3-.7v-10c0-.3 0-.6.3-.8.2-.2.4-.3.7-.3h25.8c2.4 0 4.2-.6 5.6-1.8a6 6 0 0 0 2-4.8c0-2-.6-3.6-2-4.9a7.8 7.8 0 0 0-5.5-1.9H324a1 1 0 0 1-.7-.3 1 1 0 0 1-.3-.7v-10c0-.3 0-.5.3-.8l.7-.2h25.8c2.3 0 4.2-.6 5.5-2a6.2 6.2 0 0 0 2.2-4.8c0-1.8-.6-3.4-1.6-4.7a7 7 0 0 0-4.6-2.1H324a1 1 0 0 1-.7-.3 1 1 0 0 1-.3-.7V65.5c0-.3 0-.5.3-.8l.7-.2h42.2c.3 0 .5 0 .7.2.2.3.3.5.3.8v10c0 .4-.1.6-.3.8-.2.2-.4.3-.7.3h-3.4c-.2 0-.3 0-.3.2l.1.3c3.5 2.4 5.3 6 5.3 11 0 2.8-.6 5.3-1.8 7.4a12 12 0 0 1-5.2 5c-.3.2-.3.4 0 .6 2.4 1.3 4.1 3 5.3 5 1.1 2.3 1.7 4.7 1.7 7.4Zm4.3 25c0-2 .6-3.6 1.9-4.9 1.3-1.2 3-1.9 4.9-1.9a6.6 6.6 0 0 1 6.8 6.8 6.6 6.6 0 0 1-6.8 6.8 6.7 6.7 0 0 1-6.8-6.8Zm-49.2-5.1c0-.3 0-.6.3-.8.2-.2.4-.3.7-.3h42.3c.2 0 .5.1.6.3.3.2.4.5.4.8v10c0 .3-.1.5-.4.7-.1.2-.4.3-.6.3H324a1 1 0 0 1-.7-.3 1 1 0 0 1-.3-.7v-10Zm43.2 43.2c.3 0 .5 0 .7.3.2.2.3.4.3.7v10.1c0 .3-.1.5-.3.7-.2.2-.4.3-.7.3H327c-7.6 0-13-2.1-16.1-6.5a27.2 27.2 0 0 1-4.8-16.7c0-2 .1-4.2.4-6.7 0-.6.4-.9 1.1-.9l8.9.4c.7 0 1 .4 1 1.2-.4 2-.6 4-.6 5.7 0 3.6.8 6.4 2.4 8.4 1.6 2 4.2 3 7.7 3 .2 0 .3 0 .3-.2v-.3c-2.4-2.2-3.6-5.4-3.6-9.6 0-3.7.9-7.1 2.7-10.3 1.8-3 4.7-5.3 8.7-6.6 2.7-.9 6-1.3 10.3-1.3 4.4 0 8 .5 10.9 1.6a16.3 16.3 0 0 1 11.6 16c0 4.5-1.3 7.8-4 10.2l-.1.3c0 .1.1.2.3.2h2Zm-27.8-.7a37.9 37.9 0 0 0 11.2.5c1 0 1.9-.3 2.7-.6a7.5 7.5 0 0 0 3.7-2.6c1-1.2 1.5-2.6 1.5-4.4 0-1.7-.5-3.2-1.5-4.4a8 8 0 0 0-3.7-2.7c-1.7-.8-4-1.2-7-1.2-3.2 0-5.4.4-6.8 1a7.8 7.8 0 0 0-3.8 2.7 8 8 0 0 0-1.4 4.7c0 1.8.5 3.3 1.4 4.5 1 1.2 2.2 2 3.7 2.5Zm29.4 39.2c0 2-.4 3.7-1.2 4.9-.2.5-.7.6-1.3.5l-9.8-1.8c-.7 0-.9-.4-.6-1.2.3-.8.4-1.9.4-3l-.1-1.9c-.2-2-1-3.8-2.4-5.2a6.9 6.9 0 0 0-5.3-2.2H324a1 1 0 0 1-.7-.3 1 1 0 0 1-.3-.7v-10c0-.4 0-.6.3-.9l.7-.2h42.2c.3 0 .5 0 .7.2.2.3.3.5.3.8v10c0 .4-.1.6-.3.8-.2.2-.4.3-.7.3h-3.3c-.2 0-.3 0-.3.2-.1.1 0 .2 0 .2a11 11 0 0 1 5.2 9.5Zm0 23.7c0 3.8-.6 7-1.9 10-1.2 3-3 5.2-5.2 6.8a12.2 12.2 0 0 1-7.5 2.5H324a1 1 0 0 1-.7-.3 1 1 0 0 1-.3-.7V247c0-.3 0-.5.3-.8l.7-.2h2.9c.1 0 .3 0 .3-.2 0-.1 0-.2-.2-.3-3.1-2.5-4.7-6.3-4.7-11.7 0-4.4 1.1-8 3.3-10.8 2.2-2.7 5.4-4.1 9.6-4.1 4.4 0 7.8 1.5 10.2 4.6 2.5 3.1 3.7 7.5 3.7 13.3v8.7c0 .3.2.5.5.5h1.9c1.9 0 3.3-.6 4.4-1.7 1-1.2 1.6-3 1.6-5.2 0-1.8-.3-3.3-1-4.5a4.4 4.4 0 0 0-2.6-2.2c-.7-.2-1-.6-.9-1.1l1.4-10.4c.1-.7.4-1 .8-1 2.4.2 4.6 1.2 6.5 2.9 2 1.7 3.5 4 4.6 6.7 1 2.8 1.6 5.9 1.6 9.3Zm-36.5-1.7c0 2.5.7 4.6 2 6.3 1.3 1.7 3 2.6 5 2.6h3.2c.3 0 .4-.2.4-.5v-6.2a11 11 0 0 0-1.4-6 4.7 4.7 0 0 0-4.2-2.2c-1.5 0-2.8.5-3.7 1.6-.8 1.1-1.3 2.6-1.3 4.4Zm27.2 49.7a1 1 0 0 1-.8-.4 1 1 0 0 1-.2-.6v-8.3c0-.3-.2-.4-.4-.4h-18.3c-1.9 0-3.3.3-4.2 1-1 .9-1.4 2.1-1.4 3.9v2.8c0 .3 0 .5-.3.7-.2.2-.4.3-.7.3H324c-.6 0-1-.3-1-1l-.3-5.2c0-4.7.8-8.3 2.4-10.6 1.6-2.4 4.6-3.6 9-3.6h23c.2 0 .4-.2.4-.5V260c0-.2 0-.5.2-.7.3-.2.5-.3.8-.3h7.7c.3 0 .5 0 .7.3.2.2.3.5.3.7v5c0 .2.1.4.4.4H378c.3 0 .5 0 .7.2.2.3.3.5.3.8v9.6c0 .3-.1.6-.3.7-.2.3-.4.4-.7.4h-10.3c-.3 0-.4.1-.4.4v8.3c0 .2-.1.5-.3.6-.2.3-.4.4-.7.4h-7.7Zm-36.2 22c0-4.9 1.3-9 3.8-12.5a19 19 0 0 1 10.3-7 32 32 0 0 1 17.9 0c4.2 1.3 7.6 3.7 10 7.1a21 21 0 0 1 3.6 12.4 20 20 0 0 1-3.6 12 18.8 18.8 0 0 1-10 7.1 29.4 29.4 0 0 1-17.6.2c-4.5-1.3-8-3.6-10.6-7a20 20 0 0 1-3.8-12.4Zm10.4 0a7 7 0 0 0 1.7 4.7 9.6 9.6 0 0 0 4.8 2.9c1.8.4 3.8.7 6 .7 2.4 0 4.4-.3 6-.7 2-.7 3.6-1.6 4.7-3 1-1.3 1.6-2.9 1.6-4.8 0-2-.6-3.6-1.6-4.9a9.3 9.3 0 0 0-4.6-2.7c-1.4-.5-3.4-.7-6.1-.7-2.6 0-4.6.2-6 .6-2 .6-3.6 1.5-4.8 2.8a7.5 7.5 0 0 0-1.7 5Zm39.5 30.5c0-2 .6-3.6 1.9-4.9 1.3-1.3 3-1.9 4.9-1.9 2 0 3.6.6 4.9 1.9a6.6 6.6 0 0 1 1.9 4.9 6.6 6.6 0 0 1-6.8 6.8 6.7 6.7 0 0 1-6.8-6.8Zm-49.2-5.2c0-.2 0-.5.3-.7.2-.2.4-.3.7-.3h42.3c.2 0 .5.1.6.3.3.2.4.5.4.7v10.1c0 .3-.1.5-.4.7-.1.2-.4.3-.6.3H324a1 1 0 0 1-.7-.3 1 1 0 0 1-.3-.7v-10Zm44.8 38.3c0 2-.4 3.7-1.2 5-.2.4-.7.5-1.3.4l-9.8-1.8c-.7 0-.9-.4-.6-1.2.3-.8.4-1.9.4-3l-.1-1.9c-.2-2-1-3.8-2.4-5.2a6.9 6.9 0 0 0-5.3-2.2H324a1 1 0 0 1-.7-.3 1 1 0 0 1-.3-.7v-10c0-.4 0-.6.3-.9l.7-.2h42.2c.3 0 .5 0 .7.2.2.3.3.5.3.8v10c0 .4-.1.6-.3.8-.2.2-.4.3-.7.3h-3.3c-.2 0-.3 0-.3.2-.1.1 0 .2 0 .2a11 11 0 0 1 5.2 9.5ZM349.7 417c-2.2.4-4.7.5-7.3.4-.7 0-1-.4-1-1.1v-26.6c0-.3-.2-.5-.5-.3-1.2.1-2.3.4-3.5.9-3.2 1.5-4.8 4.5-4.8 9.1 0 3.7 1.6 6.6 4.5 8.7.3.2.5.5.5.8l-.3.6-6.1 6.2c-.3.3-.6.4-.8.4l-.7-.3a19.1 19.1 0 0 1-5.5-7.4 25 25 0 0 1-1.9-9.8c0-4.9 1.1-9 3.4-12.5 2.2-3.4 5.3-5.8 9.3-7.3 3-1.2 6.7-1.8 11.3-1.8 3.2 0 6 .4 8.3 1.3a19 19 0 0 1 9.8 6.8c2.4 3.4 3.6 7.3 3.6 11.8a19 19 0 0 1-5 13.8 21.7 21.7 0 0 1-13.3 6.3Zm7.8-20c0-3.6-1.7-6-5-7.1-.8-.3-1.8-.5-2.8-.6-.3 0-.5.1-.5.4v14.9c0 .3.2.4.5.3l2.4-.4a7.5 7.5 0 0 0 5.4-7.5Z" opacity=".6"/><path fill="#D6C9C0" d="M528 60H531V659H528z" opacity=".8"/><path fill="#1E3446" d="M171.5 689.3c.2-.2.3-.3.6-.3h4.7s.2 0 .3.2l.1.3v27l-.1.4-.3.1H172l-.4-.1-.1-.4v-17.8l-.2.1-4.3 6.7c-.1.2-.3.3-.5.3h-2.4a.6.6 0 0 1-.6-.3l-4.2-6.7h-.2V716.5c0 .2 0 .3-.2.4l-.3.1H154l-.4-.1v-27.7l.4-.2h4.7c.2 0 .4.1.5.3l6 9.3c.1.2.2.2.3 0l6-9.3Zm22.3 7.6v-.3l.4-.2h4.7c.1 0 .3 0 .3.2l.2.3v19.6c0 .2 0 .3-.2.4l-.3.1h-4.7l-.3-.1-.1-.4v-1.3l-.1-.2-.2.1c-1 1.5-2.7 2.2-5 2.2a7 7 0 0 1-5-1.9c-1.3-1.2-2-3-2-5.1v-13.4l.2-.3.4-.2h4.6c.1 0 .3 0 .3.2l.2.3v12c0 1 .3 2 .8 2.6a3 3 0 0 0 2.4 1c1 0 1.7-.3 2.3-.8.6-.6 1-1.3 1-2.2V697Zm18 20.4c-1.8 0-3.4-.3-4.7-.8a7.3 7.3 0 0 1-3.2-2.1c-.7-1-1-2-1-3v-.8l.4-.2h4.5c.1 0 .2 0 .3.2l.2.3c0 .6.3 1.2 1 1.6.6.4 1.4.6 2.4.6s1.6-.2 2.2-.5c.6-.4.8-.9.8-1.4 0-.5-.2-.8-.7-1-.5-.3-1.2-.6-2.3-.8a23.8 23.8 0 0 1-7-3.1c-1-.9-1.6-2.1-1.6-3.7 0-2 .8-3.5 2.3-4.7a9.9 9.9 0 0 1 6.1-1.7c1.7 0 3.2.2 4.5.8 1.3.5 2.3 1.3 3 2.3.7 1 1 2 1 3.3l-.1.4-.4.1h-4.2l-.4-.1-.1-.4c0-.5-.3-1-1-1.4-.5-.4-1.3-.6-2.3-.6-.9 0-1.6.1-2.2.4-.5.4-.8.8-.8 1.4 0 .5.3.9.8 1.2l2.8.8a86 86 0 0 1 2.2.6 13 13 0 0 1 4.4 2.2c1.1.8 1.7 2.1 1.7 3.8 0 2-.8 3.5-2.4 4.6-1.5 1.1-3.6 1.7-6.3 1.7Zm30-12.7c.2 1 .2 2.1.2 3.4 0 .3-.2.5-.5.5H229c-.2 0-.2 0-.2.2l.5 1.6c.7 1.5 2 2.2 4.2 2.2 1.7 0 3-.7 4-2l.4-.3c.1 0 .2 0 .3.2l2.9 2.8.2.4-.2.3c-.9 1-2 2-3.4 2.5-1.4.6-2.9 1-4.5 1-2.3 0-4.3-.6-5.9-1.6a8.7 8.7 0 0 1-3.4-4.4c-.5-1.3-.8-3-.8-5.2 0-1.5.2-2.8.6-4a8.8 8.8 0 0 1 3.2-4.4 9 9 0 0 1 5.5-1.7c2.6 0 4.8.8 6.4 2.3 1.6 1.5 2.6 3.6 3 6.2Zm-9.3-3.6c-1.7 0-2.8.7-3.3 2.3l-.3 1.3c0 .1 0 .2.2.2h7s.1 0 0-.2l-.1-1.1c-.3-.8-.7-1.4-1.3-1.9-.6-.4-1.3-.6-2.2-.6Zm-2.3-7c-.2 0-.3 0-.4-.2v-.4l2.2-4c0-.3.3-.4.6-.4h4c.2 0 .3 0 .4.2v.4l-2.9 4c-.1.3-.3.4-.6.4h-3.3Zm33.4 10.6c.1 1 .2 2.1.1 3.4 0 .3-.2.5-.5.5H251c-.2 0-.2 0-.2.2 0 .5.2 1 .4 1.6.7 1.5 2.2 2.2 4.3 2.2 1.7 0 3-.7 4-2 .1-.2.3-.3.4-.3 0 0 .2 0 .3.2l2.8 2.8c.2.1.2.3.2.4l-.1.3c-.9 1-2 2-3.4 2.5-1.4.6-3 1-4.6 1-2.3 0-4.2-.6-5.8-1.6a8.7 8.7 0 0 1-3.4-4.4c-.6-1.3-.9-3-.9-5.2 0-1.5.2-2.8.6-4a8.8 8.8 0 0 1 3.2-4.4 9 9 0 0 1 5.5-1.7c2.7 0 4.8.8 6.4 2.3 1.7 1.5 2.6 3.6 3 6.2Zm-9.3-3.6c-1.7 0-2.8.7-3.4 2.3l-.2 1.3c0 .1 0 .2.2.2h6.9c.1 0 .2 0 .1-.2 0-.8-.2-1.1-.2-1.1-.2-.8-.6-1.4-1.2-1.9-.6-.4-1.4-.6-2.2-.6Zm20.8 16.3c-1.7 0-3.3-.3-4.6-.8a7.3 7.3 0 0 1-3.2-2.1c-.7-1-1-2-1-3v-.8l.4-.2h4.5c.1 0 .2 0 .3.2l.2.3c0 .6.3 1.2 1 1.6.6.4 1.4.6 2.4.6s1.6-.2 2.2-.5c.6-.4.8-.9.8-1.4 0-.5-.2-.8-.7-1-.5-.3-1.2-.6-2.3-.8a23.8 23.8 0 0 1-7-3.1c-1-.9-1.6-2.1-1.6-3.7 0-2 .8-3.5 2.3-4.7a9.9 9.9 0 0 1 6.1-1.7c1.7 0 3.2.2 4.5.8 1.3.5 2.3 1.3 3 2.3.7 1 1 2 1 3.3l-.1.4-.4.1h-4.2l-.4-.1-.1-.4c0-.5-.3-1-1-1.4-.5-.4-1.3-.6-2.3-.6-.9 0-1.6.1-2.2.4-.5.4-.8.8-.8 1.4 0 .5.3.9.8 1.2l2.8.8a76.2 76.2 0 0 1 2.2.6 13 13 0 0 1 4.4 2.2c1.1.8 1.7 2.1 1.7 3.8 0 2-.8 3.5-2.4 4.6-1.5 1.1-3.6 1.7-6.3 1.7Zm38.1-12.7c.2 1 .2 2.1.2 3.4 0 .3-.2.5-.5.5h-12.4c-.1 0-.2 0-.1.2 0 .5.2 1 .4 1.6.7 1.5 2.1 2.2 4.2 2.2 1.7 0 3-.7 4-2l.4-.3c.1 0 .2 0 .3.2l2.9 2.8.2.4-.2.3c-.8 1-2 2-3.4 2.5-1.4.6-2.9 1-4.5 1-2.3 0-4.3-.6-5.9-1.6a8.7 8.7 0 0 1-3.4-4.4c-.5-1.3-.8-3-.8-5.2 0-1.5.2-2.8.6-4a8.8 8.8 0 0 1 3.2-4.4 9 9 0 0 1 5.5-1.7c2.6 0 4.8.8 6.4 2.3 1.6 1.5 2.6 3.6 3 6.2ZM304 701c-1.7 0-2.8.7-3.3 2.3l-.3 1.3c0 .1 0 .2.2.2h7s.1 0 0-.2l-.1-1.1a3.5 3.5 0 0 0-3.5-2.5Zm24.3-.5c0 .1 0 .2-.2.3 0 .1-.1.2-.3.2H324c-.2 0-.2 0-.2.2v8.4c0 1 .2 1.6.5 2 .4.4 1 .6 1.8.6h1.3c.1 0 .2 0 .3.2l.2.3v3.8c0 .3-.2.5-.5.5l-2.4.1c-2.2 0-3.9-.3-5-1-1-.8-1.6-2.2-1.7-4.2v-10.7c0-.2 0-.2-.2-.2h-2.2c-.2 0-.3 0-.4-.2l-.1-.3v-3.6l.1-.3.4-.2h2.2c.2 0 .2 0 .2-.2v-4.7c0-.2 0-.3.2-.3l.3-.2h4.5c.1 0 .2 0 .3.2.1 0 .2.1.2.3v4.7c0 .2 0 .2.2.2h3.8c.2 0 .3 0 .3.2l.2.3v3.6ZM358 702c.4 1.3.7 3 .7 4.8 0 1.8-.3 3.5-.8 5a7.9 7.9 0 0 1-7.8 5.6c-1.9 0-3.4-.7-4.5-2l-.1-.2-.1.2v8.6s0 .2-.2.3l-.3.1h-4.7l-.3-.1-.1-.3v-27.4l.4-.2h4.7c.2 0 .3 0 .3.2.2 0 .2.2.2.3v1.5h.2a5.5 5.5 0 0 1 4.7-2.3c1.8 0 3.4.5 4.7 1.6 1.4 1 2.4 2.4 3 4.3Zm-6.2 9c.7-1.1 1-2.5 1-4.3 0-1.7-.2-3-.8-4a3.1 3.1 0 0 0-3-1.7 3 3 0 0 0-2.7 1.7 8 8 0 0 0-.9 4c0 1.8.3 3.2 1 4.2a3 3 0 0 0 2.6 1.6c1.2 0 2.2-.5 2.8-1.6Zm18.7-14.9c1.8 0 3.3.3 4.7 1 1.3.5 2.4 1.3 3.1 2.4.8 1 1.2 2.2 1.2 3.5v13.5c0 .2 0 .3-.2.4l-.3.1h-4.7l-.3-.1-.1-.4v-1.3l-.1-.2-.2.1c-1.1 1.5-2.9 2.2-5.4 2.2-2 0-3.7-.5-5-1.5-1.3-1-2-2.5-2-4.5s.8-3.6 2.2-4.7a9.7 9.7 0 0 1 6.2-1.8h4c.2 0 .3 0 .3-.2v-.8c0-1-.3-1.6-.8-2-.6-.6-1.4-.8-2.4-.8-.9 0-1.6.1-2.1.4a2 2 0 0 0-1 1.2c-.1.3-.3.5-.6.4l-4.8-.6c-.3 0-.5-.2-.5-.4.1-1 .6-2 1.4-3a8 8 0 0 1 3-2.1 12 12 0 0 1 4.4-.8Zm-.8 17c1.2 0 2.2-.3 3-.9.8-.6 1.2-1.4 1.2-2.4v-1.4l-.2-.2h-3c-1.1 0-2 .2-2.8.7-.6.4-1 1-1 1.9 0 .7.3 1.3.8 1.7.5.4 1.2.6 2 .6Zm25.1-12.6-.1.3-.3.2h-3.9c-.1 0-.2 0-.2.2v8.4c0 1 .2 1.6.5 2 .4.4 1 .6 1.8.6h1.3c.2 0 .3 0 .3.2l.2.3v3.8c0 .3-.2.5-.5.5l-2.4.1c-2.2 0-3.8-.3-5-1-1-.8-1.6-2.2-1.6-4.2v-10.7c0-.2 0-.2-.2-.2h-2.3c-.1 0-.3 0-.4-.2v-4.2l.4-.2h2.3c.1 0 .2 0 .2-.2v-4.7l.1-.3.4-.2h4.4c.2 0 .3 0 .4.2l.1.3v4.7c0 .2 0 .2.2.2h3.9s.2 0 .3.2l.1.3v3.6Zm13.7-4.3c1 0 1.7.1 2.3.5.2.1.3.3.2.6l-.8 4.6c0 .3-.3.4-.6.3-.4-.2-.9-.2-1.4-.2h-.9c-1 .1-1.8.5-2.4 1.1-.7.6-1 1.5-1 2.5v11s0 .2-.2.3l-.3.1h-4.7l-.3-.1-.2-.4V697c0-.1 0-.2.2-.3l.3-.2h4.7c.1 0 .2 0 .3.2l.2.3v1.7h.2a5 5 0 0 1 4.4-2.4Zm8-2c-.8 0-1.6-.4-2.2-1-.6-.6-.9-1.3-.9-2.2 0-1 .3-1.7 1-2.3a3 3 0 0 1 2.2-.9c1 0 1.7.3 2.3.9.6.6.8 1.3.8 2.3a3.1 3.1 0 0 1-3.1 3.1Zm-2.3 22.8-.4-.1v-20.3l.4-.2h4.7c.1 0 .2 0 .3.2l.1.3v19.6l-.1.4-.3.1h-4.7Zm32.3-20.9c2.1 0 3.8.6 5 1.9 1.1 1.3 1.7 3 1.7 5.3v13.2c0 .2 0 .3-.2.4l-.3.1H448l-.3-.1-.2-.4v-12c0-1-.2-2-.8-2.6-.6-.6-1.3-1-2.2-1a3 3 0 0 0-2.3 1c-.6.7-.9 1.5-.9 2.6v12c0 .2 0 .3-.2.4l-.3.1h-4.6l-.4-.1-.1-.4v-12c0-1-.3-1.9-.9-2.5-.6-.7-1.3-1-2.3-1-.8 0-1.5.2-2.1.7-.6.5-1 1.2-1 2.1v12.7c0 .2 0 .3-.2.4l-.3.1h-4.7l-.3-.1-.2-.4V697c0-.1 0-.2.2-.3l.3-.2h4.7c.1 0 .2 0 .3.2l.2.3V698.6h.2c1.1-1.7 2.8-2.5 5.1-2.5a7 7 0 0 1 3.5.9c1 .5 1.8 1.3 2.3 2.4h.3c.6-1.1 1.4-2 2.3-2.5 1-.5 2.2-.8 3.4-.8Zm19.6 21.2c-2.2 0-4.2-.6-5.8-1.7a8.8 8.8 0 0 1-3.2-4.8 14.9 14.9 0 0 1 0-8.3c.6-2 1.7-3.6 3.3-4.7a9.8 9.8 0 0 1 5.7-1.7c2.2 0 4.1.6 5.6 1.7 1.6 1 2.7 2.6 3.3 4.6a13.7 13.7 0 0 1 .1 8.2 9 9 0 0 1-3.3 5 9.3 9.3 0 0 1-5.7 1.7Zm0-4.8c.9 0 1.6-.3 2.2-.8.7-.6 1.1-1.3 1.4-2.2.2-.9.3-1.8.3-2.8 0-1.1-.1-2-.3-2.9-.3-.9-.8-1.6-1.4-2-.6-.6-1.4-.8-2.2-.8-1 0-1.7.2-2.3.7-.6.5-1 1.2-1.3 2.1-.2.7-.3 1.6-.3 2.9 0 1.2 0 2.1.3 2.8.2 1 .7 1.6 1.3 2.2.6.5 1.4.8 2.3.8Zm16.2-18.4c-.9 0-1.6-.3-2.2-.9-.6-.6-1-1.3-1-2.2 0-1 .4-1.7 1-2.3a3 3 0 0 1 2.2-.9c1 0 1.7.3 2.3.9.6.6.9 1.3.9 2.3a3.1 3.1 0 0 1-3.2 3.1ZM480 717l-.3-.1-.1-.4V696.6l.4-.2h4.7c.1 0 .3 0 .3.2.1 0 .2.1.2.3v19.6c0 .2 0 .3-.2.4l-.3.1H480Zm20.3-20.9a7 7 0 0 1 5.2 2c1.3 1.3 2 3 2 5.3v13.1l-.2.4-.4.1h-4.6l-.4-.1-.1-.4v-12c0-1-.3-1.9-1-2.5a3 3 0 0 0-2.3-1c-1 0-1.8.3-2.4 1-.6.6-.9 1.5-.9 2.6v12l-.1.3-.4.1H490l-.4-.1-.1-.4V697l.1-.3.4-.2h4.6c.2 0 .3 0 .4.2l.1.3v1.4l.1.2h.1c1.1-1.6 2.7-2.4 5-2.4Zm29.2 8.5c.2 1 .3 2.1.2 3.4 0 .3-.2.5-.5.5h-12.4c-.1 0-.2 0-.1.2 0 .5.2 1 .4 1.6.7 1.5 2.1 2.2 4.2 2.2 1.8 0 3.1-.7 4-2l.4-.3c.1 0 .2 0 .3.2l2.9 2.8.2.4-.2.3c-.8 1-2 2-3.4 2.5-1.3.6-2.9 1-4.5 1-2.3 0-4.3-.6-5.9-1.6a8.7 8.7 0 0 1-3.4-4.4c-.5-1.3-.8-3-.8-5.2 0-1.5.2-2.8.6-4a8.8 8.8 0 0 1 3.2-4.4 9 9 0 0 1 5.5-1.7c2.7 0 4.8.8 6.4 2.3 1.6 1.5 2.6 3.6 3 6.2Zm-9.3-3.6c-1.7 0-2.8.7-3.3 2.3l-.3 1.3c0 .1 0 .2.2.2h7c.1 0 .2 0 .1-.2l-.2-1.1a3.5 3.5 0 0 0-3.5-2.5ZM370.3 734c2 0 3.7.6 4.8 1.9 1.2 1.3 1.8 3 1.8 5.3v13.2c0 .2 0 .3-.2.4l-.3.1h-4.7l-.3-.1-.1-.4v-12c0-1-.3-2-.9-2.6-.5-.6-1.3-1-2.2-1a3 3 0 0 0-2.3 1c-.6.7-.9 1.5-.9 2.6v12l-.1.4-.4.1H360l-.4-.1v-12.4c0-1-.4-1.9-1-2.5-.6-.7-1.3-1-2.2-1-.9 0-1.6.2-2.2.7-.6.5-.9 1.2-1 2.1v12.7c0 .2 0 .3-.2.4l-.3.1H348l-.3-.1-.1-.4V734.6l.4-.2h4.7c.1 0 .3 0 .3.2l.2.3V736.6h.2c1.1-1.7 2.8-2.5 5.1-2.5a7 7 0 0 1 3.5.9c1 .5 1.8 1.3 2.3 2.4h.3c.6-1.1 1.4-2 2.4-2.5s2.1-.8 3.4-.8Zm13.6-2c-1 0-1.7-.3-2.3-.9-.6-.6-.9-1.3-.9-2.2 0-1 .3-1.7 1-2.3a3 3 0 0 1 2.2-.9c1 0 1.7.3 2.3.9.6.6.9 1.3.9 2.3a3 3 0 0 1-3.2 3.1Zm-2.4 22.9-.4-.1v-20.3l.4-.2h4.7c.1 0 .2 0 .3.2.1 0 .2.1.2.3v19.6l-.2.4-.3.1h-4.7Zm22.1-20 .1-.4.4-.2h4.7c.1 0 .2 0 .3.2l.1.3v18.3c0 3.5-1 6-3 7.4-2 1.5-4.6 2.3-7.8 2.3-.9 0-2 0-3-.2-.3 0-.5-.2-.5-.5l.2-4.2c0-.3.2-.5.5-.4 1 .2 1.9.2 2.7.2a6 6 0 0 0 4-1c.8-.8 1.3-2 1.3-3.7v-.1h-.2c-1 1.1-2.5 1.7-4.5 1.7-1.7 0-3.3-.4-4.8-1.3a7 7 0 0 1-3-4c-.5-1.3-.7-2.9-.7-4.8 0-2 .3-3.8.8-5a8 8 0 0 1 2.8-4c1.3-1 2.9-1.5 4.6-1.5 2.1 0 3.7.6 4.8 1.9h.1l.1-.1v-1Zm-.3 12.8a17.6 17.6 0 0 0 .2-5.2l-.3-1.2c-.2-.8-.6-1.3-1.2-1.8-.5-.4-1.2-.6-2-.6s-1.5.2-2 .6c-.6.5-1 1-1.3 1.8-.4.8-.6 1.8-.6 3.2 0 1.5.2 2.6.5 3.2.2.7.7 1.3 1.2 1.8.7.4 1.4.6 2.2.6.9 0 1.6-.2 2.1-.6.6-.5 1-1 1.2-1.8Zm20.2-13.6c1 0 1.7.1 2.3.5.2.1.3.3.2.6l-.8 4.6c0 .3-.2.4-.6.3-.4-.2-.8-.2-1.4-.2h-.8c-1 .1-1.8.5-2.5 1.1-.7.6-1 1.5-1 2.5v11l-.1.3-.4.1h-4.6l-.4-.1-.1-.4V734.6l.5-.2h4.6c.2 0 .3 0 .4.2l.1.3v1.5l.1.2h.1a5 5 0 0 1 4.4-2.4Zm13 0c1.8 0 3.3.2 4.7.8 1.4.6 2.4 1.4 3.2 2.5.7 1 1.1 2.2 1.1 3.5v13.5l-.1.4-.4.1h-4.6l-.4-.1-.1-.4v-1.3l-.1-.2-.2.1c-1 1.5-2.9 2.2-5.4 2.2-2 0-3.7-.5-5-1.5-1.3-1-2-2.5-2-4.5s.8-3.6 2.2-4.7a9.7 9.7 0 0 1 6.2-1.8h4c.2 0 .3 0 .3-.2v-.8c0-1-.3-1.6-.8-2-.6-.6-1.4-.8-2.4-.8-.9 0-1.5.1-2.1.4a2 2 0 0 0-1 1.2c-.1.3-.3.5-.6.4l-4.8-.6c-.3 0-.5-.2-.4-.4 0-1 .5-2 1.3-3a8 8 0 0 1 3-2.1 12 12 0 0 1 4.5-.8Zm-.7 17c1.1 0 2-.4 2.9-1 .8-.6 1.2-1.4 1.2-2.4v-1.4c0-.1 0-.2-.2-.2h-3c-1.1 0-2 .2-2.7.7-.7.4-1 1-1 1.9 0 .7.2 1.3.7 1.7.5.4 1.2.6 2 .6Zm25-12.7-.1.3-.3.2h-3.9c-.1 0-.2 0-.2.2v8.4c0 1 .2 1.6.6 2 .3.4 1 .6 1.7.6h1.3c.2 0 .3 0 .4.2l.1.3v3.8c0 .3-.1.5-.5.5l-2.4.1c-2.2 0-3.8-.3-5-1-1-.8-1.6-2.2-1.6-4.2v-10.7c0-.2 0-.2-.2-.2h-2.3c-.1 0-.2 0-.3-.2l-.2-.3v-3.6c0-.1 0-.2.2-.3l.3-.2h2.3c.1 0 .2 0 .2-.2v-4.7l.1-.3.4-.2h4.5s.2 0 .3.2l.1.3v4.7c0 .2.1.2.2.2h3.9c.1 0 .2 0 .3.2l.2.3v3.6Zm12.3 16.8c-2.3 0-4.2-.6-5.8-1.7a8.8 8.8 0 0 1-3.3-4.8c-.4-1.3-.5-2.7-.5-4.1 0-1.6.1-3 .5-4.3.6-2 1.7-3.5 3.3-4.6a9.8 9.8 0 0 1 5.8-1.7c2.2 0 4 .6 5.6 1.7 1.5 1 2.6 2.6 3.3 4.6a13.7 13.7 0 0 1 0 8.2 9 9 0 0 1-3.2 5 9.3 9.3 0 0 1-5.7 1.7Zm0-4.8c.8 0 1.6-.3 2.2-.8.6-.6 1-1.3 1.3-2.2.2-.9.3-1.8.3-2.8 0-1.1 0-2-.3-2.9-.3-.9-.7-1.6-1.3-2-.7-.6-1.4-.8-2.3-.8-.9 0-1.6.2-2.3.7-.5.5-1 1.2-1.2 2.1-.3.7-.4 1.6-.4 2.9 0 1.2.1 2.1.3 2.8.3 1 .7 1.6 1.3 2.2.7.5 1.5.8 2.4.8Zm16.2-18.4c-1 0-1.7-.3-2.3-.9-.6-.6-.9-1.3-.9-2.2 0-1 .3-1.7.9-2.3a3 3 0 0 1 2.3-.9c1 0 1.7.3 2.3.9.6.6.8 1.3.8 2.3a3.1 3.1 0 0 1-3.1 3.1Zm-2.4 22.9-.4-.1-.1-.4V735l.1-.3.4-.2h4.7c.1 0 .2 0 .3.2l.1.3v19.6l-.1.4-.3.1h-4.7Zm19.8-20.8c1 0 1.7.1 2.3.5.2.1.3.3.2.6l-.8 4.6c0 .3-.3.4-.6.3-.4-.2-.9-.2-1.4-.2h-.9c-1 .1-1.8.5-2.4 1.1-.7.6-1 1.5-1 2.5v11s0 .2-.2.3l-.3.1h-4.7l-.3-.1-.2-.4V735c0-.1 0-.2.2-.3l.3-.2h4.7c.1 0 .2 0 .3.2l.2.3v1.7h.2a5 5 0 0 1 4.4-2.4Zm22.7 8.4c.2 1 .3 2.1.2 3.4 0 .3-.2.5-.5.5h-12.4c-.1 0-.2 0-.1.2 0 .5.2 1 .4 1.6.7 1.5 2.1 2.2 4.2 2.2 1.8 0 3.1-.7 4-2l.4-.3c.1 0 .2 0 .3.2l2.9 2.8.2.4-.2.3c-.8 1-2 2-3.4 2.5-1.3.6-2.9 1-4.5 1-2.3 0-4.3-.6-5.9-1.6a8.7 8.7 0 0 1-3.4-4.4c-.5-1.3-.8-3-.8-5.2 0-1.5.2-2.8.6-4a8.8 8.8 0 0 1 3.2-4.4 9 9 0 0 1 5.5-1.7c2.7 0 4.8.8 6.4 2.3 1.6 1.5 2.6 3.6 3 6.2Zm-9.3-3.6c-1.7 0-2.8.7-3.3 2.3l-.3 1.3c0 .1 0 .2.2.2h7c.1 0 .2 0 .1-.2l-.2-1.1a3.5 3.5 0 0 0-3.5-2.5Z"/></g><defs><clipPath id="a"><use xlink:href="#reuse-0"/></clipPath></defs></svg>