<svg xmlns="http://www.w3.org/2000/svg" xmlns:xlink="http://www.w3.org/1999/xlink" width="595" height="842" fill="none" viewBox="0 0 595 842"><defs><path id="reuse-0" fill="#fff" d="M0 0H595V842H0z"/></defs><g clip-path="url(#a)"><use xlink:href="#reuse-0"/><use xlink:href="#reuse-0"/><path fill="#E13C2E" d="M519 796.5H528V797.5H519z" transform="rotate(180 519 796.5)"/><path fill="#1E3446" d="M510 796.5H562V797.5H510z" transform="rotate(180 510 796.5)"/><path fill="#1E3446" d="M526 796.7c.2.3.3.6.3 1l-.2 1a2 2 0 0 1-.8 1c-.4.3-.8.4-1.4.4-.5 0-1-.1-1.3-.4-.4-.3-.7-.6-.8-1l-.2-.9H523l.1.5.3.4.5.2c.4 0 .7-.2.8-.5l.1-.7-.1-.8a.8.8 0 0 0-.8-.5l-.2.1-.3.2h-.2l-.6-.9v-.1l1.6-1.4H522l-.1-.1V793h4.3V794.4l-1.3 1.2c.6.1 1 .5 1.3 1Zm5.4-2.4.2 1v3l-.3 1-.8.6a3 3 0 0 1-1.2.2c-.4 0-.8 0-1.1-.2-.4-.2-.6-.4-.8-.7-.2-.2-.3-.6-.3-1v-.2l.1-.1h1.2l.1.1v.1l.2.5.6.3c.3 0 .5-.1.6-.3.2-.1.3-.3.3-.5v-1h-.1c-.3.2-.6.4-1 .4-.5 0-.8-.1-1.2-.3a2 2 0 0 1-.7-.8c-.2-.3-.3-.7-.3-1.2l.2-1 .8-1c.4-.2.9-.3 1.4-.3.5 0 .9.1 1.3.4.4.2.6.6.8 1Zm-2.1 2c.3 0 .6-.2.7-.4l.2-.7c0-.2 0-.4-.2-.6-.1-.3-.4-.5-.7-.5-.4 0-.6.2-.8.5l-.1.6.1.7c.2.2.4.4.8.4Z"/><path fill="#D6C9C0" d="M513.2 106.8c0 .3-.1.5-.3.7-.2.2-.4.3-.7.3h-8.5a1 1 0 0 1-.7-.3 1 1 0 0 1-.3-.7V91.4c0-.3-.1-.4-.4-.4H454a1 1 0 0 1-.7-.4 1 1 0 0 1-.3-.7V80c0-.3 0-.6.3-.8.2-.2.4-.3.7-.3h48.3c.3 0 .4-.1.4-.4v-15c0-.2 0-.5.3-.7.2-.2.5-.3.7-.3h8.5c.3 0 .5 0 .7.3.2.2.3.5.3.7v43.4Zm-15.4 20.8c0 2-.4 3.7-1.2 5-.2.4-.7.6-1.3.4l-9.8-1.8c-.7 0-.9-.4-.6-1.2.3-.8.4-1.8.4-3l-.1-1.9c-.2-2-1-3.8-2.4-5.2a6.9 6.9 0 0 0-5.3-2.2H454a1 1 0 0 1-.7-.3 1 1 0 0 1-.3-.7v-10c0-.3 0-.6.3-.8.2-.2.4-.3.7-.3h42.2c.3 0 .5 0 .7.3.2.2.3.5.3.7v10.1c0 .3-.1.5-.3.7-.2.2-.4.3-.7.3h-3.3c-.2 0-.3 0-.3.2v.3a11 11 0 0 1 5.2 9.4Zm-18.1 44.7c-2.2.3-4.7.4-7.3.3-.7 0-1-.4-1-1.1v-26.6c0-.3-.2-.4-.5-.3-1.2.1-2.3.5-3.5 1-3.2 1.4-4.8 4.5-4.8 9 0 3.7 1.6 6.6 4.5 8.7.3.3.5.5.5.8l-.3.6-6.1 6.2c-.3.3-.6.4-.8.4-.1 0-.3 0-.7-.3a19.1 19.1 0 0 1-5.5-7.3 25 25 0 0 1-1.9-9.8c0-5 1.1-9.2 3.4-12.6 2.2-3.4 5.3-5.8 9.3-7.3 3-1.2 6.7-1.8 11.3-1.8 3.2 0 6 .4 8.3 1.3a19 19 0 0 1 9.8 6.9c2.4 3.3 3.6 7.2 3.6 11.7a19 19 0 0 1-5 13.8 21.7 21.7 0 0 1-13.3 6.4Zm7.8-20c0-3.7-1.7-6-5-7.2l-2.8-.6c-.3 0-.5.1-.5.4v14.9c0 .3.2.5.5.3l2.4-.4c1.7-.5 3-1.4 4-2.7.9-1.3 1.4-2.9 1.4-4.8Zm15-5c0-.5.2-.7.4-.8.2-.1.5-.1.8 0l8.7 4.6c.5.2.8.7.8 1.3v8.7c0 .4-.1.6-.4.8-.3.1-.5.1-.9-.1l-8.7-6.1c-.4-.3-.7-.7-.7-1.2v-7.3Zm-50.1 45.4c0-3.9.5-7.2 1.6-10.1 1.1-2.9 2.6-5.1 4.6-6.7 2-1.6 4.1-2.3 6.6-2.3h.9c.3 0 .5 0 .7.2.2.3.3.5.3.8v9.5c0 .3-.1.6-.3.7-.2.3-.4.4-.7.4h-.1c-1.3 0-2.4.7-3.3 2-.8 1.5-1.3 3.3-1.3 5.4 0 2 .4 3.5 1.1 4.7.8 1.2 1.8 1.8 3 1.8 1 0 1.8-.5 2.3-1.5.5-1 1-2.8 1.6-5.1a51 51 0 0 1 6.6-15.1c1.9-2.2 4.5-3.3 8-3.3a12 12 0 0 1 10 4.9c2.5 3.3 3.8 7.7 3.8 13.1 0 3.7-.6 7-1.8 9.7a14.2 14.2 0 0 1-4.9 6.3 12 12 0 0 1-7.2 2.4 1 1 0 0 1-.8-.4 1 1 0 0 1-.3-.7v-9.2c0-.3.1-.5.3-.7.2-.2.5-.3.8-.3 1.2 0 2.3-.7 3.2-2 .8-1.2 1.2-3 1.2-5s-.3-3.5-1-4.7c-.7-1.2-1.6-1.8-2.8-1.8-1.2 0-2 .6-2.6 1.7-.6 1.2-1.2 3.2-1.8 6a194.5 194.5 0 0 1-1.3 4.7 28 28 0 0 1-4.6 9.6c-2 2.4-4.7 3.5-8.3 3.5-4.2 0-7.6-1.7-10-5a23 23 0 0 1-3.5-13.5Zm0 40.7a18.9 18.9 0 0 1 14.1-19.4 31.9 31.9 0 0 1 17.9 0c4.1 1.3 7.5 3.7 9.9 7.1a21 21 0 0 1 3.6 12.4 20 20 0 0 1-3.6 12 18.8 18.8 0 0 1-10 7.1 29.5 29.5 0 0 1-17.6.2c-4.5-1.3-8-3.6-10.6-7a20 20 0 0 1-3.8-12.4Zm10.3 0a7 7 0 0 0 1.7 4.8 9.6 9.6 0 0 0 4.8 2.9c1.8.4 3.8.7 6 .7 2.4 0 4.4-.3 6-.7 2-.7 3.6-1.6 4.7-3 1-1.3 1.6-2.9 1.6-4.8 0-2-.6-3.6-1.6-4.9a9.3 9.3 0 0 0-4.6-2.7c-1.4-.5-3.4-.7-6.1-.7-2.6 0-4.6.2-6 .6-2 .6-3.6 1.5-4.8 2.8a7.5 7.5 0 0 0-1.7 5Zm35.1 46c0 2.1-.4 3.8-1.2 5-.2.4-.7.6-1.3.5l-9.8-1.8c-.7 0-.9-.5-.6-1.2.3-.9.4-1.9.4-3l-.1-2c-.2-2-1-3.7-2.4-5.2a6.9 6.9 0 0 0-5.3-2.1H454a1 1 0 0 1-.7-.4 1 1 0 0 1-.3-.6v-10.1c0-.3 0-.5.3-.8l.7-.2h42.2c.3 0 .5 0 .7.2.2.3.3.5.3.8v10c0 .3-.1.6-.3.8-.2.2-.4.3-.7.3h-3.3c-.2 0-.3 0-.3.2-.1 0 0 .2 0 .2a11 11 0 0 1 5.2 9.5ZM452.4 303c0-3.8.5-7.1 1.6-10 1.1-2.9 2.6-5.1 4.6-6.7 2-1.6 4.1-2.3 6.6-2.3h.9c.3 0 .5 0 .7.2.2.2.3.5.3.8v9.5c0 .3-.1.6-.3.7-.2.3-.4.4-.7.4h-.1c-1.3 0-2.4.7-3.3 2-.8 1.5-1.3 3.2-1.3 5.4 0 2 .4 3.5 1.1 4.7.8 1.2 1.8 1.8 3 1.8 1 0 1.8-.5 2.3-1.6.5-1 1-2.7 1.6-5a51 51 0 0 1 6.6-15.2c1.9-2.1 4.5-3.2 8-3.2a12 12 0 0 1 10 4.9c2.5 3.3 3.8 7.7 3.8 13.1 0 3.7-.6 7-1.8 9.7a14.2 14.2 0 0 1-4.9 6.3 12 12 0 0 1-7.2 2.4 1 1 0 0 1-.8-.4 1 1 0 0 1-.3-.7v-9.2c0-.3.1-.5.3-.8l.8-.2c1.2 0 2.3-.7 3.2-2 .8-1.3 1.2-3 1.2-5s-.3-3.5-1-4.7c-.7-1.2-1.6-1.8-2.8-1.8-1.2 0-2 .6-2.6 1.7-.6 1.2-1.2 3.2-1.8 6a194.5 194.5 0 0 1-1.3 4.7 28 28 0 0 1-4.6 9.6c-2 2.3-4.7 3.5-8.3 3.5-4.2 0-7.6-1.7-10-5a23 23 0 0 1-3.5-13.6Zm59.8 61.6c.3 0 .5.1.7.3.2.2.3.5.3.8v10c0 .3-.1.5-.3.7-.2.2-.4.4-.7.4H454a1 1 0 0 1-.7-.4 1 1 0 0 1-.3-.7v-10c0-.3 0-.6.3-.8.2-.2.4-.3.7-.3h2.9l.2-.1v-.4a11.8 11.8 0 0 1-4.8-9.9c0-4 1.1-7.5 3.4-10.4 2.2-2.8 5.3-5 9.2-6.2 3-1 6.4-1.4 10.4-1.4s7.6.5 10.6 1.5a17 17 0 0 1 12 16.8c0 4.1-1.4 7.3-4.3 9.6-.2.1-.2.3-.2.4l.4.1h18.4Zm-45.8-1.8c2.1 1.2 5 1.8 8.7 1.8a18 18 0 0 0 9-2 6.3 6.3 0 0 0 3.4-5.7c0-2.7-1.1-4.7-3.4-6.1a16.8 16.8 0 0 0-9-2.2c-3.5 0-6.4.6-8.7 1.8a7 7 0 0 0-3.7 6.4c0 2.6 1.3 4.6 3.7 6Zm29.8 44.6c.3 0 .5.1.7.3.2.2.3.5.3.7v10.1c0 .3-.1.5-.3.7-.2.2-.4.3-.7.3H454a1 1 0 0 1-.7-.3 1 1 0 0 1-.3-.7v-10c0-.3 0-.6.3-.8.2-.2.4-.3.7-.3h3c.1 0 .2 0 .2-.2 0 0 0-.2-.2-.3-3-2.3-4.6-5.8-4.6-10.7 0-4.3 1.3-8 4-10.7 2.6-2.8 6.3-4.2 11-4.2h28.8c.3 0 .5 0 .7.2.2.3.3.5.3.8v10c0 .3-.1.5-.3.7-.2.2-.4.3-.7.3h-25.7c-2.3 0-4.2.6-5.6 1.8a6.5 6.5 0 0 0-2.2 5.2c0 2 .6 3.5 1.7 4.8 1.2 1.3 2.8 2 4.7 2.3h27ZM452.3 459c0-4.4.9-8.4 2.6-11.8 1.8-3.3 4.2-6 7.4-7.8 3.1-1.8 6.8-2.7 11-2.7H493c4.1 0 7.7.9 10.9 2.7 3.2 1.9 5.6 4.5 7.3 7.8 1.7 3.4 2.6 7.4 2.6 11.8s-.8 8.3-2.5 11.6c-1.6 3.4-4 6-7 7.9a19 19 0 0 1-10.4 2.8c-.5 0-.8-.3-1-1l-.5-10.1v-.2c0-.5.3-.8 1-.8 3 0 5.4-1 7.2-2.9a9.9 9.9 0 0 0 2.8-7.3c0-3-1-5.6-2.8-7.5a9.9 9.9 0 0 0-7.3-2.7h-20.7c-3 0-5.4 1-7.2 2.7a10.3 10.3 0 0 0-2.8 7.5 9.6 9.6 0 0 0 10 10.1c.6 0 1 .4 1 1.1l-.5 10c0 .4 0 .6-.2.8l-.6.3c-4 0-7.5-1-10.5-2.8-3-1.9-5.4-4.5-7-7.9a25.6 25.6 0 0 1-2.6-11.6Zm.7 28c0-.4 0-.6.3-.9l.7-.2h58.2c.3 0 .5 0 .7.2.2.3.3.5.3.8v21.5c0 4.3-.8 8-2.3 11.3a17.3 17.3 0 0 1-6.4 7.6c-2.7 1.7-6 2.6-9.5 2.6h-23.8c-3.6 0-6.8-.9-9.5-2.6a17.8 17.8 0 0 1-6.5-7.6c-1.5-3.2-2.2-7-2.2-11.3V487Zm10.8 11c-.3 0-.4.2-.4.4V509c0 2.6.9 4.7 2.7 6.3 1.7 1.7 4.1 2.5 7.1 2.6H493c3 0 5.4-.8 7.1-2.5a8.4 8.4 0 0 0 2.7-6.5v-10.4c0-.2-.1-.4-.4-.4h-38.6Zm48.7 75.5c.5.2.7.6.7 1.2v10c0 .3-.1.5-.3.7-.2.2-.4.4-.7.4H454a1 1 0 0 1-.7-.4 1 1 0 0 1-.3-.7v-10c0-.3 0-.6.3-.8.2-.2.4-.3.7-.3h38l.3-.1c0-.2 0-.3-.3-.4l-14.2-9.1c-.5-.3-.7-.7-.7-1.2v-5c0-.6.2-1 .7-1.3l14.2-9.1c.2-.1.3-.2.2-.4l-.3-.1H454a1 1 0 0 1-.7-.4 1 1 0 0 1-.3-.7v-10c0-.3 0-.6.3-.8.2-.2.4-.2.7-.2h58.2c.3 0 .5 0 .7.2.2.2.3.5.3.8v10c0 .6-.2 1-.7 1.3l-20 12.9c-.4.1-.4.3 0 .5l20 13Zm-.3 50.4c.3 0 .5.1.7.3.2.2.3.5.3.8v10c0 .3-.1.5-.3.7-.2.2-.4.3-.7.3H454a1 1 0 0 1-.7-.3 1 1 0 0 1-.3-.7v-10c0-.3 0-.6.3-.8.2-.2.4-.3.7-.3h23.8c.3 0 .4-.1.4-.4v-19c0-.3-.1-.4-.4-.4H454a1 1 0 0 1-.7-.4 1 1 0 0 1-.3-.7v-10c0-.3 0-.6.3-.8.2-.2.4-.3.7-.3h58.2c.3 0 .5.1.7.3.2.2.3.5.3.8v10c0 .3-.1.5-.3.7-.2.2-.4.4-.7.4H489c-.3 0-.4.1-.4.4v19c0 .3.1.4.4.4h23.2Z" opacity=".6"/><path fill="#D6C9C0" d="M528 60H531V659H528z" opacity=".8"/><path fill="#1E3446" d="M254.7 689c.1 0 .2 0 .3.2.1 0 .2.1.2.3v3.9l-.2.4h-7.5c-.1 0-.2.1-.2.3v22.4l-.1.4-.4.1h-4.6l-.4-.1-.1-.4v-22.4c0-.2 0-.2-.2-.2h-7l-.3-.1-.2-.4v-4s0-.2.2-.2l.3-.2h20.2Zm11.7 7.2c1 0 1.7.1 2.2.5.3.1.3.3.3.6l-.9 4.6c0 .3-.2.4-.5.3-.4-.2-.9-.2-1.4-.2h-.9c-1 .1-1.8.5-2.4 1.1-.7.6-1 1.5-1 2.5v11s0 .2-.2.3l-.3.1h-4.7l-.4-.1v-20.3l.4-.2h4.7c.1 0 .2 0 .3.2l.2.3v1.7h.2a5 5 0 0 1 4.4-2.4Zm22.7 8.4c.2 1 .2 2.1.2 3.4 0 .3-.2.5-.5.5h-12.4c-.1 0-.2 0-.1.2 0 .5.2 1 .4 1.6.7 1.5 2.1 2.2 4.2 2.2 1.7 0 3-.7 4-2l.4-.3c.1 0 .2 0 .3.2l2.9 2.8.2.4-.2.3c-.8 1-2 2-3.4 2.5-1.4.6-2.9 1-4.5 1-2.3 0-4.3-.6-5.9-1.6a8.7 8.7 0 0 1-3.4-4.4c-.5-1.3-.8-3-.8-5.2 0-1.5.2-2.8.6-4a8.8 8.8 0 0 1 3.2-4.4 9 9 0 0 1 5.5-1.7c2.6 0 4.8.8 6.4 2.3 1.6 1.5 2.6 3.6 3 6.2Zm-9.3-3.6c-1.7 0-2.8.7-3.3 2.3l-.3 1.3c0 .1 0 .2.2.2h7s.1 0 0-.2l-.1-1.1a3.5 3.5 0 0 0-3.5-2.5Zm-2.3-7c-.2 0-.3 0-.4-.2v-.4l2.2-4c.1-.3.3-.4.6-.4h4c.2 0 .3 0 .4.2v.4l-2.9 4c-.1.3-.3.4-.5.4h-3.4Zm23.1 23.3c-1.8 0-3.3-.3-4.7-.8a7.3 7.3 0 0 1-3-2.1c-.8-1-1.2-2-1.2-3v-.5c0-.1 0-.2.2-.3l.3-.2h4.5s.2 0 .3.2l.1.3c0 .6.4 1.2 1 1.6.7.4 1.5.6 2.5.6.9 0 1.6-.2 2.2-.5.5-.4.8-.9.8-1.4 0-.5-.2-.8-.7-1-.5-.3-1.3-.6-2.4-.8a23.8 23.8 0 0 1-7-3.1c-1-.9-1.5-2.1-1.5-3.7 0-2 .7-3.5 2.3-4.7a9.9 9.9 0 0 1 6-1.7c1.8 0 3.3.2 4.6.8 1.2.5 2.2 1.3 3 2.3.6 1 1 2 1 3.3 0 .2 0 .3-.2.4l-.3.1h-4.3l-.3-.1-.1-.4c0-.5-.4-1-1-1.4-.6-.4-1.3-.6-2.3-.6-.9 0-1.6.1-2.2.4-.5.4-.8.8-.8 1.4 0 .5.2.9.8 1.2l2.7.8a80.9 80.9 0 0 1 2.2.6 13 13 0 0 1 4.5 2.2c1.1.8 1.7 2.1 1.7 3.8 0 2-.8 3.5-2.4 4.6-1.6 1.1-3.6 1.7-6.3 1.7Zm21 0c-2.3 0-4.2-.6-5.8-1.7a8.8 8.8 0 0 1-3.3-4.8c-.3-1.3-.5-2.7-.5-4.1 0-1.6.2-3 .5-4.3.6-2 1.8-3.5 3.4-4.6a9.8 9.8 0 0 1 5.7-1.7c2.2 0 4 .6 5.6 1.7 1.6 1 2.7 2.6 3.3 4.6a13.7 13.7 0 0 1 0 8.2 9 9 0 0 1-3.2 5 9.3 9.3 0 0 1-5.7 1.7Zm0-4.8c.9 0 1.6-.3 2.2-.8.6-.6 1-1.3 1.3-2.2a11.5 11.5 0 0 0 0-5.7c-.3-.9-.7-1.6-1.3-2-.6-.6-1.4-.8-2.3-.8-.9 0-1.6.2-2.2.7-.6.5-1 1.2-1.3 2.1-.2.7-.3 1.6-.3 2.9 0 1.2 0 2.1.2 2.8.3 1 .7 1.6 1.4 2.2.6.5 1.4.8 2.3.8Zm23.4-16.3c1 0 1.7.1 2.3.5.2.1.3.3.2.6l-.8 4.6c0 .3-.2.4-.6.3-.4-.2-.8-.2-1.4-.2h-.9c-1 .1-1.7.5-2.4 1.1-.7.6-1 1.5-1 2.5v11s0 .2-.2.3l-.3.1h-4.7l-.3-.1-.1-.4V696.6l.4-.2h4.7c.2 0 .3 0 .3.2l.2.3v1.7h.2a5 5 0 0 1 4.4-2.4Zm13 21c-1.8 0-3.4-.2-4.7-.7a7.3 7.3 0 0 1-3.1-2.1c-.8-1-1.1-2-1.1-3v-.5l.1-.3.4-.2h4.4c.1 0 .2 0 .3.2l.2.3c0 .6.3 1.2 1 1.6.6.4 1.4.6 2.4.6s1.7-.2 2.2-.5c.6-.4.9-.9.9-1.4 0-.5-.3-.8-.8-1-.4-.3-1.2-.6-2.3-.8a23.8 23.8 0 0 1-7-3.1c-1-.9-1.6-2.1-1.6-3.7 0-2 .8-3.5 2.3-4.7a9.9 9.9 0 0 1 6.1-1.7c1.7 0 3.2.2 4.5.8 1.3.5 2.3 1.3 3 2.3.7 1 1 2 1 3.3l-.1.4-.3.1h-4.3l-.4-.1-.1-.4c0-.5-.3-1-1-1.4-.5-.4-1.3-.6-2.3-.6-.9 0-1.6.1-2.1.4-.6.4-.9.8-.9 1.4 0 .5.3.9.8 1.2l2.8.8a86 86 0 0 1 2.2.6 13 13 0 0 1 4.5 2.2c1 .8 1.6 2.1 1.6 3.8 0 2-.8 3.5-2.4 4.6-1.5 1.1-3.6 1.7-6.2 1.7Zm32.6-27.7.1-.3.4-.2h4.7c.1 0 .2 0 .3.2l.1.3v27l-.1.4-.3.1H391l-.4-.1V715.2l-.2-.1h-.1a5.5 5.5 0 0 1-4.6 2.2c-1.9 0-3.5-.5-4.9-1.5a8.6 8.6 0 0 1-2.9-4.3c-.4-1.4-.6-3-.6-4.9 0-1.9.2-3.5.7-5a7.9 7.9 0 0 1 7.8-5.6c2 .1 3.4.8 4.5 2.1l.1.1.1-.2v-8.5Zm-.8 21.3c.5-1 .8-2.4.8-4 0-1.9-.3-3.3-1-4.3a3 3 0 0 0-2.6-1.5c-1.2 0-2.2.5-2.8 1.5-.7 1-1 2.5-1 4.3 0 1.6.2 2.9.8 4a3.2 3.2 0 0 0 3 1.7c1.2 0 2.1-.6 2.8-1.7Zm22.7-13.9.1-.3.4-.2h4.7c.1 0 .2 0 .3.2l.1.3v19.6l-.1.4-.3.1H413l-.4-.1-.1-.4V715l-.2.1c-1.1 1.5-2.8 2.2-5 2.2a7 7 0 0 1-5-1.9c-1.3-1.2-2-3-2-5.1v-13.4c0-.1 0-.2.2-.3l.3-.2h4.7c.1 0 .2 0 .3.2l.1.3v12c0 1 .3 2 .9 2.6a3 3 0 0 0 2.4 1c.9 0 1.6-.3 2.2-.8.6-.6 1-1.3 1.1-2.2V697Zm28 20.4c-2 0-3.9-.4-5.5-1.2-1.5-.8-2.8-2-3.6-3.4a10 10 0 0 1-1.3-5.1v-9.2c0-2 .4-3.7 1.3-5.1.8-1.5 2-2.6 3.6-3.4a12 12 0 0 1 5.5-1.2c2 0 3.9.4 5.4 1.1a8.8 8.8 0 0 1 5 8c0 .4-.2.5-.5.6l-4.7.2c-.3 0-.5-.1-.5-.4 0-1.4-.4-2.5-1.3-3.4-.8-.9-2-1.3-3.4-1.3s-2.6.4-3.5 1.3c-.8.9-1.3 2-1.3 3.4v9.6c0 1.4.5 2.5 1.3 3.4 1 .9 2 1.3 3.5 1.3 1.4 0 2.6-.4 3.4-1.3.9-.9 1.3-2 1.3-3.4 0-.3.2-.4.5-.4l4.7.2.3.1.2.3a9 9 0 0 1-1.4 4.9c-.8 1.4-2 2.5-3.6 3.3a12 12 0 0 1-5.4 1.1Zm15-.3-.4-.1-.1-.4v-27l.1-.3.4-.2h10c2 0 3.7.4 5.2 1a8 8 0 0 1 3.5 3 8 8 0 0 1 1.3 4.5v11a8 8 0 0 1-1.3 4.5c-.8 1.2-2 2.2-3.5 3-1.5.7-3.2 1-5.2 1h-10Zm5.1-5 .2.2h4.9c1.2 0 2.2-.5 3-1.3.7-.8 1.1-2 1.1-3.3v-9.2c0-1.4-.3-2.5-1.1-3.3a3.9 3.9 0 0 0-3-1.3h-4.9l-.2.2v18Zm37.1-22.7c.2-.2.3-.3.6-.3h4.7c.1 0 .2 0 .3.2l.1.3v27l-.1.4-.3.1h-4.7l-.4-.1v-18l-.2-.2-.1.1-4.3 6.7c-.1.2-.3.3-.5.3h-2.4a.6.6 0 0 1-.6-.3l-4.2-6.7h-.2V716.5c0 .2 0 .3-.2.4l-.3.1h-4.7l-.4-.1v-27.7l.4-.2h4.7c.2 0 .4.1.5.3l6 9.3c.1.2.2.2.3 0l6-9.3Zm25.5.2.1-.3.4-.2h4.7c.1 0 .2 0 .3.2l.1.3v27l-.1.4-.3.1h-4.7l-.4-.1-.1-.4v-11c0-.2 0-.2-.2-.2h-8.8c-.2 0-.2 0-.2.2v11c0 .2 0 .3-.2.4l-.3.1h-4.7l-.4-.1v-27.7l.4-.2h4.7c.1 0 .2 0 .3.2.1 0 .2.1.2.3v10.7c0 .2 0 .2.2.2h8.8c.1 0 .2 0 .2-.2v-10.7Z"/></g><defs><clipPath id="a"><use xlink:href="#reuse-0"/></clipPath></defs></svg>